<svg height="40" viewBox="0 0 40 40" width="40" xmlns="http://www.w3.org/2000/svg"><g fill="#aac687" transform=""><path d="m29.0201471 0h-17.0402942c-1.6424705 0-2.9798529 1.318-2.9798529 2.93666667v34.12600003c0 1.6193333 1.3373824 2.9373333 2.9798529 2.9373333h17.0396177c1.643147 0 2.9805294-1.318 2.9805294-2.9366667v-34.12666663c0-1.61866667-1.3373824-2.93666667-2.9798529-2.93666667zm-18.6672059 5.33333333h20.2941176v25.33333337h-20.2941176zm1.6269117-4h17.0396177c.8976765 0 1.6275882.71933334 1.6275882 1.60333334v1.06333333h-20.2941176v-1.06333333c0-.884.7299117-1.60333334 1.6269117-1.60333334zm17.0402942 37.33333337h-17.0402942c-.897 0-1.6269117-.7193334-1.6269117-1.6033334v-5.0633333h20.2941176v5.0633333c0 .884-.7299117 1.6033334-1.6269117 1.6033334z"/><path d="m19.5 33c-1.37875 0-2.5 1.12125-2.5 2.5s1.12125 2.5 2.5 2.5 2.5-1.12125 2.5-2.5-1.12125-2.5-2.5-2.5zm0 3.75c-.689375 0-1.25-.560625-1.25-1.25s.560625-1.25 1.25-1.25 1.25.560625 1.25 1.25-.560625 1.25-1.25 1.25z"/><path d="m17.6666667 3h2.6666666c.3686667 0 .6666667-.2235.6666667-.5s-.298-.5-.6666667-.5h-2.6666666c-.3686667 0-.6666667.2235-.6666667.5s.298.5.6666667.5z"/><path d="m21.6666667 3h.6666666c.3686667 0 .6666667-.2235.6666667-.5s-.298-.5-.6666667-.5h-.6666666c-.3686667 0-.6666667.2235-.6666667.5s.298.5.6666667.5z"/><path d="m38.0053982 3.19012746c-.2302596-.25350328-.6024439-.25350328-.8327035 0s-.2302596.66325794 0 .91676122c2.2001276 2.42222058 2.2001276 6.36351582 0 8.78638472-.2302596.2535033-.2302596.6632579 0 .9167612.1148354.1264275.2655936.1899654.4163518.1899654s.3015164-.0635379.4163517-.1899654c2.6594691-2.9272821 2.6594691-7.69197669 0-10.61990714z"/><path d="m35.2162066 4.18485177c-.2785396-.24646903-.7287623-.24646903-1.0073019 0-.2785396.24646902-.2785396.64485374 0 .89132276.8812111.77974983 1.3663402 1.81857579 1.3663402 2.92421944s-.4851291 2.14383923-1.3663402 2.92358913c-.2785396.246469-.2785396.6448537 0 .8913227.1389136.1229194.3212823.1846942.503651.1846942.1823686 0 .3647373-.0617748.5036509-.1846942 1.1504897-1.0173939 1.7837934-2.37265831 1.7837934-3.81491183s-.6325913-2.79814833-1.7837934-3.8155422z"/><path d="m2.8273053 4.10688868c.2302596-.25350328.2302596-.66325794 0-.91676122-.23025961-.25350328-.60244394-.25350328-.83270354 0-2.65946901 2.92793045-2.65946901 7.69197674 0 10.61990714.11483535.1264275.26559356.1899654.41635177.1899654.1507582 0 .30151641-.0635379.41635177-.1899654.2302596-.2535033.2302596-.6632579 0-.9167612-2.2007165-2.4222206-2.2007165-6.36351579 0-8.78638472z"/><path d="m5.79109528 4.18485177c-.27853963-.24646903-.72876224-.24646903-1.00730187 0-1.15048976 1.01739387-1.78379341 2.37265833-1.78379341 3.81491185s.63330365 2.79751798 1.78379341 3.81554218c.13891362.1229194.32128228.1846942.50365094.1846942.18236865 0 .36473731-.0617748.50365093-.1846942.27853963-.246469.27853963-.6448537 0-.8913227-.88121104-.7797499-1.36634016-1.81857583-1.36634016-2.92421948 0-1.10564366.48441674-2.14383926 1.36634016-2.92358909.27782725-.24583867.27782725-.64485374 0-.89132276z"/></g></svg>