<svg height="39" width="39" xmlns="http://www.w3.org/2000/svg"><g fill="#aac687"><path d="M35.75 0H3.25A3.254 3.254 0 0 0 0 3.25v32.5A3.254 3.254 0 0 0 3.25 39h32.5A3.254 3.254 0 0 0 39 35.75V3.25A3.254 3.254 0 0 0 35.75 0zm1.95 35.75a1.95 1.95 0 0 1-1.95 1.95H3.25a1.95 1.95 0 0 1-1.95-1.95V6.5h36.4v29.25zm0-30.55H1.3V3.25A1.95 1.95 0 0 1 3.25 1.3h32.5a1.95 1.95 0 0 1 1.95 1.95V5.2z"/><path d="M6 3H5c-.552 0-1 .224-1 .5s.448.5 1 .5h1c.552 0 1-.224 1-.5S6.552 3 6 3z"/><path d="M6.69 3.041a.459.459 0 0 0-.38 0 .578.578 0 0 0-.165.105.506.506 0 0 0 0 .71c.049.043.104.079.165.104a.472.472 0 0 0 .38 0 .578.578 0 0 0 .165-.105.506.506 0 0 0 0-.709.578.578 0 0 0-.165-.105zM9.692 3.038a.5.5 0 0 0-.547.11.576.576 0 0 0-.105.164.468.468 0 0 0 0 .379c.025.06.06.116.105.164a.508.508 0 0 0 .71 0 .576.576 0 0 0 .105-.164.498.498 0 0 0-.268-.653zM35.361 3H13.64c-.353 0-.639.224-.639.5s.286.5.639.5H35.36c.353 0 .639-.224.639-.5s-.286-.5-.639-.5zM9.343 30.012c.028.026.06.05.093.07a12.443 12.443 0 0 0 18.133-.006.585.585 0 0 0 .088-.062.61.61 0 0 0 .054-.092 12.425 12.425 0 0 0 0-16.843l-.003-.001a.61.61 0 0 0-.054-.092.56.56 0 0 0-.093-.07 12.443 12.443 0 0 0-18.125 0 .556.556 0 0 0-.093.07.61.61 0 0 0-.054.092 12.425 12.425 0 0 0 0 16.843.603.603 0 0 0 .054.091zm12.564 2.205a11.486 11.486 0 0 0 2.128-3.938v-.002c.785.368 1.526.824 2.208 1.359a11.249 11.249 0 0 1-4.336 2.58zm5.199-3.49a12.675 12.675 0 0 0-2.717-1.665c.402-1.616.622-3.272.655-4.938h4.672a11.189 11.189 0 0 1-2.61 6.604zm2.61-7.853h-4.672a22.291 22.291 0 0 0-.655-4.937 12.676 12.676 0 0 0 2.717-1.665 11.188 11.188 0 0 1 2.61 6.602zm-3.473-7.513a11.44 11.44 0 0 1-2.208 1.359 11.486 11.486 0 0 0-2.128-3.94 11.252 11.252 0 0 1 4.336 2.58zm-7.12-3.025c1.531.402 2.886 2.244 3.74 4.851a13.27 13.27 0 0 1-3.74.712zm0 6.814a14.453 14.453 0 0 0 4.084-.75c.355 1.466.552 2.966.587 4.474h-4.672zm0 4.974h4.671a21.161 21.161 0 0 1-.587 4.474 14.452 14.452 0 0 0-4.085-.749zm0 4.976a13.27 13.27 0 0 1 3.74.712c-.854 2.608-2.209 4.45-3.74 4.851zm-8.371 2.534a11.443 11.443 0 0 1 2.208-1.355v-.002a11.486 11.486 0 0 0 2.128 3.938 11.25 11.25 0 0 1-4.336-2.58zm7.12 3.029c-1.531-.402-2.886-2.244-3.74-4.851a13.27 13.27 0 0 1 3.74-.712zm0-6.814c-1.39.052-2.766.305-4.085.75a21.163 21.163 0 0 1-.586-4.475h4.671zm0-4.975h-4.671c.035-1.507.232-3.007.586-4.473 1.319.445 2.695.697 4.085.749zm0-10.538v5.563a13.27 13.27 0 0 1-3.74-.712c.854-2.608 2.209-4.45 3.74-4.851zm-2.784.442a11.486 11.486 0 0 0-2.128 3.942v-.002a11.44 11.44 0 0 1-2.208-1.36 11.25 11.25 0 0 1 4.336-2.58zM9.89 14.271a12.675 12.675 0 0 0 2.717 1.666 22.283 22.283 0 0 0-.655 4.937H7.28a11.189 11.189 0 0 1 2.61-6.603zm2.062 7.853c.033 1.666.253 3.322.655 4.938-.972.439-1.885.998-2.717 1.665a11.188 11.188 0 0 1-2.61-6.603h4.672z"/></g></svg>