<svg height="39" viewBox="0 0 28 39" width="28" xmlns="http://www.w3.org/2000/svg"><g fill="#aac687" transform=""><path d="m14 0c-7.7196 0-14 6.15072656-14 13.7109375 0 2.5543477.72247778 5.0471484 2.08981111 7.2098203l11.11327779 17.5391074c.2128778.3359942.5879222.5401348.9912778.5401348h.0092555c.4068556-.003123.7826778-.2135859.9916667-.5554453l10.8300111-17.7090469c1.2918889-2.1169687 1.9747-4.5460137 1.9747-7.0245703 0-7.56021094-6.2804-13.7109375-14-13.7109375zm10.0229111 19.5623086-9.8462 16.1002969-10.10372221-15.9458203c-1.13812222-1.8000938-1.75521111-3.8768438-1.75521111-6.0058477 0-6.30017578 5.24922222-11.44101562 11.68222222-11.44101562s11.6744444 5.14083984 11.6744444 11.44101562c0 2.0658574-.5764111 4.0895156-1.6515333 5.8513711z"/><path d="m14 6.88235294c-3.8598 0-7 3.08742353-7 6.88235296 0 3.7706882 3.0891 6.8823529 7 6.8823529 3.9591222 0 7-3.1531117 7-6.8823529 0-3.79492943-3.1402-6.88235296-7-6.88235296zm0 11.48588236c-2.5866556 0-4.68222222-2.0672294-4.68222222-4.6035294 0-2.529953 2.10902222-4.60352943 4.68222222-4.60352943s4.6744444 2.07357643 4.6744444 4.60352943c0 2.4992882-2.0468 4.6035294-4.6744444 4.6035294z"/></g></svg>