<svg height="39" viewBox="0 0 39 39" width="39" xmlns="http://www.w3.org/2000/svg"><g fill="#aac687" transform=""><path d="m38.9994668 16.3715503c-.0000762-.0098022-.000457-.0195277-.0009141-.0293299-.000457-.0093426-.0011425-.0186853-.0019043-.0279513-.0005332-.0065093-.0009902-.0130951-.0016758-.0195277-.0010664-.0093427-.0024375-.0185322-.0038086-.0277983-.0012949-.0084237-.0027421-.016924-.0042656-.0252711-.0013711-.0077345-.0025898-.0155456-.0042656-.0231269-.001752-.008194-.0038848-.0163879-.0059414-.0245819-.0019805-.0079642-.0041133-.0158519-.0063985-.0237395-.0025137-.0087301-.0047988-.0176132-.007541-.0262667-.002209-.0067389-.0047227-.0134779-.007084-.0202169-.0028184-.0081174-.0059414-.0162348-.0090645-.024199-.0035801-.0092661-.0071602-.0185321-.0111973-.0276451-.0023613-.0053605-.004875-.0107976-.0073887-.0161582-.0039609-.0085768-.0082265-.0170771-.0126445-.0255774-.0046465-.0090363-.009293-.0181493-.0143965-.0269559-.0015235-.0026802-.0026661-.0055137-.0041895-.0081939-.0011426-.0019145-.0024375-.0036758-.0035801-.0055903-.0050273-.0085769-.0105117-.0170772-.0159199-.0254243-.0051797-.0081174-.0105879-.0161582-.0160723-.0240458-.0033516-.0048245-.0065508-.0099553-.0101309-.0147032-.0057129-.0078111-.011959-.0153159-.0179004-.0228972-.0054082-.0068155-.0109688-.0135545-.0166055-.0202169-.0047227-.0055137-.0091407-.0114103-.0140919-.0167708-.005789-.0065093-.0121875-.0126356-.0182812-.0189917-.0057129-.0059731-.0116544-.0118697-.0175958-.0176897-.0061699-.0059732-.0121875-.0122527-.0185098-.0179961-.0054844-.0049777-.0114258-.0095724-.0169863-.0143969-.0065508-.0056669-.0133301-.0112572-.0201095-.0166943-.0074648-.0059732-.0148535-.0120995-.0224707-.0177663-.0047988-.0035227-.0099785-.0068156-.0148535-.0103382-.0078458-.0055137-.01592-.0109508-.0239181-.0161582-.0083027-.0053606-.0166816-.0108743-.0251367-.0159285-.0019805-.0011487-.0036563-.0025271-.0056368-.0036758l-6.5877374-3.8412868v-11.10566151c0-.42455481-.3423933-.76877809-.764691-.76877809h-23.53410845c-.4222977 0-.76469095.34429986-.76469095.76877809v11.10543181l-6.58697575 3.8412868c-.00205665.0012252-.0038086.0026037-.00586525.0038289-.00822658.0049011-.01637698.0102616-.02445122.015469-.00822658.0053606-.01645316.0108743-.02452739.0165411-.00487501.0034461-.01005471.006739-.01485354.0103382-.00746486.0055137-.0147012.0115635-.02201372.0173835-.00700783.0055902-.01393948.0113337-.02071879.0171537-.00556056.0047479-.01134963.0093427-.01675784.0142437-.00624611.0056669-.0122637.0119464-.01835746.017843s-.01218753.0120229-.01805277.0181492c-.00594142.0062029-.01218753.0122527-.01790043.0186088-.00479884.0053605-.00929298.0111805-.01401565.0167708-.00578907.0068155-.0114258.0137077-.01698636.0206764-.00586525.0074281-.01195901.0147797-.0174434.0223611-.00350391.0048245-.00677931.0099553-.01028322.0148563-.00556056.0080408-.01104494.0162348-.01637698.0245054-.00525587.0081939-.01058791.0163879-.0155391.0248116-.00114258.0019911-.00258985.003829-.00373243.00582-.00159961.0026803-.00266602.0055137-.00418946.008194-.00502735.0089597-.00975002.0182258-.01454885.0274153-.00418946.008194-.00830275.0165411-.0122637.0248882-.00251368.0054372-.00510353.0108743-.00746486.016388-.00403712.0091895-.0076172.0186087-.01134963.028028-.00304688.007811-.00601759.0156987-.00883595.0235863-.00243751.0068156-.00495119.0136311-.00716017.0204467-.00281837.00873-.0051797.0176897-.00761721.0265729-.00220899.0077345-.0043418.015469-.0062461.0232801-.00205665.008194-.00426564.0164645-.00601759.0247351-.00159962.0076579-.00281837.0155455-.00426564.0233566-.00152344.0082705-.0029707.0166177-.00418946.0249648-.00137109.0092661-.00274219.0186087-.0038086.0279514-.00068555.0065092-.00114258.013095-.00167578.0196043-.00076172.009266-.00144727.0185321-.0019043.0278748-.00045704.0098021-.0008379.0195276-.00091407.0293298 0 .0029866-.00045703.0058966-.00045703.0088832v21.850865c0 .4245548.34246942.7687781.76469095.7687781h37.47061815c.4222977 0 .7646909-.3442999.7646909-.7687781v-21.8507119c-.0000762-.0029866-.000457-.0058966-.0005332-.0089597zm-6.9682167-2.7197852 4.6797806 2.7287449-4.6797806 2.7290512zm-23.53418468-12.11413234h22.00465038v18.46384584l-11.0019062 6.4157246-11.00274418-6.4162607zm-1.52938189 12.11420894v5.4571834h-.00007617l-4.67901891-2.7285917zm30.50270607 23.8107553h-35.94116005v-19.747389l17.58690155 10.2557862c.118676.0691509.2511391.1037647.3837546.1037647s.2650787-.0346138.3837547-.1037647l17.5867492-10.2557096z"/><path d="m27.2155914 6h-15.4311828c-.4331867 0-.7844086.44785337-.7844086 1 0 .55224624.3512219 1 .7844086 1h15.4311828c.4331867 0 .7844086-.44785337.7844086-1 0-.55224624-.3512219-1-.7844086-1z"/><path d="m27.2155914 10h-15.4311828c-.4331867 0-.7844086.4478534-.7844086 1 0 .5522462.3512219 1 .7844086 1h15.4311828c.4331867 0 .7844086-.4478534.7844086-1s-.3512219-1-.7844086-1z"/><path d="m27.2155914 14h-15.4311828c-.4331867 0-.7844086.4478534-.7844086 1 0 .5522462.3512219 1 .7844086 1h15.4311828c.4331867 0 .7844086-.4478534.7844086-1s-.3512219-1-.7844086-1z"/><path d="m19.2396169 19h-7.4792338c-.4199187 0-.7603831.4478534-.7603831 1 0 .5522462.3404644 1 .7603831 1h7.4792338c.4199187 0 .7603831-.4478534.7603831-1 0-.5522462-.3404644-1-.7603831-1z"/><path d="m32.2454391 35h-6.4908782c-1.0052641 0-1.006898 2 0 2h6.4908782c1.0052641-.0000996 1.006898-2 0-2z"/><path d="m35.0000387 35c-1.332302 0-1.3344675 2 0 2 1.3321988 0 1.3343643-2 0-2z"/></g></svg>