<svg height="21" viewBox="0 0 22 21" width="22" xmlns="http://www.w3.org/2000/svg"><path d="m670 18.4177894-5.905552-5.9036875c.981772-1.3090299 1.57009-2.9262039 1.57009-4.68183301 0-4.31914596-3.514988-7.83226889-7.832269-7.83226889-4.319612 0-7.832269 3.51312293-7.832269 7.83226889 0 4.31774741 3.512657 7.83226891 7.832269 7.83226891 1.755163 0 3.372337-.5883176 4.681833-1.5696238l5.903687 5.9055522zm-19.253182-10.58552051c0-3.90797632 3.177475-7.08545056 7.085451-7.08545056 3.906111 0 7.08545 3.17747424 7.08545 7.08545056 0 3.90611161-3.179339 7.08545061-7.08545 7.08545061-3.907976 0-7.085451-3.179339-7.085451-7.08545061zm12.517365 5.62864201c.067596-.0634003.130997-.1291315.196728-.1962612.054543-.0568738.112815-.1076873.165493-.1659597l5.319566 5.3190994-.528181.5281805-5.319099-5.3190994c.058272-.0526782.109086-.1109505.165493-.1659596z" fill="#fff" fill-rule="evenodd" stroke="#fff" transform="translate(-649 1)"/></svg>