<?xml version="1.0" encoding="UTF-8"?>
<svg width="89px" height="71px" viewBox="0 0 89 71" version="1.1" xmlns="http://www.w3.org/2000/svg" xmlns:xlink="http://www.w3.org/1999/xlink">
    <!-- Generator: Sketch 50.2 (55047) - http://www.bohemiancoding.com/sketch -->
    <title>talk bout it</title>
    <desc>Created with Sketch.</desc>
    <defs>
        <polygon id="path-1" points="0.0104270537 70.7574844 0.0104270537 0.0890063734 88.9773515 0.0890063734 88.9773515 70.7574844"></polygon>
    </defs>
    <g id="Mockups" stroke="none" stroke-width="1" fill="none" fill-rule="evenodd">
        <g id="Home" transform="translate(-440.000000, -494.000000)">
            <g id="Group-6" transform="translate(396.000000, 454.000000)">
                <g id="talk-bout-it" transform="translate(44.000000, 40.000000)">
                    <g id="Group-4">
                        <mask id="mask-2" fill="white">
                            <use xlink:href="#path-1"></use>
                        </mask>
                        <g id="Clip-2"></g>
                        <path d="M30.2514897,41.3314954 C30.2514897,41.3314954 26.3083255,41.3342499 26.2671386,41.3383817 C25.7786312,41.3712642 25.2989867,41.5706247 24.9253506,41.9405951 L13.0786535,53.6765244 C13.0786535,53.6765244 13.075004,43.2794782 13.0680527,43.2255923 C12.973514,42.16423 12.074702,41.3314954 10.9786449,41.3314954 L5.01037311,41.3314954 C4.56235736,41.3314954 4.19793184,40.9706494 4.19793184,40.5268226 L4.19793184,5.05235984 C4.19793184,4.60870525 4.56235736,4.24768714 5.01037311,4.24768714 L64.6981306,4.24768714 C65.1459726,4.24768714 65.5103981,4.60870525 65.5103981,5.05235984 L65.5103981,18.6625878 C65.5103981,19.8108905 66.4502232,20.7419282 67.609364,20.7419282 C68.7685048,20.7419282 69.7083299,19.8108905 69.7083299,18.6625878 L69.7083299,5.05235984 C69.7083299,2.31554298 67.4607785,0.0890063734 64.6981306,0.0890063734 L5.01037311,0.0890063734 C2.24755143,0.0890063734 0,2.31554298 0,5.05235984 L0,40.5268226 C0,43.2636395 2.24755143,45.4903483 5.01037311,45.4903483 L8.88054789,45.4903483 L8.88054789,58.6965183 C8.88054789,59.5375166 9.39199487,60.2958785 10.1762831,60.6176442 C10.4359167,60.724383 10.7089318,60.776203 10.9791662,60.776203 C11.5255439,60.776203 12.0623633,60.5646192 12.4638049,60.1671033 L27.2790842,45.4905204 L30.2514897,45.4905204 C31.4108043,45.4905204 32.3504556,44.5596549 32.3504556,43.4111801 C32.3504556,42.262533 31.4106305,41.3314954 30.2514897,41.3314954" id="Fill-1" stroke="#FFFFFF" fill="#AAC687" mask="url(#mask-2)"></path>
                        <path d="M84.7795934,54.6867553 C84.7795934,55.1304099 84.4151679,55.491428 83.9671521,55.491428 L80.4262985,55.491428 C79.3217259,55.491428 78.4183955,56.3370747 78.3355004,57.4104881 C78.3299393,57.4559382 78.3266374,63.6581502 78.3266374,63.6581502 L70.7053301,56.1081028 C70.697336,56.1001834 70.6889943,56.0927806 70.6810003,56.0848613 C70.6512832,56.0559385 70.6229563,56.0308032 70.5960198,56.0084225 C70.2265545,55.6875175 69.7441295,55.491428 69.2142614,55.491428 L42.1868167,55.491428 C41.738801,55.491428 41.3745492,55.1304099 41.3745492,54.6867553 L41.3745492,30.4861462 C41.3745492,30.0424916 41.738801,29.6814735 42.1868167,29.6814735 L83.9671521,29.6814735 C84.4151679,29.6814735 84.7795934,30.0424916 84.7795934,30.4861462 L84.7795934,54.6867553 Z M83.9671521,25.5227928 L42.1868167,25.5227928 C39.4241688,25.5227928 37.1764436,27.7493294 37.1764436,30.4861462 L37.1764436,54.6867553 C37.1764436,57.4235722 39.4241688,59.6501088 42.1868167,59.6501088 L68.3437762,59.6501088 L78.9411385,70.1483847 C79.3427538,70.5462449 79.8795733,70.7574844 80.4257771,70.7574844 C80.6961854,70.7574844 80.9690266,70.7056645 81.2286603,70.5990978 C82.0127747,70.2771599 82.5243955,69.5189702 82.5243955,68.6779719 L82.5243955,59.6499366 L83.9669784,59.6499366 C86.7296263,59.6499366 88.9773515,57.4234 88.9773515,54.6865832 L88.9773515,30.4861462 C88.9775253,27.7493294 86.7299738,25.5227928 83.9671521,25.5227928 Z" id="Fill-3" stroke="#FFFFFF" fill="#AAC687" mask="url(#mask-2)"></path>
                    </g>
                    <path d="M63.8974359,39.9437412 C62.6377542,39.9437412 61.6153846,40.9663116 61.6153846,42.2262407 C61.6153846,43.4861698 62.6377542,44.5087402 63.8974359,44.5087402 C65.1573066,44.5087402 66.1794872,43.4861698 66.1794872,42.2262407 C66.1794872,40.9663116 65.1571176,39.9437412 63.8974359,39.9437412" id="Fill-5" stroke="#FFFFFF" fill="#AAC687"></path>
                    <path d="M15.8387617,13.694997 C14.6535736,13.694997 13.6923077,14.7169581 13.6923077,15.977591 C13.6923077,17.2380349 14.6535736,18.259996 15.8387617,18.259996 L54.9046504,18.259996 C56.0900162,18.259996 57.0512821,17.2380349 57.0512821,15.977591 C57.0512821,14.7169581 56.0900162,13.694997 54.9046504,13.694997 L15.8387617,13.694997" id="Fill-6" stroke="#FFFFFF" fill="#AAC687"></path>
                    <path d="M29.8990909,27.389994 L15.7419347,27.389994 C14.6102107,27.389994 13.6923077,28.4118084 13.6923077,29.6724935 C13.6923077,30.9331785 14.6102107,31.954993 15.7419347,31.954993 L29.8990909,31.954993 C31.0311543,31.954993 31.9487179,30.9331785 31.9487179,29.6724935 C31.9487179,28.4118084 31.0309846,27.389994 29.8990909,27.389994" id="Fill-7" stroke="#FFFFFF" fill="#AAC687"></path>
                    <path d="M53.6282051,39.9437412 C52.3687123,39.9437412 51.3461538,40.9663116 51.3461538,42.2262407 C51.3461538,43.4861698 52.3687123,44.5087402 53.6282051,44.5087402 C54.8880758,44.5087402 55.9102564,43.4861698 55.9102564,42.2262407 C55.9102564,40.9663116 54.8880758,39.9437412 53.6282051,39.9437412" id="Fill-8" stroke="#FFFFFF" fill="#AAC687"></path>
                    <path d="M73.025641,39.9437412 C71.7659593,39.9437412 70.7435897,40.9663116 70.7435897,42.2262407 C70.7435897,43.4861698 71.7659593,44.5087402 73.025641,44.5087402 C74.2855117,44.5087402 75.3076923,43.4861698 75.3076923,42.2262407 C75.3076923,40.9663116 74.2853228,39.9437412 73.025641,39.9437412" id="Fill-9" stroke="#FFFFFF" fill="#AAC687"></path>
                </g>
            </g>
        </g>
    </g>
</svg>