<svg height="47" width="71" xmlns="http://www.w3.org/2000/svg"><g fill="#fff" fill-rule="evenodd"><path d="M44 14.007C44 7.38 49.37 2 55.993 2 62.62 2 68 7.38 68 14.007 68 20.63 62.62 26 55.993 26 49.37 26 44 20.63 44 14.007z"/><path d="M57 0c7.72 0 14 6.28 14 14s-6.28 14-14 14-14-6.28-14-14S49.28 0 57 0zm0 23.686c5.345 0 9.7-4.343 9.7-9.686 0-5.345-4.355-9.7-9.7-9.7-5.343 0-9.686 4.355-9.686 9.7 0 5.343 4.343 9.686 9.686 9.686zM6 14.007C6 7.38 11.38 2 18.007 2 24.63 2 30 7.38 30 14.007 30 20.63 24.63 26 18.007 26 11.38 26 6 20.63 6 14.007z"/><path d="M19.007 0C26.723 0 33 6.28 33 14s-6.277 14-13.993 14C11.287 28 5 21.72 5 14S11.287 0 19.007 0zm0 23.686c5.34 0 9.681-4.343 9.681-9.686 0-5.345-4.341-9.7-9.681-9.7-5.354 0-9.695 4.355-9.695 9.7 0 5.343 4.341 9.686 9.695 9.686zM68.811 14c1.213 0 2.189.99 2.189 2.203C71 33.187 57.187 47 40.203 47a2.196 2.196 0 1 1 0-4.392c14.555 0 26.405-11.85 26.405-26.405 0-1.213.976-2.203 2.203-2.203z"/><path d="M30.797 14C32.01 14 33 14.99 33 16.203 33 33.187 19.184 47 2.203 47A2.187 2.187 0 0 1 0 44.811a2.19 2.19 0 0 1 2.203-2.203c14.556 0 26.392-11.85 26.392-26.405 0-1.213.99-2.203 2.202-2.203z"/></g></svg>