<?xml version="1.0" encoding="UTF-8"?>
<svg width="99px" height="78px" viewBox="0 0 99 78" version="1.1" xmlns="http://www.w3.org/2000/svg" xmlns:xlink="http://www.w3.org/1999/xlink">
    <!-- Generator: Sketch 50.2 (55047) - http://www.bohemiancoding.com/sketch -->
    <title>megaphone</title>
    <desc>Created with Sketch.</desc>
    <defs>
        <polygon id="path-1" points="85.9482838 77.9883582 0.0116216216 77.9883582 0.0116216216 0.181029851 42.9799527 0.181029851 85.9482838 0.181029851"></polygon>
    </defs>
    <g id="Mockups" stroke="none" stroke-width="1" fill="none" fill-rule="evenodd">
        <g id="Home" transform="translate(-899.000000, -489.000000)">
            <g id="Group-6" transform="translate(396.000000, 454.000000)">
                <g id="megaphone" transform="translate(503.000000, 35.000000)">
                    <g id="Group-6">
                        <mask id="mask-2" fill="white">
                            <use xlink:href="#path-1"></use>
                        </mask>
                        <g id="Clip-2"></g>
                        <path d="M26.4455811,47.0761045 L65.0744955,62.5536716 C65.7026441,62.8053284 66.1140495,63.4130299 66.1140495,64.0919403 L66.1140495,66.4098209 C66.1140495,68.2362239 67.5967748,69.7213284 69.4198198,69.7213284 C71.2428649,69.7213284 72.7255901,68.2362239 72.7255901,66.4098209 L72.7255901,6.80385075 C72.7255901,4.97764179 71.2428649,3.49253731 69.4198198,3.49253731 C67.5967748,3.49253731 66.1140495,4.97764179 66.1140495,6.80385075 L66.1140495,9.12192537 C66.1140495,9.79908955 65.7026441,10.406791 65.0744955,10.66 L26.4455811,26.1377612 L26.4455811,47.0761045 Z M69.4198198,73.0328358 C65.773536,73.0328358 62.808473,70.0624328 62.808473,66.4098209 L62.808473,65.2111045 L24.178009,49.7335373 C23.5514099,49.4818806 23.1400045,48.8741791 23.1400045,48.1970149 L23.1400045,25.0168507 C23.1400045,24.3396866 23.5514099,23.7319851 24.178009,23.4787761 L62.808473,8.00101493 L62.808473,6.80385075 C62.808473,3.15143284 65.773536,0.181029851 69.4198198,0.181029851 C73.0661036,0.181029851 76.0311667,3.15143284 76.0311667,6.80385075 L76.0311667,66.4098209 C76.0311667,70.0624328 73.0661036,73.0328358 69.4198198,73.0328358 Z" id="Fill-1" fill="#AAC687" mask="url(#mask-2)"></path>
                        <path d="M13.2228874,26.6725075 C7.75355856,26.6725075 3.30577027,31.128209 3.30577027,36.6068358 C3.30577027,42.0856567 7.75355856,46.5411642 13.2228874,46.5411642 L23.1400045,46.5411642 L23.1400045,26.6725075 L13.2228874,26.6725075 Z M24.7927928,49.8526716 L13.2228874,49.8526716 C5.93206306,49.8526716 0,43.9103134 0,36.6068358 C0,29.3035522 5.93206306,23.361194 13.2228874,23.361194 L24.7927928,23.361194 C25.7050901,23.361194 26.4455811,24.1029701 26.4455811,25.0168507 L26.4455811,48.1970149 C26.4455811,49.1126418 25.7050901,49.8526716 24.7927928,49.8526716 Z" id="Fill-3" fill="#AAC687" mask="url(#mask-2)"></path>
                        <path d="M76.0311667,30.6247015 L76.0311667,42.5874179 L82.6427072,40.3803284 L82.6427072,32.831791 L76.0311667,30.6247015 Z M74.3783784,46.5411642 C74.0363153,46.5411642 73.6973514,46.4352239 73.4114595,46.2299403 C72.9801036,45.9169701 72.7255901,45.4169552 72.7255901,44.8855075 L72.7255901,28.3283582 C72.7255901,27.7967164 72.9801036,27.2967015 73.4114595,26.9854776 C73.8445586,26.6742537 74.3948423,26.5898507 74.9007703,26.7571045 L84.8178874,30.0684179 C85.4938784,30.2952388 85.9482838,30.9260299 85.9482838,31.6396716 L85.9482838,41.574 C85.9482838,42.2876418 85.4938784,42.9201791 84.8178874,43.1437015 L74.9007703,46.455209 C74.7305135,46.5130299 74.5536712,46.5411642 74.3783784,46.5411642 Z" id="Fill-4" fill="#AAC687" mask="url(#mask-2)"></path>
                        <path d="M13.657536,49.8526716 L19.4276712,74.4170448 L30.2489505,72.3224925 C30.3645856,72.2926119 30.4703423,72.234791 30.5545991,72.150194 C30.7233063,71.9831343 30.7496486,71.786 30.7513919,71.6851045 C30.7513919,71.5807164 30.7281486,71.3835821 30.5611847,71.2165224 L28.5843468,69.2362537 C28.3728333,69.0241791 28.222527,68.7577761 28.1496982,68.4663433 L23.5018243,49.8526716 L13.657536,49.8526716 Z M18.1797027,78 C17.4277838,78 16.7515991,77.4832985 16.571464,76.7232836 L9.96011712,48.5761493 C9.84448198,48.0827313 9.96011712,47.5644776 10.2740946,47.1671045 C10.5882658,46.7730299 11.0641712,46.5411642 11.5699054,46.5411642 L24.7927928,46.5411642 C25.551491,46.5411642 26.2125676,47.0594179 26.3959955,47.7963433 L31.243955,67.2179552 L32.9033288,68.8819552 C33.6554414,69.6435224 34.0620045,70.6435522 34.0554189,71.7048955 C34.0488333,72.767791 33.6306486,73.7612239 32.8769865,74.5080448 C32.348009,75.029597 31.6834459,75.393791 30.9563198,75.5577463 C30.9396622,75.5610448 30.9231982,75.5643433 30.9067342,75.5676418 L18.4938739,77.9685672 C18.3879234,77.9899104 18.2839099,78 18.1797027,78 Z" id="Fill-5" fill="#AAC687" mask="url(#mask-2)"></path>
                    </g>
                    <polygon id="Fill-7" fill="#AAC687" points="89 38 99 38 99 35 89 35"></polygon>
                    <polyline id="Fill-8" fill="#AAC687" points="88 20.0907103 96.2929342 15 98 17.9092897 89.7072602 23 88 20.0907103"></polyline>
                    <polyline id="Fill-9" fill="#AAC687" points="88 52.9099043 89.7067387 50 98 55.0902945 96.2932613 58 88 52.9099043"></polyline>
                    <polygon id="Fill-10" fill="#AAC687" points="63 64 66 64 66 8 63 8"></polygon>
                    <polygon id="Fill-11" fill="#AAC687" points="16 37 19 37 19 30 16 30"></polygon>
                    <polygon id="Fill-12" fill="#AAC687" points="10 37 13 37 13 30 10 30"></polygon>
                </g>
            </g>
        </g>
    </g>
</svg>