<svg height="20" viewBox="0 0 20 20" width="20" xmlns="http://www.w3.org/2000/svg"><g fill="none" fill-rule="evenodd" transform="translate(-2 -2)"><path d="m0 0h24v24h-24z"/><g fill-rule="evenodd"><path d="m21.1666667 2h-18.33333337c-.5 0-.83333333.33333333-.83333333.83333333v18.33333337c0 .5.33333333.8333333.83333333.8333333h18.33333337c.5 0 .8333333-.3333333.8333333-.8333333v-18.33333337c0-.5-.3333333-.83333333-.8333333-.83333333zm-13.25000003 17.0833333h-2.91666667v-9.5833333h3v9.5833333zm-1.5-10.91666663c-.91666667 0-1.75-.75-1.75-1.75 0-.91666667.75-1.75 1.75-1.75.91666666 0 1.75.75 1.75 1.75s-.75 1.75-1.75 1.75zm12.66666663 10.91666663h-3v-4.6666666c0-1.0833334 0-2.5-1.5-2.5-1.5833333 0-1.75 1.1666666-1.75 2.4166666v4.75h-2.99999997v-9.5833333h2.83333337v1.3333333c.4166666-.75 1.3333333-1.49999997 2.8333333-1.49999997 3 0 3.5833333 1.99999997 3.5833333 4.58333337z" fill="#0077b5"/><path d="m0 0h24v24h-24z" fill="#3287c4"/></g></g></svg>