<svg xmlns="http://www.w3.org/2000/svg" xmlns:xlink="http://www.w3.org/1999/xlink" viewBox="0 0 59 66">
  <mask id="a" fill="#fff">
    <path fill="none" d="M33 0v17H0V0z"/>
  </mask>
  <g fill="#226493" fill-rule="evenodd" transform="">
    <path d="M5 24l-1-1S4 12 15 5c8-6 18-5 21-4a1 1 0 0 1 0 1c-4-1-12-2-21 4-9 7-9 17-9 17l-1 1z"/>
    <path d="M10 24l-1-1S8 12 21 6c12-5 21 1 22 1v1h-1S32 3 21 8 11 23 11 23l-1 1"/>
    <path d="M14 24l-1-1s1-10 10-14c10-4 19 2 20 3v1h-1s-9-6-18-2c-9 3-9 12-9 12l-1 1"/>
    <path d="M19 24l-1-1s1-7 7-11c7-3 13 1 14 2v1h-1s-6-4-12-1-6 9-6 9l-1 1"/>
    <path d="M45 36l-8-1c-8-2-11-6-12-9l-2-6 1-1 1 1s-1 10 12 13c13 4 21-2 21-2h1v1c-1 0-5 4-14 4"/>
    <path d="M18 17l-8-2C-3 10 0 1 0 1l1-1 1 1s-3 8 8 13c12 5 21-3 22-3h1v1s-6 5-15 5" mask="url(#a)" transform="translate(26 16)"/>
    <path d="M45 31l-8-1-6-6c-2-4 0-7 0-8h1v7c1 2 3 4 6 5 10 4 17-1 19-5l1-1v1c-2 5-7 8-13 8"/>
    <path d="M38 21h-1l-1-1 1-1s6 1 9-4 0-10 0-10V4h1c0 1 4 5 1 12-3 4-8 5-10 5"/>
    <path d="M40 24l-1-1 1-1s6 0 9-4c4-3 2-9 2-9l1-1 1 1s1 6-3 10a19 19 0 0 1-10 5"/>
    <path d="M43 27l-1-1 1-1s5 0 8-3c4-4 3-8 3-8l1-1 1 1s1 5-4 9a19 19 0 0 1-9 4"/>
    <path d="M25 32s-5-5-12-5c-8-1-12 4-12 4H0v-1s4-5 13-5c8 0 13 6 13 6a1 1 0 0 1-1 1"/>
    <path d="M2 36H1v-1s3-6 11-6c7 0 10 4 10 4v1h-1c-1 0-3-3-9-3-7 0-9 4-10 5"/>
    <path d="M8 36H7v-1c2-2 6-5 13-1v1l-1 1c-7-5-10 0-11 0"/>
    <path d="M40 66c-2-3-3-5-3-9 0-9 6-13 8-15l-1-1c-6 3-11 10-11 10a1 1 0 0 1-2 0l-1-11h-1l-1 7-1 1v-1l-5-5-5-2h-1c8 6 9 10 10 17 0 6-3 9-3 9l-2-1 1-1s2-2 2-7c0-7-2-10-10-16a1 1 0 0 1 0-1l2-2h1l5 3 5 4v-6h4l2 10c2-3 6-8 11-9h1l2 2a1 1 0 0 1 0 1s-9 4-9 14c0 3 1 5 3 8v1h-1"/>
  </g>
</svg>