<svg height="47" viewBox="0 0 71 47" width="71" xmlns="http://www.w3.org/2000/svg"><g fill="#bdc3c7" fill-rule="evenodd" transform="matrix(-1 0 0 -1 71 47)"><path d="m27 32.9931826c0 6.6265197-5.3693898 12.0068174-11.9931826 12.0068174-6.62651971 0-12.0068174-5.3802977-12.0068174-12.0068174 0-6.6237928 5.38029769-11.9931826 12.0068174-11.9931826 6.6237928 0 11.9931826 5.3693898 11.9931826 11.9931826z"/><path d="m14 47c-7.72033083 0-14-6.2796692-14-14s6.27966917-14 14-14c7.7203308 0 14 6.2796692 14 14s-6.2796692 14-14 14zm0-23.6860935c-5.3452587 0-9.69955761 4.3435276-9.69955761 9.6860935 0 5.3452587 4.35429891 9.6995576 9.69955761 9.6995576 5.3425659 0 9.6860935-4.3542989 9.6860935-9.6995576 0-5.3425659-4.3435276-9.6860935-9.6860935-9.6860935z"/><path d="m65 32.9931826c0 6.6265197-5.3802977 12.0068174-12.0068174 12.0068174-6.6237928 0-11.9931826-5.3802977-11.9931826-12.0068174 0-6.6237928 5.3693898-11.9931826 11.9931826-11.9931826 6.6265197 0 12.0068174 5.3693898 12.0068174 11.9931826z"/><path d="m51.9932712 47c-7.7166202 0-13.9932712-6.2796692-13.9932712-14s6.276651-14 13.9932712-14c7.7193117 0 14.0067288 6.2796692 14.0067288 14s-6.2874171 14-14.0067288 14zm0-23.6860935c-5.3399981 0-9.6814381 4.3435276-9.6814381 9.6860935 0 5.3452587 4.34144 9.6995576 9.6814381 9.6995576 5.3534557 0 9.6948957-4.3542989 9.6948957-9.6995576 0-5.3425659-4.34144-9.6860935-9.6948957-9.6860935z"/><path d="m2.189 33c-1.21275 0-2.189-.99-2.189-2.20275 0-16.984 13.81325-30.79725 30.79725-30.79725 1.21275 0 2.20275.97625 2.20275 2.189 0 1.2265-.99 2.20275-2.20275 2.20275-14.55575 0-26.4055 11.84975-26.4055 26.4055 0 1.21275-.97625 2.20275-2.20275 2.20275z"/><path d="m40.20275 33c-1.21275 0-2.20275-.99-2.20275-2.20275 0-16.984 13.816-30.79725 30.79725-30.79725 1.2265 0 2.20275.97625 2.20275 2.189 0 1.2265-.97625 2.20275-2.20275 2.20275-14.55575 0-26.39175 11.84975-26.39175 26.4055 0 1.21275-.99 2.20275-2.20275 2.20275z"/></g></svg>