<svg xmlns="http://www.w3.org/2000/svg" xmlns:xlink="http://www.w3.org/1999/xlink" version="1.1" viewBox="0 0 89 71">
  <defs>
    <polygon id="a" points="0 71 0 0 89 0 89 71"/>
  </defs>
  <g fill="none" fill-rule="evenodd" stroke="none" stroke-width="1" transform="translate(-440.000000, -494.000000) translate(396.000000, 454.000000) translate(44.000000, 40.000000)">
    <mask id="b" fill="white">
      <use xlink:href="#a"/>
    </mask>
    <g/>
    <path fill="#3287C4" stroke="#FFFFFF" d="M30 41h-4l-1 1-12 12V43l-2-2H5 4V5l1-1h60l1 1v14c0 1 0 2 2 2l2-2V5c0-3-3-5-5-5H5C2 0 0 2 0 5v36c0 2 2 4 5 4h4v14a2 2 0 0 0 2 2l1-1 15-15h3c1 0 2 0 2-2l-2-2" mask="url(#b)"/>
    <path fill="#3287C4" stroke="#FFFFFF" d="M85 55h-5l-2 2v7l-7-8-2-1H42h-1V30h44v25zm-1-29H42c-3 0-5 2-5 4v25c0 2 2 5 5 5h26l11 10a2 2 0 0 0 4-1v-9h1c3 0 5-3 5-5V30c0-2-2-4-5-4z" mask="url(#b)"/>
    <path fill="#3287C4" stroke="#FFFFFF" d="M64 40a2 2 0 1 0 0 5 2 2 0 0 0 0-5"/>
    <path fill="#3287C4" stroke="#FFFFFF" d="M16 14l-2 2 2 2h39l2-2-2-2H16"/>
    <path fill="#3287C4" stroke="#FFFFFF" d="M30 27H16c-1 0-2 1-2 3l2 2h14l2-2c0-2-1-3-2-3"/>
    <path fill="#3287C4" stroke="#FFFFFF" d="M54 40a2 2 0 1 0 0 5 2 2 0 0 0 0-5"/>
    <path fill="#3287C4" stroke="#FFFFFF" d="M73 40a2 2 0 1 0 0 5 2 2 0 0 0 0-5"/>
  </g>
</svg>