<svg height="118" viewBox="0 0 370 118" width="370" xmlns="http://www.w3.org/2000/svg" xmlns:xlink="http://www.w3.org/1999/xlink"><mask id="a" fill="#fff"><path d="m.06.83690947h62.6439113v21.42109053h-62.6439113z" fill="none"/></mask><g fill="none" fill-rule="evenodd"><g fill="#194876"><path d="m5.747 27.114c-.473 0-.862-.38-.87-.855-.009-.517-.083-12.727 11.878-20.824 9.704-6.57 20.122-5.391 24.15-4.581l.12.023c.33.037.624.261.733.597.149.458-.102.949-.559 1.098-.225.073-.38.042-.638-.01-3.812-.769-13.671-1.885-22.83 4.315-11.155 7.551-11.114 19.235-11.113 19.352.007.481-.376.877-.857.885-.004 0-.009 0-.014 0"/><path d="m10.972 26.242c-.457 0-.84-.355-.868-.816-.008-.125-.597-12.478 13.141-18.614 13.331-5.955 24.134.557 24.587.838.408.253.535.788.283 1.197-.251.41-.788.537-1.198.286-.103-.064-10.498-6.298-22.962-.731-12.604 5.63-12.139 16.461-12.113 16.92.027.479-.339.891-.818.919-.017.001-.035.001-.052.001"/><path d="m15.676 26.417c-.012 0-.024-.001-.036-.001-.48-.019-.854-.423-.835-.903.005-.113.566-11.377 11.525-15.669 10.755-4.212 20.766 2.504 21.188 2.792.396.272.498.813.227 1.209-.271.398-.813.499-1.21.229-.096-.065-9.687-6.479-19.569-2.608-9.878 3.869-10.403 13.699-10.42 14.116-.02.468-.406.835-.87.835"/><path d="m20.727 26.591c-.034 0-.07-.002-.105-.006-.477-.058-.817-.49-.761-.967.039-.32 1.01-7.883 7.757-11.631 7.447-4.137 14.811.963 15.121 1.182.392.278.485.82.208 1.213s-.819.486-1.212.21c-.068-.047-6.795-4.681-13.271-1.082-5.953 3.307-6.865 10.245-6.873 10.315-.054.441-.43.766-.864.766"/><path d="m50.195 40.789c-2.801.001-5.977-.398-9.509-1.431-7.995-2.338-11.672-6.85-13.348-10.223-1.83-3.684-1.739-6.799-1.734-6.929.017-.481.444-.849.902-.839.48.018.855.42.838.9-.014.46-.194 11.319 13.83 15.419 14.272 4.173 22.444-2.713 22.525-2.783.363-.315.913-.275 1.228.088.315.364.275.914-.088 1.228-.276.239-5.416 4.57-14.644 4.57"/><path d="m49.171 37.191c-2.88 0-6.033-.544-9.365-1.96-13.569-5.767-10.189-16.554-10.153-16.663.15-.456.642-.706 1.1-.554.455.15.704.641.554 1.098-.124.384-2.873 9.393 9.179 14.516 13.232 5.622 23.126-3.288 23.54-3.67.353-.325.904-.304 1.231.049.325.353.304.903-.048 1.23-.084.077-6.575 5.953-16.038 5.954"/><path d="m50.214 33.543c-2.587 0-5.376-.467-8.274-1.517-3.936-1.426-6.524-3.582-7.691-6.409-1.582-3.831.074-7.431.145-7.582.205-.435.722-.622 1.159-.417.435.204.621.722.418 1.156-.014.031-1.399 3.087-.105 6.196.978 2.347 3.221 4.17 6.667 5.418 10.889 3.945 18.696-.965 20.763-5.711.192-.442.706-.643 1.146-.451.441.191.643.705.451 1.146-2.028 4.657-7.588 8.17-14.679 8.171"/><path d="m41.215 23.404c-.559 0-.915-.032-.981-.039-.479-.048-.828-.475-.78-.953s.469-.826.952-.78c.094.009 7.331.63 10.565-5.051 3.311-5.812-.081-10.498-.116-10.545-.286-.386-.206-.931.18-1.218s.932-.206 1.218.18c.17.227 4.098 5.657.233 12.445-3.072 5.393-8.939 5.961-11.271 5.961"/><path d="m44.064 26.853c-.438 0-.815-.33-.865-.776-.052-.478.293-.908.77-.961.069-.007 6.877-.802 10.439-4.526 3.863-4.037 2.08-10.055 2.061-10.116-.141-.46.118-.946.578-1.087s.946.118 1.087.578c.088.286 2.093 7.062-2.467 11.829-4.005 4.187-11.202 5.02-11.507 5.054-.032.003-.065.005-.096.005"/><g transform="translate(0 14)"><path d="m47.721 15.814c-.444 0-.823-.339-.865-.79-.045-.479.307-.903.786-.948.054-.005 5.463-.548 9.552-3.819 4.533-3.627 3.73-8.193 3.694-8.386-.089-.471.22-.927.69-1.018s.927.213 1.019.684c.047.234 1.069 5.772-4.315 10.08-4.507 3.605-10.238 4.171-10.479 4.193-.028.003-.055.004-.082.004" mask="url(#a)"/><path d="m28.042 22.258c-.254 0-.506-.11-.677-.323-.045-.055-4.674-5.603-13.361-5.773-8.331-.164-12.41 4.844-12.45 4.894-.298.378-.845.442-1.223.144-.378-.299-.442-.846-.143-1.224.185-.234 4.655-5.704 13.85-5.556 9.528.188 14.474 6.165 14.681 6.419.302.374.244.922-.129 1.225-.162.131-.356.194-.548.194" mask="url(#a)"/></g><path d="m2.525 39.566c-.151 0-.302-.039-.441-.12-.413-.244-.553-.775-.31-1.189.145-.249 3.655-6.092 11.899-6.092 7.841 0 11.105 4.352 11.24 4.538.284.389.198.933-.191 1.217-.388.282-.933.198-1.216-.191-.114-.153-2.925-3.822-9.833-3.822-7.213 0-10.27 5.018-10.397 5.231-.163.275-.454.428-.751.428"/><path d="m8.098 39.913c-.185 0-.371-.058-.529-.179-.38-.293-.453-.835-.163-1.217 1.707-2.242 6.823-5.24 13.972-.549.403.264.514.804.25 1.206s-.804.514-1.205.25c-7.543-4.95-11.47-.059-11.634.152-.172.221-.43.337-.691.337"/><path d="m44.24 73.356c-.265 0-.526-.12-.697-.348-2.186-2.915-2.961-5.604-2.961-10.276 0-9.322 6.424-14.616 8.952-16.339l-.64-.609c-6.77 2.389-12.859 10.669-12.921 10.755-.208.287-.569.42-.916.332-.344-.087-.601-.373-.65-.725l-1.638-11.789h-1.387l-.498 7.604c-.026.396-.316.724-.706.799-.389.072-.78-.125-.95-.483-.016-.034-1.739-3.565-5.582-5.487-2.114-1.056-4.448-2.374-5.458-2.953l-.642.502c8.705 6.59 10.401 11.302 10.669 18.535.276 7.454-3.367 9.971-3.522 10.074-.4.268-.94.16-1.208-.241-.266-.4-.159-.941.242-1.208.115-.08 2.985-2.155 2.747-8.561-.261-7.051-1.893-11.306-10.877-17.878-.221-.161-.353-.416-.357-.689s.119-.532.334-.7l2.003-1.567c.281-.22.667-.246.976-.067.03.018 3.144 1.831 5.872 3.196 2.259 1.129 3.858 2.716 4.891 4.015l.381-5.819c.031-.458.411-.814.87-.814h2.961c.435 0 .802.321.862.752l1.461 10.518c2.296-2.754 7.373-8.18 13.008-9.925.3-.093.629-.016.858.201l1.829 1.742c.2.191.297.467.262.742s-.2.517-.443.651c-.09.05-9.041 5.129-9.041 15.436 0 4.297.659 6.626 2.612 9.231.288.384.21.93-.175 1.219-.156.117-.339.174-.521.174"/><path d="m364.574 30.323h.341c.487 0 .789-.019.907-.056.117-.038.209-.103.277-.196.068-.094.102-.201.102-.32 0-.115-.032-.218-.099-.308-.066-.09-.161-.155-.283-.194s-.424-.059-.904-.059h-.341zm-.842 2.357v-4.148h.842c.789 0 1.231.003 1.327.01.278.024.495.079.65.166.154.087.284.219.388.398.103.179.155.377.155.595 0 .299-.098.555-.293.767-.196.213-.471.345-.824.396.126.047.223.099.291.156.068.056.161.162.28.318.031.041.133.21.306.505l.49.837h-1.041l-.347-.673c-.235-.452-.428-.738-.581-.855-.154-.117-.347-.176-.582-.176h-.219v1.704zm1.771-5.235c-.538 0-1.054.134-1.547.403s-.882.655-1.165 1.159c-.285.503-.427 1.03-.427 1.581 0 .548.139 1.07.416 1.567s.665.884 1.161 1.163c.497.279 1.017.419 1.562.419.547 0 1.069-.14 1.564-.419.494-.279.881-.666 1.16-1.163s.419-1.019.419-1.567c0-.551-.142-1.078-.426-1.581-.285-.504-.674-.89-1.169-1.159s-1.011-.403-1.548-.403zm-.006-.765c.67 0 1.313.167 1.929.502s1.1.816 1.452 1.442.527 1.281.527 1.964c0 .681-.172 1.33-.517 1.947-.346.618-.827 1.099-1.444 1.444-.618.345-1.267.518-1.947.518s-1.329-.173-1.946-.518c-.618-.345-1.099-.826-1.444-1.444-.346-.617-.518-1.266-.518-1.947 0-.683.176-1.338.528-1.964s.835-1.107 1.451-1.442 1.259-.502 1.929-.502z"/><path d="m95.241 34.52v-7.137c0-2.292-1.736-2.325-3.628-2.358v-.851c1.892.033 3.949.066 5.663.066 1.534 0 3.704-.066 5.31-.066v.851c-1.891.033-3.847.066-3.847 2.358v16.436c0 2.292 1.956 2.325 3.847 2.358v.851c-1.606-.033-3.812-.066-5.418-.066-1.677 0-3.699.033-5.555.066v-.851c1.892-.033 3.628-.066 3.628-2.358v-7.956h-14.417v7.956c0 2.292 2.279 2.325 4.171 2.358v.851c-1.713 0-4.171-.066-5.741-.066-1.713 0-3.796.033-5.58.066v-.851c1.891-.033 3.652-.066 3.652-2.358v-16.436c0-2.292-1.761-2.325-3.652-2.358v-.851c1.677.033 3.724.066 5.33.066 1.641 0 4.207-.033 5.991-.066v.851c-1.892.033-4.171.066-4.171 2.358v7.137z"/><path d="m155.696 46.432c3.559-.696 4.188-4.339 3.42-7.74-.716-3.174-2.688-6.969-6.94-6.034-3.696.813-4.025 4.895-3.385 7.733.611 2.706 2.823 6.84 6.905 6.041zm-1.991-14.867c4.96 0 8.672 3.11 8.672 7.909 0 4.36-3.641 8.045-8.209 8.045-4.746 0-8.636-3.11-8.636-7.91 0-4.36 3.391-8.044 8.173-8.044z"/><path d="m295.148 46.432c3.559-.696 4.188-4.339 3.421-7.74-.717-3.174-2.689-6.969-6.94-6.034-3.698.813-4.027 4.895-3.386 7.733.611 2.706 2.824 6.84 6.905 6.041zm-1.992-14.867c4.961 0 8.672 3.11 8.672 7.909 0 4.36-3.64 8.045-8.208 8.045-4.746 0-8.636-3.11-8.636-7.91 0-4.36 3.391-8.044 8.172-8.044z"/><path d="m115.114 46.432c3.56-.696 4.188-4.339 3.421-7.74-.717-3.174-2.689-6.969-6.94-6.034-3.697.813-4.026 4.895-3.385 7.733.611 2.706 2.823 6.84 6.904 6.041zm-1.991-14.867c4.961 0 8.672 3.11 8.672 7.909 0 4.36-3.64 8.045-8.208 8.045-4.746 0-8.636-3.11-8.636-7.91 0-4.36 3.39-8.044 8.172-8.044z"/><path d="m126.599 34.778-2.259-1.042v-.622c1.674-.459 3.272-.884 5.142-1.572.117 0 .234.066.234.327v2.46c2.566-2.077 3.959-2.787 6.13-2.787 3.312 0 5.091 2.03 5.091 4.584v8.231c0 1.081.857 1.82 1.947 1.82h.702v.851c-1.364 0-2.727-.066-4.13-.066s-2.805.033-4.208.066v-.851h.701c1.092 0 2.019-.975 2.019-2.056v-8.176c0-1.867-1.637-2.561-3.857-2.561-1.247 0-2.961.871-4.395 2.09v9.622c0 1.081.857 1.081 1.948 1.081h.701v.851c-1.363 0-2.727-.066-4.129-.066-1.403 0-2.806.033-4.208.066v-.851h.701c1.091 0 1.87-.565 1.87-1.646z"/><path d="m266.051 26.766-2.26-1.042v-.622c1.676-.459 3.273-.884 5.143-1.571.117 0 .234.065.234.327v10.471c2.566-2.077 3.959-2.787 6.131-2.787 3.311 0 5.089 2.03 5.089 4.584v8.231c0 1.081.858 1.82 1.948 1.82h.702v.851c-1.364 0-2.727-.066-4.13-.066-1.402 0-2.805.033-4.208.066v-.851h.702c1.09 0 2.018-.975 2.018-2.056v-8.176c0-1.867-1.637-2.561-3.857-2.561-1.247 0-2.961.871-4.395 2.09v9.622c0 1.081.857 1.081 1.948 1.081h.701v.851c-1.364 0-2.727-.066-4.13-.066-1.402 0-2.805.033-4.208.066v-.851h.702c1.091 0 1.87-.565 1.87-1.646z"/><path d="m191.129 34.778-2.26-1.042v-.622c1.675-.459 3.273-.884 5.143-1.572.117 0 .234.066.234.327v2.46c2.566-2.077 3.959-2.787 6.131-2.787 3.311 0 5.09 2.03 5.09 4.584v8.231c0 1.081.857 1.82 1.947 1.82h.702v.851c-1.364 0-2.728-.066-4.13-.066s-2.805.033-4.208.066v-.851h.702c1.091 0 2.018-.975 2.018-2.056v-8.176c0-1.867-1.637-2.561-3.858-2.561-1.246 0-2.96.871-4.394 2.09v9.622c0 1.081.857 1.081 1.948 1.081h.701v.851c-1.364 0-2.727-.066-4.13-.066-1.402 0-2.805.033-4.208.066v-.851h.702c1.091 0 1.87-.565 1.87-1.646z"/><path d="m184.841 45.096c0 1.081.857 1.081 1.947 1.081h.702v.851c-1.364 0-2.727-.066-4.13-.066-1.402 0-2.805.033-4.208.066v-.851h.702c1.091 0 1.87-.565 1.87-1.646v-9.753l-2.26-1.042v-.622c1.675-.459 3.273-.884 5.143-1.572.117 0 .234.066.234.327z"/><path d="m164.155 46.177h1.365c1 0 1.714-.652 1.714-1.733v-9.753s-2.457-.958-2.992-1.22v-.491c2.961-.815 5.49-1.623 5.49-1.623.188.102.32.098.32.426v3.469h.072c.892-1.277 2.304-3.61 4.917-3.61.892 0 2.438.912 2.438 2.091 0 .884-.678 1.67-1.678 1.67-1.106 0-1.253-1.427-2.502-1.427-1.311 0-3.211 3.066-3.211 3.066v7.402c0 1.081.714 1.733 1.713 1.733h1.999v.851c-1.963-.033-3.462-.066-4.996-.066-1.463 0-3.364.033-4.649.066z"/><path d="m183.27 27.022c-.928 0-1.749-.785-1.749-1.637 0-.818.857-1.571 1.749-1.571.928 0 1.748.687 1.748 1.571s-.785 1.637-1.748 1.637"/><path d="m309.779 45.096c0 1.081.856 1.081 1.947 1.081h.702v.851c-1.364 0-2.728-.066-4.13-.066-1.403 0-2.806.033-4.208.066v-.851h.702c1.091 0 1.869-.565 1.869-1.646v-9.753l-2.259-1.042v-.622c1.675-.459 3.273-.884 5.143-1.572.116 0 .234.066.234.327z"/><path d="m308.208 27.022c-.928 0-1.749-.785-1.749-1.637 0-.818.856-1.571 1.749-1.571.927 0 1.748.687 1.748 1.571s-.785 1.637-1.748 1.637"/><path d="m217.799 41.048c-2.453.22-4.064-2.118-4.267-4.006-.261-2.439.844-4.153 3.012-4.347 2.488-.224 4.125 1.923 4.303 3.911.179 1.989-.63 4.225-3.048 4.442zm-3.918 5.921s2.438.436 4.528.436 5.747-.087 5.747 1.742c0 1.828-3.222 3.048-6.618 3.048s-5.835-.697-5.835-2.265c0-1.567 2.178-2.961 2.178-2.961zm13.293-12.481v-1.888c-.928.132-3.279.349-6.751-.556-.858-.224-2.07-.459-3.141-.459-4.389 0-6.673 2.673-6.673 5.522 0 2.161 1.356 3.405 3.355 4.355 0 0-3.48 1.415-3.48 3.418 0 1.506 2.177 1.828 2.177 1.828-1.48 1.045-3.048 1.998-3.048 4.093 0 1.768 2.424 2.874 6.956 2.874 7.601 0 9.457-3.658 9.457-5.469 0-2.455-1.82-3.306-4.89-3.306-1.427 0-3.175-.033-4.924-.033-2.355 0-2.899-.472-3.028-.945-.261-.958 1.828-2.091 1.828-2.091s1.742.958 5.052.002c2.475-.714 3.483-2.938 3.483-4.704 0-.884-.439-2.273-1.045-2.961 0 0 3.073.813 4.672.32z"/><path d="m260.989 30.144-1.302-.069c-2.264-3.919-5.051-5.344-8.42-5.344-4.294 0-10.531 2.521-10.531 10.379 0 6.614 4.669 11.361 11.129 11.361 3.697 0 7.547-2.546 8.091-6.005l1.201-.068-.164 4.83c-2.525 1.48-7.41 2.291-9.875 2.291-8.738 0-14.266-4.207-14.266-12.311 0-6.712 6.289-11.525 14.154-11.525 3.044 0 6.417.557 8.855 1.516z"/><path d="m329.093 43.399c-1.741 2.787-4.146 4.12-6.966 4.12-4.267 0-7.838-3.597-7.838-7.516 0-6.015 4.267-8.622 9.144-8.535 2.875.052 5.487 1.313 5.487 3.048 0 .753-.509 1.321-1.357 1.441-2.127.301-1.343-4.053-6.046-3.357-3.036.45-4.354 2.7-4.354 6.445 0 3.372 2.637 6.051 6.527 6.051 1.82 0 3.488-1 4.797-2.253z"/><path d="m349.994 42.093c.464 2.161 1.635 4.378 4.241 4.378 2.105 0 3.249-1.179 3.249-2.325 0-4.753-8.883-3.098-8.883-9.02 0-1.834 1.692-3.66 5.617-3.66 1.143 0 2.569.264 4.727 1.548l.106 3.592-1.219-.087c-.357-2.062-1.219-4.006-4.006-4.006-1.427 0-2.525 1.031-2.525 2.439 0 3.249 8.679 2.973 8.679 8.114 0 2.161-1.892 4.453-6.138 4.453-1.428 0-3.557-.592-4.806-1.246v-4.18z"/><path d="m338.499 32.513c3.832 0 3.919 4.006 3.919 4.006h-8.214c.555-2.433 2.344-4.006 4.295-4.006zm6.969 10.591c-1.309 1.253-2.977 1.992-4.796 1.992-3.891 0-6.266-2.48-6.615-6.225-.045-.485-.044-.95-.006-1.394h11.937s-.522-6.009-7.228-6.009c-5.399 0-7.489 5.487-7.489 8.535 0 3.919 3.571 7.516 7.838 7.516 2.819 0 5.486-1.594 6.966-3.859z"/></g><path d="m143.498 83.918-1.353 3.018h2.697zm3.018 5.182h-.719l-.693-1.564h-3.221l-.702 1.564h-.684l2.697-5.96h.625z" fill="#626668"/><path d="m152.379 83.182h.651v5.918h-.533l-3.821-4.852v4.852h-.65v-5.918h.625l3.728 4.743z" fill="#626668"/><path d="m157.982 89.099h.668v-5.917h-.668z" fill="#626668"/><path d="m165.077 83.182h.651v5.918h-.533l-3.821-4.852v4.852h-.651v-5.918h.626l3.728 4.743z" fill="#626668"/><path d="m167.804 89.099h.668v-5.917h-.668z" fill="#626668"/><path d="m172.785 89.1h-.676v-5.3h-1.987v-.618h4.649v.618h-1.986z" fill="#626668"/><path d="m176.424 89.099h.668v-5.917h-.668z" fill="#626668"/><path d="m181.658 83.918-1.352 3.018h2.697zm3.018 5.182h-.718l-.694-1.564h-3.22l-.702 1.564h-.685l2.697-5.96h.626z" fill="#626668"/><path d="m187.664 89.1h-.676v-5.3h-1.987v-.618h4.65v.618h-1.987z" fill="#626668"/><path d="m191.303 89.099h.668v-5.917h-.668z" fill="#626668"/><path d="m198.5 83.182h.718l-2.544 5.96h-.592l-2.545-5.96h.744l2.105 5.098z" fill="#626668"/><path d="m205.005 83.791h-3.609v2.02h3.229v.609h-3.229v2.071h3.652v.609h-4.32v-5.918h4.277z" fill="#626668"/><path d="m212.357 83.698c-1.352 0-2.316 1.082-2.316 2.435 0 1.352.981 2.451 2.333 2.451 1.353 0 2.317-1.082 2.317-2.434 0-1.353-.981-2.452-2.334-2.452zm0 5.504c-1.8 0-3.009-1.412-3.009-3.052s1.226-3.069 3.026-3.069c1.801 0 3.01 1.412 3.01 3.052s-1.226 3.069-3.027 3.069z" fill="#626668"/><path d="m221.391 83.8h-3.584v2.113h3.204v.609h-3.204v2.578h-.668v-5.918h4.252z" fill="#626668"/><path d="m2.361 86.323h132.866v-.75h-132.866z" fill="#626668"/><path d="m227.454 86.323h131.208v-.75h-131.208z" fill="#626668"/><path d="m101.04 70.431c0 1.492.85 1.528 1.836 1.528h.309v.553c-.986 0-1.952-.074-2.938-.074-1.063 0-2.108.074-3.209.074v-.553h.309c.58 0 1.218-.018 1.218-1.491v-8.804c0-1.234-.367-1.455-1.295-1.455h-.232v-.553c.696 0 1.721.074 2.706.074 1.006 0 1.953-.074 2.823-.074 2.629 0 4.543.83 4.543 3.519 0 2.154-1.604 3.536-3.731 3.738-.599.037-1.102.037-1.547.037v-.553h.406c1.566 0 2.281-1.325 2.281-3.149 0-1.768-.927-2.928-2.919-2.928h-.56z" fill="#194876"/><path d="m114.263 61.72h-.038l-1.799 5.211h3.616zm-2.822 8.158c-.194.627-.426 1.105-.426 1.437 0 .553.812.644 1.451.644h.212v.553c-.773-.037-1.566-.074-2.339-.074-.696 0-1.392.037-2.088.074v-.553h.116c.754 0 1.392-.423 1.682-1.196l3.093-8.454c.251-.682.599-1.603.715-2.284.619-.202 1.392-.571 1.759-.792.059-.018.097-.037.155-.037s.097 0 .135.056c.059.147.117.313.175.46l3.557 9.632c.232.645.464 1.326.715 1.879.232.516.638.736 1.276.736h.116v.553c-.87-.037-1.74-.074-2.668-.074-.947 0-1.914.037-2.9.074v-.553h.213c.445 0 1.199-.073 1.199-.533 0-.24-.174-.737-.387-1.327l-.754-2.136h-4.389z" fill="#194876"/><path d="m135.413 63.451c-.541-1.787-1.43-3.26-4.33-3.26-3.171 0-4.834 2.376-4.834 5.599 0 3.075 1.644 6.188 5.298 6.188 2.068 0 3.441-1.234 3.943-3.076l.542.074c-.252.994-.387 1.989-.483 2.983-1.122.461-2.649.829-4.428.829-4.35 0-7.578-2.265-7.578-6.888 0-4.125 3.499-6.519 7.482-6.519 2.262 0 2.996.662 4.814.92-.02 1.013.019 2.045.154 3.076z" fill="#194876"/><path d="m139.492 71.959h.271c.696 0 1.431-.091 1.431-1.049v-9.651c0-.958-.735-1.05-1.431-1.05h-.271v-.553c.754 0 1.914.074 2.861.074.967 0 2.127-.074 3.035-.074v.553h-.27c-.696 0-1.431.092-1.431 1.05v9.651c0 .958.735 1.049 1.431 1.049h.27v.553c-.927 0-2.087-.074-3.054-.074-.948 0-2.088.074-2.842.074z" fill="#194876"/><path d="m152.716 65.292h2.706c.947 0 1.237-.57 1.237-1.491h.58c-.039.663-.077 1.307-.077 1.97 0 .755.019 1.492.077 2.247h-.58c0-1.031-.309-1.805-1.546-1.805h-2.397v4.697c0 1.031.889 1.049 1.856 1.049h.25v.553c-.908 0-2.223-.074-3.325-.074-1.005 0-2.184.074-2.958.074v-.553h.271c.696 0 1.431-.091 1.431-1.049v-9.651c0-.958-.735-1.05-1.431-1.05h-.271v-.553c1.179 0 3.19.074 4.814.074s3.635-.074 4.949-.074c-.038.793-.019 2.008.039 2.818l-.58.148c-.116-1.271-.425-2.155-1.952-2.155h-3.093z" fill="#194876"/><path d="m161.705 71.959h.271c.696 0 1.431-.091 1.431-1.049v-9.651c0-.958-.735-1.05-1.431-1.05h-.271v-.553c.754 0 1.914.074 2.862.074.966 0 2.126-.074 3.035-.074v.553h-.271c-.696 0-1.43.092-1.43 1.05v9.651c0 .958.734 1.049 1.43 1.049h.271v.553c-.928 0-2.088-.074-3.054-.074-.948 0-2.089.074-2.843.074z" fill="#194876"/><path d="m182.275 63.451c-.541-1.787-1.431-3.26-4.33-3.26-3.171 0-4.834 2.376-4.834 5.599 0 3.075 1.644 6.188 5.297 6.188 2.069 0 3.442-1.234 3.944-3.076l.542.074c-.252.994-.387 1.989-.484 2.983-1.121.461-2.648.829-4.427.829-4.349 0-7.578-2.265-7.578-6.888 0-4.125 3.499-6.519 7.481-6.519 2.263 0 2.997.662 4.814.92-.019 1.013.02 2.045.155 3.076z" fill="#194876"/><path d="m206.016 68.884.038-.037v-6.907c0-1.51-1.102-1.731-1.682-1.731h-.425v-.553c.909 0 1.798.074 2.707.074.793 0 1.585-.074 2.377-.074v.553h-.29c-.812 0-1.72.148-1.72 2.339v8.38c0 .645.019 1.29.116 1.86h-.734l-9.957-10.571v7.588c0 1.602.329 2.154 1.817 2.154h.329v.553c-.832 0-1.663-.074-2.494-.074-.87 0-1.759.074-2.63.074v-.553h.271c1.334 0 1.74-.865 1.74-2.339v-7.753c0-1.032-.889-1.658-1.759-1.658h-.252v-.553c.735 0 1.489.074 2.224.074.58 0 1.141-.074 1.72-.074z" fill="#194876"/><path d="m218.872 71.978c3.751 0 4.408-3.15 4.408-5.839 0-2.688-1.527-5.948-4.737-5.948-3.383 0-4.388 2.873-4.388 5.341 0 3.296 1.585 6.446 4.717 6.446zm-.29-12.597c4.118 0 7.405 2.43 7.405 6.353 0 4.236-3.19 7.054-7.309 7.054-4.098 0-7.23-2.652-7.23-6.611 0-3.831 3.113-6.796 7.134-6.796z" fill="#194876"/><path d="m232.772 65.882h.947c1.934 0 2.978-.7 2.978-2.873 0-1.64-1.103-2.689-2.823-2.689-.58 0-.831.055-1.102.073zm-2.474-4.273c0-1.345-.774-1.4-1.373-1.4h-.348v-.553c.619 0 1.817.074 2.996.074 1.16 0 2.088-.074 3.113-.074 2.436 0 4.601.627 4.601 3.242 0 1.657-1.16 2.671-2.687 3.241l3.306 4.715c.541.774.928.995 1.875 1.105v.553c-.638 0-1.256-.074-1.895-.074-.599 0-1.217.074-1.817.074-1.489-1.86-2.765-3.849-4.021-5.967h-1.276v3.941c0 1.418.696 1.473 1.585 1.473h.348v.553c-1.102 0-2.223-.074-3.325-.074-.928 0-1.837.074-2.803.074v-.553h.348c.715 0 1.373-.313 1.373-.994z" fill="#194876"/><path d="m245.106 60.577c-1.45 0-1.508.332-1.798 1.677h-.58c.077-.516.174-1.032.232-1.566.077-.516.116-1.032.116-1.566h.464c.155.553.638.534 1.16.534h9.976c.522 0 1.005-.018 1.044-.57l.464.073c-.077.497-.155.995-.213 1.492-.039.498-.039.995-.039 1.492l-.58.203c-.038-.682-.135-1.769-1.43-1.769h-3.171v9.799c0 1.418.677 1.583 1.605 1.583h.367v.553c-.754 0-2.107-.074-3.151-.074-1.16 0-2.513.074-3.267.074v-.553h.367c1.063 0 1.605-.091 1.605-1.547v-9.835z" fill="#194876"/><path d="m263.299 70.91c0 .994.811 1.049 1.507 1.049h.368v.553c-.851 0-2.088-.074-3.132-.074-.986 0-2.146.074-2.92.074v-.553h.271c.696 0 1.431-.091 1.431-1.049v-9.651c0-.958-.735-1.05-1.431-1.05h-.271v-.553c.774 0 1.934.074 2.92.074 1.044 0 2.281-.074 3.132-.074v.553h-.368c-.696 0-1.507.055-1.507 1.05v4.033h7.017v-4.033c0-.995-.812-1.05-1.508-1.05h-.367v-.553c.851 0 2.088.074 3.132.074.986 0 2.146-.074 2.919-.074v.553h-.271c-.695 0-1.43.092-1.43 1.05v9.651c0 .958.735 1.049 1.43 1.049h.271v.553c-.773 0-1.933-.074-2.919-.074-1.044 0-2.281.074-3.132.074v-.553h.367c.696 0 1.508-.055 1.508-1.049v-4.586h-7.017z" fill="#194876"/><path d="m288.276 61.535c.135-.35.251-.589.251-.773 0-.461-.444-.553-1.082-.553-.522 0-.948.092-.948.461 0 .276.155.534.309.883l.735 1.64h.039zm-1.585 5.489-2.552 5.764h-.658l-4.871-10.94c-.387-.865-.639-1.639-1.683-1.639h-.29v-.553c.735 0 1.856.074 2.785.074.812 0 1.817-.074 2.435-.074v.553h-.174c-.444 0-.831.074-.831.424 0 .239.174.792.657 1.897l3.171 7.09 1.566-3.591-2.417-5.323c-.193-.423-.676-.497-1.179-.497v-.553c.909 0 1.817.074 2.726.074.716 0 1.411-.074 2.127-.074.618 0 1.237.074 1.856.074.58 0 1.159-.074 1.739-.074v.553h-.27c-.967 0-1.199.35-1.682 1.4l-1.141 2.523 2.378 5.341 2.978-7.735c.115-.313.29-.774.29-1.013 0-.405-.349-.516-1.161-.516h-.231v-.553c.638 0 1.275.074 1.914.074.58 0 1.14-.074 1.72-.074v.553h-.232c-.58 0-.908.626-1.141 1.198l-4.562 11.381h-.677z" fill="#194876"/><path d="m298.426 71.959h.271c.695 0 1.43-.091 1.43-1.049v-9.651c0-.958-.735-1.05-1.43-1.05h-.271v-.553c1.179 0 3.189.074 4.813.074s3.635-.074 4.95-.074c-.039.793-.019 2.008.038 2.818l-.58.148c-.096-1.197-.328-2.155-2.358-2.155h-2.687v4.825h2.3c1.16 0 1.412-.626 1.527-1.62h.58c-.038.718-.058 1.436-.058 2.154 0 .7.02 1.4.058 2.1l-.58.11c-.115-1.105-.173-1.823-1.507-1.823h-2.32v4.292c0 1.197 1.121 1.197 2.358 1.197 2.32 0 3.345-.148 3.924-2.247l.542.129c-.251.976-.483 1.952-.657 2.928-1.238 0-3.461-.074-5.201-.074s-4.04.074-5.142.074z" fill="#194876"/><path d="m319.73 62.383c-.135-1.198-.947-2.34-2.281-2.34-1.527 0-2.378.866-2.378 2.321 0 3.057 5.8 2.136 5.8 6.557 0 2.541-2.204 3.867-4.678 3.867-1.083 0-2.127-.368-3.075-.829-.096-.939-.232-1.86-.328-2.799l.541-.11c.232 1.565 1.16 2.928 2.997 2.928 1.314 0 2.378-.792 2.378-2.1 0-3.26-5.684-2.246-5.684-6.685 0-2.394 1.779-3.812 4.273-3.812.541 0 2.184.202 2.783.275 0 .866.078 1.751.194 2.634z" fill="#194876"/><path d="m326.42 60.577c-1.451 0-1.509.332-1.798 1.677h-.58c.077-.516.174-1.032.232-1.566.077-.516.115-1.032.115-1.566h.465c.154.553.637.534 1.159.534h9.976c.522 0 1.006-.018 1.044-.57l.464.073c-.077.497-.155.995-.213 1.492-.038.498-.038.995-.038 1.492l-.58.203c-.039-.682-.136-1.769-1.431-1.769h-3.17v9.799c0 1.418.676 1.583 1.604 1.583h.368v.553c-.754 0-2.108-.074-3.152-.074-1.16 0-2.513.074-3.267.074v-.553h.368c1.063 0 1.604-.091 1.604-1.547v-9.835z" fill="#194876"/><path d="m181.731 97.561c0 .423-.343.765-.765.765-.423 0-.766-.342-.766-.765s.343-.765.766-.765c.422 0 .765.342.765.765" fill="#626668"/><path d="m181.731 100.84c0 .422-.343.765-.765.765-.423 0-.766-.343-.766-.765 0-.423.343-.765.766-.765.422 0 .765.342.765.765" fill="#626668"/><path d="m181.731 104.119c0 .423-.343.765-.765.765-.423 0-.766-.342-.766-.765 0-.422.343-.765.766-.765.422 0 .765.343.765.765" fill="#626668"/><path d="m181.731 107.398c0 .423-.343.765-.765.765-.423 0-.766-.342-.766-.765s.343-.765.766-.765c.422 0 .765.342.765.765" fill="#626668"/><path d="m181.731 110.677c0 .423-.343.765-.765.765-.423 0-.766-.342-.766-.765 0-.422.343-.765.766-.765.422 0 .765.343.765.765" fill="#626668"/><path d="m181.731 113.956c0 .423-.343.765-.765.765-.423 0-.766-.342-.766-.765s.343-.765.766-.765c.422 0 .765.342.765.765" fill="#626668"/><path d="m181.731 117.235c0 .423-.343.765-.765.765-.423 0-.766-.342-.766-.765 0-.422.343-.765.766-.765.422 0 .765.343.765.765" fill="#626668"/><path d="m88.148 112.3v1.785c0 .444.069 1.165-.434 1.352v.03h1.883v-.03c-.503-.187-.445-.908-.445-1.352v-3.728c0-.444-.058-1.164.445-1.352v-.029h-1.883v.029c.503.188.434.908.434 1.361v1.224h-3.564v-1.224c0-.453-.058-1.173.435-1.361v-.029h-1.874v.029c.504.188.434.908.434 1.352v3.728c0 .444.059 1.165-.434 1.352v.03h1.874v-.03c-.493-.187-.435-.908-.435-1.352v-1.785zm4.454 3.295c1.392 0 2.576-1.025 2.576-2.447 0-.671-.306-1.322-.809-1.766-.473-.414-1.016-.581-1.648-.581-1.421 0-2.614.956-2.614 2.436 0 1.402 1.143 2.358 2.495 2.358zm.05-.65c-1.007 0-1.55-.977-1.55-1.886 0-.888.593-1.608 1.511-1.608 1.056 0 1.568.947 1.568 1.905 0 .888-.621 1.589-1.529 1.589zm6.155-4.016c-.355-.099-.73-.128-1.096-.128-.848 0-1.932.275-1.932 1.321 0 1.5 2.673 1.184 2.673 2.181 0 .504-.681.642-1.086.642-.682 0-1.283-.187-1.854-.553l.345.967c.414.167.838.236 1.282.236 1.274 0 2.209-.621 2.209-1.539 0-1.569-2.674-1.253-2.674-2.131 0-.395.593-.474.919-.474.434 0 .85.119 1.214.316zm.95 0v.03c.434.236.374.601.374 1.055v4.39c0 .454.06.809-.374 1.055v.03h1.646v-.03c-.434-.246-.375-.601-.375-1.055v-3.383c0-.395-.01-.75.276-1.056.277-.306.682-.474 1.096-.474 1.017 0 1.51.849 1.51 1.766 0 .987-.523 1.688-1.569 1.688-.375 0-.73-.119-1.076-.287l.533.809c.227.088.474.128.731.128 1.381 0 2.376-1.075 2.376-2.446 0-1.294-.886-2.348-2.258-2.348-.553 0-1.283.236-1.619.699v-.699h-.03c-.137.107-.374.128-.591.128zm5.668 0v.029c.435.246.376.602.376 1.055v2.358c0 .454.059.819-.376 1.066v.03h1.647v-.03c-.434-.247-.375-.612-.375-1.066v-3.6h-.029c-.168.147-.414.158-.641.158zm1.381-1.213c0-.326-.257-.613-.591-.613-.326 0-.641.238-.641.582 0 .365.276.651.641.651.334 0 .591-.296.591-.62zm2.186 1.863h.592c.257 0 .552-.019.71.188h.03v-.897h-.03c-.098.059-.246.059-.375.059h-.927v-1.47h-.394c0 .918-.247 1.608-1.174 1.765v.355h.671v2.053c0 .385-.138 1.963 1.391 1.963.108 0 .217-.02.314-.049l.524-.7c-.128.049-.256.099-.395.099-1.055 0-.937-1.017-.937-1.392zm6.347 3.366c-.819-.089-.838-.385-.838-1.165v-1.48c-.01-1.194-.818-1.499-1.884-1.499l-.642.059-.661.986c.444-.208.838-.395 1.341-.395.367 0 .949.157.949.631 0 1.076-2.95.227-2.95 2.063 0 .819.689 1.45 1.687 1.45.167 0 .344-.02.513-.049l.582-.739c-.238.068-.474.138-.711.138-.523 0-1.076-.197-1.076-.809 0-.603.533-.711 1.006-.819.327-.08.663-.159.949-.307v1.56c0 .789.65.985 1.302 1.025zm.27-5.97v.03c.424.246.364.611.364 1.065v4.302c0 .454.06.819-.364 1.066v.03h1.627v-.03c-.435-.247-.366-.612-.366-1.066v-5.554h-.029c-.147.166-.404.156-.631.156zm9.579 4.054.534 1.392c.265.69.345.799-.14 1.016v.03h2.023v-.03c-.562-.286-.739-.839-.966-1.401l-2.053-5.06h-1.558v.029c.473.148.286.562.147.917l-1.647 4.114c-.217.562-.385 1.115-.957 1.401v.03h1.815v-.03c-.474-.177-.404-.464-.197-1.016l.513-1.392zm-.285-.728h-1.945l.977-2.487zm6.18-1.372c-.354-.099-.729-.128-1.095-.128-.848 0-1.934.275-1.934 1.321 0 1.5 2.675 1.184 2.675 2.181 0 .504-.681.642-1.085.642-.682 0-1.284-.187-1.855-.553l.345.967c.414.167.837.236 1.281.236 1.275 0 2.211-.621 2.211-1.539 0-1.569-2.675-1.253-2.675-2.131 0-.395.593-.474.919-.474.435 0 .848.119 1.213.316zm4.246 0c-.355-.099-.73-.128-1.095-.128-.849 0-1.934.275-1.934 1.321 0 1.5 2.674 1.184 2.674 2.181 0 .504-.68.642-1.086.642-.681 0-1.282-.187-1.854-.553l.346.967c.414.167.837.236 1.281.236 1.273 0 2.21-.621 2.21-1.539 0-1.569-2.674-1.253-2.674-2.131 0-.395.593-.474.919-.474.434 0 .849.119 1.213.316zm3.495 4.666c1.393 0 2.576-1.025 2.576-2.447 0-.671-.306-1.322-.809-1.766-.474-.414-1.016-.581-1.648-.581-1.421 0-2.614.956-2.614 2.436 0 1.402 1.144 2.358 2.495 2.358zm.05-.65c-1.006 0-1.55-.977-1.55-1.886 0-.888.593-1.608 1.51-1.608 1.056 0 1.57.947 1.57 1.905 0 .888-.622 1.589-1.53 1.589zm6.894-4.026c-.345-.079-.71-.118-1.066-.118-1.489 0-2.81.817-2.81 2.516 0 1.282 1.182 2.278 2.702 2.278.435 0 .888-.04 1.303-.198l.512-.936h-.029c-.385.287-.937.484-1.44.484-1.096 0-2.053-.751-2.053-1.886 0-.937.691-1.608 1.648-1.608.444 0 .917.157 1.203.483h.03zm.788.01v.029c.433.246.375.602.375 1.055v2.358c0 .454.058.819-.375 1.066v.03h1.647v-.03c-.434-.247-.375-.612-.375-1.066v-3.6h-.03c-.167.147-.414.158-.641.158zm1.38-1.213c0-.326-.257-.613-.592-.613-.325 0-.64.238-.64.582 0 .365.276.651.64.651.335 0 .592-.296.592-.62zm5.35 5.229c-.819-.089-.839-.385-.839-1.165v-1.48c-.009-1.194-.817-1.499-1.883-1.499l-.642.059-.661.986c.444-.208.839-.395 1.342-.395.366 0 .948.157.948.631 0 1.076-2.95.227-2.95 2.063 0 .819.69 1.45 1.687 1.45.167 0 .345-.02.513-.049l.582-.739c-.236.068-.474.138-.711.138-.523 0-1.076-.197-1.076-.809 0-.603.534-.711 1.007-.819.326-.08.662-.159.948-.307v1.56c0 .789.65.985 1.301 1.025zm1.48-3.366h.591c.256 0 .553-.019.711.188h.029v-.897h-.029c-.099.059-.247.059-.376.059h-.926v-1.47h-.395c0 .918-.246 1.608-1.173 1.765v.355h.67v2.053c0 .385-.137 1.963 1.39 1.963.109 0 .218-.02.317-.049l.522-.7c-.128.049-.256.099-.395.099-1.055 0-.936-1.017-.936-1.392zm1.804-.65v.029c.434.246.375.602.375 1.055v2.358c0 .454.059.819-.375 1.066v.03h1.647v-.03c-.434-.247-.375-.612-.375-1.066v-3.6h-.03c-.167.147-.413.158-.64.158zm1.38-1.213c0-.326-.256-.613-.591-.613-.325 0-.641.238-.641.582 0 .365.276.651.641.651.335 0 .591-.296.591-.62zm3.282 5.879c1.392 0 2.575-1.025 2.575-2.447 0-.671-.306-1.322-.808-1.766-.474-.414-1.017-.581-1.649-.581-1.421 0-2.613.956-2.613 2.436 0 1.402 1.143 2.358 2.495 2.358zm.049-.65c-1.005 0-1.549-.977-1.549-1.886 0-.888.592-1.608 1.51-1.608 1.056 0 1.57.947 1.57 1.905 0 .888-.622 1.589-1.531 1.589zm2.997-4.016v.029c.434.247.374.612.374 1.066v2.348c0 .454.06.819-.374 1.066v.03h1.647v-.03c-.435-.247-.375-.602-.375-1.056v-1.746c0-.582.147-1.185 1.046-1.185.898 0 1.195.542 1.195 1.599v1.332c0 .444.058.809-.376 1.056v.03h1.647v-.03c-.434-.247-.376-.602-.376-1.056v-1.431c0-.464.03-1.075-.246-1.47-.315-.464-.946-.68-1.499-.68-.641 0-1.046.285-1.391.759v-.759h-.03c-.208.117-.444.128-.66.128z" fill="#1d457b"/><path d="m87.654 99.787 1.085 3.393c.325 1.018.394.968 1.302 1.588l2.081-6.787h-1.519v.03c.77.266.444 1.065.266 1.628l-1.114 3.611-1.372-4.272c-.138-.434-.208-.75-.148-.997h-1.39v.03c.543.276.346.917.158 1.52l-1.155 3.749-1.471-4.589c-.059-.187-.157-.493-.119-.71h-1.438v.03c.493.336.64.977.817 1.52l1.165 3.64c.326 1.017.414.948 1.313 1.597zm8.93 4.163c-.819-.088-.839-.385-.839-1.164v-1.481c-.01-1.192-.817-1.498-1.884-1.498l-.641.058-.661.986c.444-.207.838-.395 1.342-.395.365 0 .948.159.948.632 0 1.075-2.95.227-2.95 2.063 0 .82.689 1.45 1.687 1.45.167 0 .344-.02.513-.05l.582-.739c-.237.07-.474.138-.711.138-.523 0-1.076-.197-1.076-.809 0-.602.533-.711 1.007-.819.326-.079.662-.159.948-.306v1.559c0 .789.65.986 1.301 1.026zm3.503-4.016c-.355-.097-.73-.127-1.096-.127-.849 0-1.933.276-1.933 1.321 0 1.5 2.674 1.184 2.674 2.181 0 .503-.682.641-1.087.641-.681 0-1.281-.187-1.853-.552l.345.966c.413.168.837.237 1.281.237 1.274 0 2.21-.621 2.21-1.539 0-1.57-2.673-1.253-2.673-2.131 0-.395.592-.475.918-.475.434 0 .849.119 1.214.317zm.939-1.953v.03c.435.246.375.612.375 1.065v4.302c0 .453.06.818-.375 1.064v.03h1.647v-.03c-.435-.246-.375-.611-.375-1.064v-1.56c0-.878.267-1.362 1.135-1.362.849 0 1.106.622 1.106 1.421v1.501c0 .453.069.818-.365 1.064v.03h1.636v-.03c-.434-.246-.374-.611-.374-1.064v-1.797c0-.957-.326-1.774-1.687-1.774-.484 0-1.155.197-1.451.62v-2.603h-.03c-.138.156-.374.156-.601.156zm5.35 1.952v.03c.434.247.375.602.375 1.056v2.359c0 .453.059.818-.375 1.064v.03h1.646v-.03c-.434-.246-.374-.611-.374-1.064v-3.601h-.03c-.168.147-.414.157-.641.157zm1.38-1.213c0-.325-.256-.61-.591-.61-.326 0-.641.237-.641.581 0 .365.276.651.641.651.335 0 .591-.296.591-.622zm.861 1.214v.03c.434.246.375.611.375 1.065v2.349c0 .453.059.819-.375 1.065v.029h1.647v-.029c-.434-.246-.374-.602-.374-1.055v-1.747c0-.582.147-1.184 1.045-1.184.899 0 1.195.543 1.195 1.598v1.333c0 .443.059.809-.375 1.055v.029h1.647v-.029c-.435-.246-.375-.602-.375-1.055v-1.431c0-.464.029-1.075-.247-1.47-.315-.464-.946-.68-1.499-.68-.641 0-1.046.286-1.391.758v-.758h-.03c-.207.117-.444.127-.661.127zm7.589-.127c-1.017 0-2.12.532-2.12 1.677 0 .74.59 1.381 1.3 1.519-.206.097-.778.236-.778.522 0 .356.286.711.719.701l.682-.02c.602 0 2.012.049 2.012.918 0 .829-1.095 1.017-1.746 1.017-.641 0-1.628-.148-1.628-.977 0-.257.128-.395.375-.445-.187-.089-.355-.127-.562-.127-.503 0-.947.247-.947.799 0 .838 1.282 1.4 2.733 1.4 1.539 0 2.771-.62 2.771-1.736 0-.977-.907-1.441-2.613-1.441-.129 0-.593.03-.593-.187 0-.168.266-.257.406-.267.897-.079 2.1-.423 2.1-1.539 0-.504-.286-.927-.7-1.194.335.049.671.128 1.016.128.217 0 .237-.059.315-.236l.227-.512zm-1.126 1.518c0-.572.464-.869 1.008-.869.701 0 1.233.464 1.233 1.097 0 .572-.434.957-1.026.957-.642 0-1.215-.543-1.215-1.185zm5.992-.74h.592c.257 0 .553-.02.711.187h.029v-.896h-.029c-.098.058-.247.058-.375.058h-.928v-1.469h-.394c0 .917-.246 1.608-1.173 1.765v.355h.671v2.053c0 .385-.138 1.963 1.39 1.963.108 0 .217-.02.315-.05l.523-.699c-.127.05-.256.098-.394.098-1.056 0-.938-1.017-.938-1.391zm4.068 4.016c1.391 0 2.574-1.026 2.574-2.446 0-.672-.305-1.324-.808-1.768-.473-.413-1.016-.58-1.647-.58-1.421 0-2.615.955-2.615 2.436 0 1.401 1.144 2.358 2.496 2.358zm.049-.651c-1.006 0-1.549-.977-1.549-1.884 0-.888.592-1.61 1.51-1.61 1.056 0 1.569.949 1.569 1.906 0 .888-.622 1.588-1.53 1.588zm2.996-4.016v.03c.434.246.376.611.376 1.065v2.349c0 .453.058.819-.376 1.065v.029h1.647v-.029c-.434-.246-.375-.602-.375-1.055v-1.747c0-.582.148-1.184 1.046-1.184.899 0 1.195.543 1.195 1.598v1.333c0 .443.06.809-.375 1.055v.029h1.646v-.029c-.433-.246-.375-.602-.375-1.055v-1.431c0-.464.031-1.075-.245-1.47-.316-.464-.947-.68-1.5-.68-.642 0-1.047.286-1.392.758v-.758h-.029c-.207.117-.443.127-.661.127zm12.136-1.894c-.474-.148-.976-.216-1.47-.216-1.204 0-2.477.472-2.477 1.715 0 2.092 3.395 1.816 3.395 3.356 0 .69-.85 1.026-1.411 1.026-.77 0-1.579-.316-2.162-.819l.288 1.233c.561.206 1.163.295 1.765.295 1.54 0 2.644-.986 2.644-2.041 0-1.827-3.395-1.806-3.395-3.158 0-.682.711-.899 1.274-.899.553 0 1.164.228 1.549.622zm2.435 2.545h.592c.256 0 .553-.02.711.187h.029v-.896h-.029c-.099.058-.247.058-.376.058h-.927v-1.469h-.394c0 .917-.246 1.608-1.174 1.765v.355h.671v2.053c0 .385-.138 1.963 1.39 1.963.109 0 .218-.02.316-.05l.523-.699c-.128.05-.256.098-.395.098-1.055 0-.937-1.017-.937-1.391zm6.346 3.365c-.818-.088-.838-.385-.838-1.164v-1.481c-.009-1.192-.818-1.498-1.883-1.498l-.643.058-.66.986c.444-.207.839-.395 1.342-.395.365 0 .948.159.948.632 0 1.075-2.95.227-2.95 2.063 0 .82.689 1.45 1.687 1.45.167 0 .344-.02.512-.05l.583-.739c-.237.07-.474.138-.711.138-.523 0-1.077-.197-1.077-.809 0-.602.534-.711 1.008-.819.326-.079.662-.159.948-.306v1.559c0 .789.65.986 1.301 1.026zm1.48-3.365h.592c.256 0 .553-.02.71.187h.03v-.896h-.03c-.098.058-.247.058-.375.058h-.927v-1.469h-.394c0 .917-.246 1.608-1.173 1.765v.355h.671v2.053c0 .385-.139 1.963 1.39 1.963.108 0 .216-.02.315-.05l.523-.699c-.128.05-.257.098-.395.098-1.055 0-.937-1.017-.937-1.391zm6.292 1.46c.039-1.272-.878-2.238-2.22-2.238-1.47 0-2.465.996-2.465 2.367 0 1.372 1.153 2.427 2.83 2.427.463 0 .938-.069 1.362-.246l.493-.928h-.03c-.453.356-1.026.523-1.618.523-1.114 0-1.953-.701-1.973-1.905zm-3.581-.571c.118-.622.611-1.018 1.273-1.018.71 0 1.164.327 1.272 1.018z" fill="#1d457b"/><path d="m69.427 97.955v12.66h-4.207v-4.207h-5.785v4.17h-4.207l.037-12.661h-6.048v13.074s0 5.634 5.635 5.634h14.95s5.635 0 5.635-5.634v-13.036z" fill="#1d457b"/><path d="m59.435 102.464h5.795v-4.508h-5.795z" fill="#1d457b"/><path d="m260.402 116.111v-2.624h.63v-.598h-.63v-.347c0-.363.136-.545.407-.545.118 0 .236.027.354.079l.144-.564c-.074-.031-.163-.057-.265-.079-.103-.022-.211-.033-.325-.033-.192 0-.355.029-.489.086-.133.057-.243.136-.331.239s-.151.225-.19.368c-.04.142-.059.296-.059.462v.334l-.433.034v.564h.433v2.624zm2.959-.033c.186-.074.348-.184.489-.328.139-.145.252-.321.337-.531.086-.21.128-.449.128-.716 0-.266-.042-.505-.128-.715-.085-.21-.198-.387-.337-.531-.141-.144-.303-.255-.489-.331-.186-.077-.38-.115-.581-.115s-.394.038-.577.115c-.184.076-.347.187-.489.331s-.255.321-.338.531-.124.449-.124.715c0 .267.041.506.124.716s.196.386.338.531c.142.144.305.254.489.328.183.074.376.111.577.111s.395-.037.581-.111zm-1.135-.797c-.134-.195-.2-.454-.2-.778 0-.327.066-.589.2-.783.133-.195.318-.292.554-.292s.422.097.558.292c.135.194.203.456.203.783 0 .324-.068.583-.203.778-.136.194-.322.292-.558.292s-.421-.098-.554-.292zm3.453.83v-1.969c.101-.244.221-.416.361-.514.14-.099.273-.148.4-.148.07 0 .129.004.177.013s.101.022.158.04l.131-.657c-.092-.043-.214-.065-.367-.065-.171 0-.337.055-.499.167s-.3.272-.413.482h-.027l-.052-.571h-.624v3.222zm3.7 0v-1.903h1.738v1.903h.762v-4.291h-.762v1.726h-1.738v-1.726h-.761v4.291zm5.368-.02c.188-.066.359-.149.512-.249l-.256-.473c-.118.075-.237.133-.357.174-.121.042-.251.062-.391.062-.262 0-.478-.077-.646-.233-.168-.154-.27-.377-.305-.665h2.047c.009-.04.016-.092.023-.158.006-.065.009-.135.009-.209 0-.224-.028-.429-.085-.617-.057-.189-.141-.35-.252-.486-.112-.135-.251-.24-.417-.314-.166-.075-.359-.112-.577-.112-.189 0-.372.039-.551.118-.18.079-.338.19-.476.334-.138.145-.248.322-.331.532s-.125.446-.125.708c0 .267.041.505.122.712.08.208.193.384.338.528.144.144.312.255.504.331.193.077.401.115.624.115.205 0 .402-.032.59-.098zm-1.181-2.493c.145-.135.313-.203.505-.203.224 0 .389.071.496.213s.161.338.161.587h-1.43c.034-.263.124-.461.268-.597zm3.692 2.467c.164-.083.318-.186.463-.309h.026l.052.355h.624v-1.91c0-.45-.1-.794-.299-1.033-.199-.238-.499-.357-.902-.357-.258 0-.498.041-.721.124-.223.084-.425.182-.604.296l.276.505c.144-.087.292-.162.442-.224.151-.061.306-.091.463-.091.109 0 .201.016.275.049.075.033.135.079.181.138s.078.127.099.203c.019.077.031.157.035.24-.332.035-.618.085-.856.15-.238.066-.435.147-.59.243s-.269.211-.341.345c-.072.133-.108.285-.108.455 0 .285.087.514.262.686.175.173.405.259.689.259.192 0 .37-.041.534-.124zm-.626-.564c-.088-.066-.131-.171-.131-.315 0-.079.019-.153.059-.223.039-.07.105-.133.197-.187.091-.055.211-.104.36-.148s.333-.079.551-.105v.721c-.122.114-.237.202-.344.263-.107.062-.226.092-.358.092-.135 0-.247-.033-.334-.098zm3.681.623-.098-.565c-.031.01-.054.014-.069.014h-.049c-.039 0-.077-.019-.112-.056s-.052-.102-.052-.193v-3.845h-.755v3.805c0 .28.055.501.164.663.11.161.3.242.571.242.166 0 .3-.022.4-.065zm1.967.029c.112-.024.211-.051.299-.082l-.132-.558c-.048.022-.101.04-.16.053s-.117.02-.174.02c-.302 0-.453-.188-.453-.564v-1.535h.82v-.598h-.82v-.878h-.63l-.091.878-.499.034v.564h.459v1.535c0 .175.019.333.056.475s.096.265.177.368.186.182.315.239.288.085.476.085c.126 0 .246-.011.357-.036zm1.503-.042v-2.25c.136-.132.257-.231.364-.299s.231-.102.371-.102c.179 0 .308.055.387.164.079.11.118.298.118.564v1.923h.755v-2.021c0-.411-.08-.727-.237-.948-.158-.221-.409-.331-.754-.331-.223 0-.417.049-.581.147-.164.099-.314.211-.449.338l.026-.623v-1.194h-.754v4.632zm6.616-.082c.225-.107.425-.262.6-.463l-.407-.479c-.122.132-.257.237-.406.319-.149.081-.32.121-.512.121-.363 0-.65-.139-.863-.417-.212-.278-.318-.661-.318-1.151 0-.24.03-.457.089-.65.059-.192.142-.355.249-.488.107-.134.234-.236.381-.309.146-.072.307-.108.482-.108.166 0 .314.034.446.102.131.068.253.158.367.272l.407-.492c-.135-.144-.308-.271-.518-.38-.21-.11-.451-.165-.722-.165s-.526.051-.764.151c-.238.101-.446.247-.623.44-.177.192-.318.428-.42.705-.103.278-.154.592-.154.942 0 .354.05.669.15.944.101.276.238.507.411.695.172.189.377.331.613.427s.49.144.761.144c.276 0 .526-.053.751-.16zm2.502.036c.164-.083.318-.186.462-.309h.027l.052.355h.624v-1.91c0-.45-.1-.794-.299-1.033-.199-.238-.5-.357-.902-.357-.258 0-.499.041-.722.124-.223.084-.424.182-.603.296l.275.505c.145-.087.292-.162.443-.224.151-.061.305-.091.462-.091.11 0 .202.016.276.049s.135.079.18.138c.046.059.079.127.099.203.02.077.032.157.036.24-.332.035-.618.085-.856.15-.239.066-.435.147-.591.243-.155.096-.269.211-.34.345-.073.133-.109.285-.109.455 0 .285.088.514.262.686.175.173.405.259.689.259.193 0 .371-.041.535-.124zm-.626-.564c-.088-.066-.132-.171-.132-.315 0-.079.02-.153.059-.223.04-.07.105-.133.197-.187.092-.055.213-.104.361-.148.149-.044.332-.079.551-.105v.721c-.122.114-.237.202-.345.263-.107.062-.226.092-.357.092-.136 0-.247-.033-.334-.098zm3.309.61v-1.969c.1-.244.22-.416.361-.514.139-.099.272-.148.399-.148.07 0 .129.004.178.013.048.009.1.022.157.04l.131-.657c-.092-.043-.214-.065-.367-.065-.171 0-.337.055-.498.167-.163.112-.3.272-.414.482h-.026l-.053-.571h-.623v3.222zm3.528-.02c.189-.066.359-.149.513-.249l-.257-.473c-.117.075-.236.133-.357.174-.12.042-.251.062-.39.062-.263 0-.478-.077-.647-.233-.168-.154-.27-.377-.304-.665h2.046c.009-.04.017-.092.023-.158.007-.065.01-.135.01-.209 0-.224-.029-.429-.085-.617-.057-.189-.141-.35-.253-.486-.112-.135-.25-.24-.416-.314-.167-.075-.359-.112-.578-.112-.188 0-.371.039-.551.118-.179.079-.337.19-.475.334-.138.145-.249.322-.332.532s-.124.446-.124.708c0 .267.04.505.121.712.081.208.194.384.338.528s.313.255.505.331c.192.077.4.115.623.115.206 0 .402-.032.59-.098zm-1.18-2.493c.144-.135.312-.203.505-.203.223 0 .388.071.495.213s.161.338.161.587h-1.43c.035-.263.125-.461.269-.597zm3.785 2.513h.761v-4.291h-.761zm2.382 0v-2.25c.249-.267.474-.401.676-.401.17 0 .296.055.377.164.081.11.121.298.121.564v1.923h.755v-2.25c.249-.267.474-.401.675-.401.166 0 .29.055.371.164.081.11.121.298.121.564v1.923h.761v-2.021c0-.411-.08-.727-.242-.948s-.414-.331-.755-.331c-.205 0-.391.055-.557.164s-.326.247-.479.413c-.075-.184-.183-.326-.325-.426-.142-.101-.331-.151-.568-.151-.201 0-.381.05-.541.151-.159.1-.307.223-.442.367h-.027l-.052-.44h-.623v3.222zm5.384 1.272v-1.01l-.02-.538c.131.114.267.201.407.262.14.062.28.092.42.092.179 0 .352-.039.518-.118s.313-.191.44-.338c.127-.146.228-.327.304-.544.077-.217.116-.463.116-.738 0-.25-.029-.475-.086-.676s-.14-.374-.249-.518c-.11-.144-.242-.255-.397-.331-.155-.077-.333-.115-.534-.115-.18 0-.353.041-.519.124-.166.084-.317.182-.453.296h-.026l-.052-.342h-.624v4.494zm.341-1.876c-.109-.039-.223-.109-.341-.21v-1.502c.245-.241.481-.361.709-.361.244 0 .421.09.531.269.109.179.164.431.164.754 0 .368-.072.644-.216.83-.145.186-.324.279-.538.279-.097 0-.2-.019-.309-.059zm3.231.604v-1.969c.1-.244.221-.416.361-.514.14-.099.273-.148.4-.148.07 0 .129.004.177.013s.1.022.158.04l.131-.657c-.092-.043-.214-.065-.368-.065-.17 0-.337.055-.498.167-.162.112-.3.272-.413.482h-.027l-.052-.571h-.624v3.222zm3.464-.033c.186-.074.348-.184.489-.328.139-.145.252-.321.337-.531.086-.21.128-.449.128-.716 0-.266-.042-.505-.128-.715-.085-.21-.198-.387-.337-.531-.141-.144-.303-.255-.489-.331-.186-.077-.38-.115-.581-.115s-.393.038-.577.115c-.184.076-.347.187-.489.331s-.255.321-.338.531-.125.449-.125.715c0 .267.042.506.125.716s.196.386.338.531c.142.144.305.254.489.328s.376.111.577.111.395-.037.581-.111zm-1.135-.797c-.134-.195-.2-.454-.2-.778 0-.327.066-.589.2-.783.133-.195.318-.292.554-.292s.422.097.558.292c.135.194.203.456.203.783 0 .324-.068.583-.203.778-.136.194-.322.292-.558.292s-.421-.098-.554-.292zm4.219.83 1.096-3.222h-.728l-.512 1.673c-.048.158-.094.318-.138.479-.043.162-.089.326-.138.492h-.026c-.044-.166-.088-.33-.134-.492-.046-.161-.091-.321-.135-.479l-.511-1.673h-.768l1.122 3.222zm3.412-.02c.188-.066.359-.149.512-.249l-.256-.473c-.118.075-.237.133-.357.174-.121.042-.251.062-.391.062-.262 0-.477-.077-.646-.233-.168-.154-.27-.377-.305-.665h2.047c.009-.04.016-.092.023-.158.006-.065.01-.135.01-.209 0-.224-.029-.429-.086-.617-.057-.189-.141-.35-.252-.486-.112-.135-.251-.24-.417-.314-.166-.075-.359-.112-.577-.112-.188 0-.372.039-.551.118s-.338.19-.476.334c-.138.145-.248.322-.331.532s-.125.446-.125.708c0 .267.041.505.122.712.081.208.193.384.338.528.144.144.312.255.504.331.193.077.401.115.624.115.205 0 .402-.032.59-.098zm-1.181-2.493c.145-.135.313-.203.506-.203.223 0 .388.071.495.213s.16.338.16.587h-1.43c.035-.263.125-.461.269-.597zm3.179 2.513v-2.25c.25-.267.475-.401.676-.401.171 0 .297.055.377.164.081.11.122.298.122.564v1.923h.754v-2.25c.249-.267.475-.401.676-.401.166 0 .289.055.37.164.082.11.122.298.122.564v1.923h.761v-2.021c0-.411-.081-.727-.243-.948s-.413-.331-.754-.331c-.206 0-.392.055-.558.164s-.326.247-.479.413c-.074-.184-.183-.326-.325-.426-.142-.101-.331-.151-.567-.151-.201 0-.382.05-.541.151-.16.1-.308.223-.443.367h-.026l-.053-.44h-.623v3.222zm6.623-.02c.188-.066.358-.149.512-.249l-.256-.473c-.118.075-.238.133-.358.174-.12.042-.25.062-.39.062-.262 0-.478-.077-.646-.233-.169-.154-.27-.377-.305-.665h2.046c.009-.04.017-.092.023-.158.007-.065.01-.135.01-.209 0-.224-.028-.429-.085-.617-.057-.189-.141-.35-.253-.486-.111-.135-.25-.24-.416-.314-.166-.075-.359-.112-.577-.112-.189 0-.372.039-.552.118-.179.079-.338.19-.475.334-.138.145-.249.322-.331.532-.084.21-.125.446-.125.708 0 .267.04.505.121.712.081.208.194.384.338.528s.313.255.505.331c.192.077.4.115.624.115.205 0 .402-.032.59-.098zm-1.181-2.493c.144-.135.313-.203.505-.203.223 0 .388.071.495.213.108.142.161.338.161.587h-1.43c.035-.263.125-.461.269-.597zm3.179 2.513v-2.25c.136-.132.257-.231.364-.299s.231-.102.371-.102c.179 0 .308.055.387.164.079.11.118.298.118.564v1.923h.754v-2.021c0-.411-.079-.727-.236-.948s-.409-.331-.754-.331c-.223 0-.419.05-.588.151-.168.1-.324.22-.468.361h-.027l-.052-.434h-.623v3.222zm4.254.042c.111-.024.211-.051.298-.082l-.131-.558c-.048.022-.102.04-.161.053s-.117.02-.174.02c-.301 0-.452-.188-.452-.564v-1.535h.82v-.598h-.82v-.878h-.63l-.092.878-.498.034v.564h.459v1.535c0 .175.018.333.056.475.037.142.096.265.176.368.081.103.186.182.315.239s.288.085.476.085c.127 0 .246-.011.358-.036z" fill="#2d2153"/><path d="m268.779 108.48v-3.931h3.511v-1.927h-3.511v-2.346h4.102v-1.926h-6.387v10.13zm9.568-.086c.451-.18.85-.442 1.197-.784s.624-.764.831-1.266.311-1.075.311-1.717-.104-1.215-.311-1.717-.484-.925-.831-1.267c-.347-.341-.746-.603-1.197-.784-.45-.181-.919-.272-1.405-.272-.488 0-.959.091-1.414.272-.457.181-.858.443-1.205.784-.347.342-.624.765-.831 1.267s-.311 1.075-.311 1.717.104 1.215.311 1.717.484.924.831 1.266.748.604 1.205.784c.455.181.926.272 1.414.272.486 0 .955-.091 1.405-.272zm-2.47-2.167c-.233-.393-.349-.927-.349-1.6 0-.674.116-1.207.349-1.601.233-.393.588-.59 1.065-.59.465 0 .817.197 1.056.59.238.394.357.927.357 1.601 0 .673-.119 1.207-.357 1.6-.239.394-.591.59-1.056.59-.477 0-.832-.196-1.065-.59zm9.458 2.105c.378-.222.733-.53 1.064-.924h.046l.171 1.072h1.865v-7.706h-2.284v5.096c-.228.3-.44.518-.637.652-.197.135-.441.202-.73.202-.332 0-.575-.103-.731-.311-.155-.207-.233-.59-.233-1.149v-4.49h-2.283v4.785c0 .974.188 1.735.567 2.284.378.549.986.823 1.825.823.529 0 .981-.111 1.36-.334zm6.825.148v-5.205c.249-.238.476-.422.684-.552.207-.129.455-.194.746-.194.331 0 .572.104.722.311s.225.59.225 1.15v4.49h2.284v-4.785c0-.974-.188-1.735-.567-2.285-.378-.548-.986-.823-1.826-.823-.527 0-.989.116-1.382.35-.394.233-.756.505-1.088.815h-.062l-.156-.978h-1.864v7.706zm9.885-.086c.362-.18.678-.406.948-.675h.062l.155.761h1.865v-10.892h-2.284v2.626l.093 1.181c-.27-.249-.544-.445-.824-.591-.279-.145-.636-.217-1.072-.217-.404 0-.8.093-1.189.28-.388.186-.729.453-1.025.8-.295.347-.534.769-.714 1.266-.182.497-.272 1.062-.272 1.694s.075 1.196.225 1.694c.15.496.362.919.637 1.266.274.347.606.613.994.8.389.186.821.279 1.298.279.373 0 .74-.091 1.103-.272zm-1.546-2.12c-.243-.352-.365-.912-.365-1.679 0-.735.14-1.276.419-1.623.28-.347.601-.521.964-.521.207 0 .419.037.637.109.217.073.429.202.637.389v3.154c-.187.259-.381.44-.583.544-.202.103-.427.155-.676.155-.445 0-.79-.176-1.033-.528zm9.102 2.12c.362-.18.709-.416 1.041-.706h.062l.155.792h1.865v-4.413c0-1.191-.262-2.069-.785-2.633-.523-.565-1.282-.847-2.276-.847-.612 0-1.189.093-1.733.28-.543.186-1.064.43-1.561.73l.824 1.507c.373-.217.722-.388 1.048-.513.327-.124.655-.186.987-.186.425 0 .727.101.909.303.181.202.282.474.303.816-1.523.155-2.626.461-3.31.916-.683.456-1.025 1.088-1.025 1.896 0 .331.054.637.163.917s.261.525.458.738c.197.212.438.378.723.497s.603.178.955.178c.436 0 .834-.091 1.197-.272zm-1.065-1.677c-.16-.12-.24-.304-.24-.552 0-.3.155-.559.466-.777.31-.217.87-.383 1.678-.497v1.352c-.207.207-.404.367-.591.481-.186.114-.409.171-.668.171-.269 0-.484-.059-.645-.178zm9.385 1.856c.279-.062.523-.124.73-.186l-.357-1.663c-.104.042-.221.078-.35.109s-.256.047-.38.047c-.301 0-.542-.096-.723-.288-.181-.191-.272-.505-.272-.94v-3.092h1.849v-1.786h-1.849v-2.052h-1.895l-.265 2.052-1.18.093v1.693h1.056v3.123c0 .446.049.852.148 1.22.098.368.253.681.466.94.212.259.487.461.823.606.337.145.744.217 1.22.217.373 0 .699-.03.979-.093zm1.456-.093h2.284v-7.706h-2.284zm2.089-9.175c.244-.223.366-.51.366-.862s-.122-.637-.366-.855c-.243-.217-.562-.326-.955-.326-.383 0-.699.109-.948.326-.248.218-.373.503-.373.855s.125.639.373.862c.249.223.565.334.948.334.393 0 .712-.111.955-.334zm6.305 9.089c.451-.18.85-.442 1.196-.784.348-.342.624-.764.832-1.266.207-.502.311-1.075.311-1.717s-.104-1.215-.311-1.717c-.208-.502-.484-.925-.832-1.267-.346-.341-.745-.603-1.196-.784-.45-.181-.919-.272-1.406-.272s-.958.091-1.414.272-.857.443-1.204.784c-.347.342-.624.765-.831 1.267s-.311 1.075-.311 1.717.104 1.215.311 1.717.484.924.831 1.266.748.604 1.204.784c.456.181.927.272 1.414.272s.956-.091 1.406-.272zm-2.47-2.167c-.233-.393-.35-.927-.35-1.6 0-.674.117-1.207.35-1.601.233-.393.588-.59 1.064-.59.466 0 .818.197 1.057.59.238.394.357.927.357 1.601 0 .673-.119 1.207-.357 1.6-.239.394-.591.59-1.057.59-.476 0-.831-.196-1.064-.59zm8.081 2.253v-5.205c.249-.238.476-.422.684-.552.207-.129.455-.194.745-.194.332 0 .572.104.723.311.15.207.225.59.225 1.15v4.49h2.284v-4.785c0-.974-.189-1.735-.567-2.285-.378-.548-.987-.823-1.826-.823-.528 0-.989.116-1.383.35-.393.233-.756.505-1.087.815h-.063l-.155-.978h-1.864v7.706z" fill="#2d2153"/><path d="m204.476 98.364-11.713 17.766h54.787l11.707-17.766z" fill="#2d2153"/><path d="m240.588 108.771 1.716-2.885h.03v2.885zm-33.698 3.595h2.633l3.965-5.74h.029v5.74h2.663l3.713-5.533c.429.592 1.095.887 1.775 1.169.947.384 1.879.635 1.879 1.464 0 .577-.459 1.021-1.021 1.021-.651 0-1.08-.592-1.095-1.45h-.014l-2.678.474c.103 2.1 1.583 3.224 3.802 3.224 1.553 0 2.618-.754 3.284-1.494 1.05-1.168 2.16-3.328 3.24-5l.014.015v6.11h2.22l4.319-6.184h.029v6.184h2.915l.917-1.495h3.003v1.495h2.648v-10.356h-2.619l-4.215 6.14v-6.14h-2.619l-3.905 5.695h-.03v-5.695h-2.633l-3.698 5.695c-.444-.665-1.036-1.094-2.086-1.538-1.035-.429-1.731-.695-1.731-1.316 0-.474.429-.844.917-.844.533 0 .844.281.962 1.021l2.633-.458c-.192-1.776-1.701-2.811-3.521-2.811-1.449 0-2.367.518-3.358 1.819-.325.429-2.026 3.033-3.032 4.557h-.03v-6.125h-2.426l-4.171 6.021h-.03v-6.021h-2.648z" fill="#77c0c6"/></g></svg>