<svg height="65" viewBox="0 0 659 65" width="659" xmlns="http://www.w3.org/2000/svg" xmlns:xlink="http://www.w3.org/1999/xlink"><mask id="a" fill="#fff"><path d="m.856.107h2.83v8.833h-2.83z" fill="none"/></mask><g fill="none" fill-rule="evenodd"><g fill="#626668"><path d="m260.987 1.975-2.501 5.581h4.987zm5.581 9.583h-1.329l-1.281-2.892h-5.957l-1.298 2.892h-1.265l4.986-11.02h1.157z"/><path d="m277.41.615h1.203v10.943h-.985l-7.065-8.972v8.972h-1.204v-10.943h1.157l6.894 8.77z"/><path d="m287.771 11.557h1.235v-10.942h-1.235z"/><path d="m300.89.615h1.204v10.943h-.985l-7.066-8.972v8.972h-1.203v-10.943h1.157l6.893 8.77z"/><path d="m305.933 11.557h1.235v-10.942h-1.235z"/><path d="m315.144 11.558h-1.251v-9.801h-3.674v-1.142h8.598v1.142h-3.673z"/><path d="m321.874 11.557h1.234v-10.942h-1.234z"/><path d="m331.552 1.975-2.501 5.581h4.987zm5.581 9.583h-1.329l-1.282-2.892h-5.956l-1.296 2.892h-1.267l4.987-11.02h1.156z"/><path d="m342.658 11.558h-1.25v-9.801h-3.674v-1.142h8.598v1.142h-3.674z"/><path d="m349.387 11.557h1.236v-10.942h-1.236z"/><path d="m362.695.615h1.328l-4.705 11.021h-1.095l-4.705-11.021h1.376l3.893 9.427z"/><path d="m374.724 1.741h-6.674v3.736h5.971v1.126h-5.971v3.829h6.753v1.126h-7.988v-10.943h7.909z"/><path d="m388.32 1.569c-2.501 0-4.283 2.001-4.283 4.502s1.813 4.534 4.314 4.534 4.283-2.001 4.283-4.502c0-2.502-1.813-4.534-4.314-4.534zm0 10.177c-3.329 0-5.566-2.611-5.566-5.643 0-3.034 2.268-5.675 5.597-5.675 3.33 0 5.565 2.611 5.565 5.643 0 3.033-2.266 5.675-5.596 5.675z"/><path d="m405.025 1.757h-6.627v3.908h5.924v1.126h-5.924v4.767h-1.235v-10.943h7.862z"/><path d="m0 6.423h245.692v-1.387h-245.692z"/><path d="m416.237 6.423h242.625v-1.387h-242.625z"/><path d="m331.686 27.204c0 .781-.634 1.414-1.415 1.414s-1.415-.633-1.415-1.414c0-.782.634-1.415 1.415-1.415s1.415.633 1.415 1.415"/><path d="m331.686 33.268c0 .781-.634 1.414-1.415 1.414s-1.415-.633-1.415-1.414c0-.783.634-1.415 1.415-1.415s1.415.632 1.415 1.415"/><path d="m331.686 39.331c0 .781-.634 1.415-1.415 1.415s-1.415-.634-1.415-1.415.634-1.415 1.415-1.415 1.415.634 1.415 1.415"/><path d="m331.686 45.395c0 .781-.634 1.415-1.415 1.415s-1.415-.634-1.415-1.415c0-.782.634-1.415 1.415-1.415s1.415.633 1.415 1.415"/><path d="m331.686 51.458c0 .781-.634 1.415-1.415 1.415s-1.415-.634-1.415-1.415.634-1.415 1.415-1.415 1.415.634 1.415 1.415"/><g transform="translate(328 56)"><path d="m3.686 1.522c0 .781-.634 1.415-1.415 1.415s-1.415-.634-1.415-1.415c0-.782.634-1.415 1.415-1.415s1.415.633 1.415 1.415" mask="url(#a)"/><path d="m3.686 7.585c0 .781-.634 1.415-1.415 1.415s-1.415-.634-1.415-1.415.634-1.415 1.415-1.415 1.415.634 1.415 1.415" mask="url(#a)"/></g><path d="m158.635 54.458v3.301c0 .822.128 2.154-.803 2.501v.055h3.483v-.055c-.93-.347-.822-1.679-.822-2.501v-6.894c0-.821-.108-2.152.822-2.499v-.054h-3.483v.054c.931.347.803 1.678.803 2.517v2.263h-6.59v-2.263c0-.839-.108-2.17.805-2.517v-.054h-3.466v.054c.931.347.804 1.678.804 2.499v6.894c0 .822.109 2.154-.804 2.501v.055h3.466v-.055c-.913-.347-.805-1.679-.805-2.501v-3.301zm8.238 6.093c2.573 0 4.761-1.895 4.761-4.524 0-1.24-.565-2.445-1.494-3.266-.876-.765-1.88-1.074-3.048-1.074-2.628 0-4.834 1.768-4.834 4.505 0 2.592 2.115 4.359 4.615 4.359zm.091-1.201c-1.861 0-2.865-1.808-2.865-3.487 0-1.642 1.094-2.974 2.792-2.974 1.954 0 2.902 1.752 2.902 3.522 0 1.642-1.149 2.939-2.829 2.939zm11.382-7.426c-.656-.183-1.35-.237-2.026-.237-1.57 0-3.574.509-3.574 2.442 0 2.775 4.944 2.19 4.944 4.034 0 .932-1.26 1.187-2.008 1.187-1.261 0-2.373-.347-3.429-1.023l.638 1.787c.765.309 1.548.437 2.371.437 2.355 0 4.085-1.147 4.085-2.845 0-2.901-4.945-2.317-4.945-3.941 0-.73 1.097-.876 1.699-.876.803 0 1.571.219 2.245.584zm1.756.001v.054c.802.436.692 1.112.692 1.951v8.118c0 .839.11 1.495-.692 1.951v.056h3.045v-.056c-.803-.456-.694-1.112-.694-1.951v-6.257c0-.73-.019-1.386.511-1.953.511-.564 1.26-.874 2.026-.874 1.88 0 2.793 1.569 2.793 3.265 0 1.824-.968 3.121-2.902 3.121-.694 0-1.351-.22-1.99-.531l.986 1.496c.42.164.876.236 1.351.236 2.555 0 4.395-1.986 4.395-4.523 0-2.392-1.64-4.341-4.177-4.341-1.021 0-2.372.437-2.993 1.293v-1.293h-.055c-.255.198-.692.235-1.093.235zm10.482-.003v.055c.804.456.695 1.113.695 1.951v4.361c0 .839.109 1.515-.695 1.971v.055h3.045v-.055c-.802-.456-.693-1.132-.693-1.971v-6.657h-.054c-.31.271-.766.29-1.185.29zm2.553-2.242c0-.602-.474-1.132-1.094-1.132-.601 0-1.184.438-1.184 1.075 0 .675.51 1.204 1.184 1.204.62 0 1.094-.548 1.094-1.147zm4.043 3.446h1.095c.474 0 1.021-.036 1.313.347h.055v-1.658h-.055c-.182.11-.455.11-.693.11h-1.715v-2.72h-.728c0 1.697-.457 2.974-2.172 3.264v.657h1.241v3.796c0 .712-.255 3.629 2.571 3.629.2 0 .402-.036.583-.091l.968-1.294c-.237.092-.475.184-.729.184-1.953 0-1.734-1.88-1.734-2.575zm11.736 6.224c-1.515-.164-1.549-.711-1.549-2.155v-2.737c-.019-2.207-1.513-2.771-3.484-2.771l-1.187.109-1.223 1.822c.821-.384 1.55-.729 2.481-.729.677 0 1.754.291 1.754 1.168 0 1.99-5.455.419-5.455 3.814 0 1.515 1.275 2.68 3.118 2.68.31 0 .638-.036.95-.091l1.076-1.365c-.439.126-.876.255-1.314.255-.968 0-1.99-.365-1.99-1.497 0-1.114.985-1.314 1.861-1.514.603-.147 1.225-.292 1.754-.567v2.884c0 1.458 1.201 1.823 2.407 1.895zm.5-11.039v.054c.785.456.674 1.131.674 1.97v7.955c0 .839.111 1.515-.674 1.972v.055h3.007v-.055c-.803-.457-.675-1.133-.675-1.972v-10.27h-.056c-.271.307-.745.29-1.165.29zm17.713 7.496.987 2.574c.491 1.276.637 1.478-.258 1.879v.055h3.741v-.055c-1.04-.53-1.367-1.551-1.787-2.59l-3.796-9.358h-2.881v.054c.874.274.528 1.039.273 1.697l-3.048 7.607c-.401 1.039-.711 2.06-1.768 2.59v.055h3.356v-.055c-.876-.328-.748-.858-.365-1.879l.949-2.574zm-.528-1.347h-3.595l1.807-4.599zm11.429-2.536c-.655-.183-1.349-.237-2.024-.237-1.57 0-3.576.509-3.576 2.442 0 2.775 4.945 2.19 4.945 4.034 0 .932-1.26 1.187-2.007 1.187-1.261 0-2.374-.347-3.43-1.023l.639 1.787c.765.309 1.548.437 2.369.437 2.357 0 4.088-1.147 4.088-2.845 0-2.901-4.946-2.317-4.946-3.941 0-.73 1.097-.876 1.7-.876.803 0 1.568.219 2.242.584zm7.852 0c-.657-.183-1.35-.237-2.026-.237-1.569 0-3.575.509-3.575 2.442 0 2.775 4.944 2.19 4.944 4.034 0 .932-1.258 1.187-2.009 1.187-1.258 0-2.37-.347-3.427-1.023l.639 1.787c.765.309 1.549.437 2.369.437 2.354 0 4.087-1.147 4.087-2.845 0-2.901-4.945-2.317-4.945-3.941 0-.73 1.096-.876 1.699-.876.803 0 1.57.219 2.244.584zm6.463 8.627c2.574 0 4.762-1.895 4.762-4.524 0-1.24-.565-2.445-1.495-3.266-.876-.765-1.878-1.074-3.049-1.074-2.626 0-4.833 1.768-4.833 4.505 0 2.592 2.115 4.359 4.615 4.359zm.092-1.201c-1.861 0-2.867-1.808-2.867-3.487 0-1.642 1.097-2.974 2.793-2.974 1.953 0 2.903 1.752 2.903 3.522 0 1.642-1.15 2.939-2.829 2.939zm12.749-7.446c-.64-.145-1.314-.217-1.972-.217-2.754 0-5.196 1.511-5.196 4.652 0 2.372 2.186 4.212 4.996 4.212.803 0 1.642-.072 2.41-.364l.947-1.732h-.055c-.711.53-1.733.895-2.663.895-2.025 0-3.796-1.389-3.796-3.487 0-1.734 1.278-2.974 3.047-2.974.822 0 1.698.291 2.226.893h.056zm1.456.018v.055c.801.456.693 1.113.693 1.951v4.361c0 .839.108 1.515-.693 1.971v.055h3.046v-.055c-.804-.456-.694-1.132-.694-1.971v-6.657h-.055c-.31.271-.765.29-1.185.29zm2.552-2.242c0-.602-.474-1.132-1.094-1.132-.601 0-1.184.438-1.184 1.075 0 .675.51 1.204 1.184 1.204.62 0 1.094-.548 1.094-1.147zm9.893 9.67c-1.513-.164-1.551-.711-1.551-2.155v-2.737c-.017-2.207-1.512-2.771-3.482-2.771l-1.187.109-1.222 1.822c.82-.384 1.55-.729 2.48-.729.677 0 1.754.291 1.754 1.168 0 1.99-5.455.419-5.455 3.814 0 1.515 1.275 2.68 3.118 2.68.31 0 .638-.036.95-.091l1.076-1.365c-.437.126-.876.255-1.314.255-.968 0-1.99-.365-1.99-1.497 0-1.114.986-1.314 1.861-1.514.603-.147 1.225-.292 1.754-.567v2.884c0 1.458 1.201 1.823 2.405 1.895zm2.736-6.224h1.094c.474 0 1.022-.036 1.313.347h.055v-1.658h-.055c-.181.11-.455.11-.693.11h-1.714v-2.72h-.729c0 1.697-.455 2.974-2.17 3.264v.657h1.24v3.796c0 .712-.255 3.629 2.57 3.629.202 0 .402-.036.586-.091l.965-1.294c-.236.092-.474.184-.729.184-1.952 0-1.733-1.88-1.733-2.575zm3.337-1.204v.055c.803.456.693 1.113.693 1.951v4.361c0 .839.11 1.515-.693 1.971v.055h3.046v-.055c-.804-.456-.695-1.132-.695-1.971v-6.657h-.054c-.31.271-.765.29-1.185.29zm2.552-2.242c0-.602-.474-1.132-1.094-1.132-.6 0-1.184.438-1.184 1.075 0 .675.51 1.204 1.184 1.204.62 0 1.094-.548 1.094-1.147zm6.069 10.871c2.574 0 4.761-1.895 4.761-4.524 0-1.24-.565-2.445-1.495-3.266-.876-.765-1.88-1.074-3.048-1.074-2.627 0-4.833 1.768-4.833 4.505 0 2.592 2.114 4.359 4.615 4.359zm.091-1.201c-1.86 0-2.866-1.808-2.866-3.487 0-1.642 1.096-2.974 2.793-2.974 1.953 0 2.903 1.752 2.903 3.522 0 1.642-1.15 2.939-2.83 2.939zm5.541-7.426v.053c.802.457.692 1.131.692 1.971v4.342c0 .839.11 1.515-.692 1.972v.055h3.045v-.055c-.804-.457-.694-1.113-.694-1.953v-3.23c0-1.076.274-2.189 1.935-2.189s2.209 1.002 2.209 2.955v2.464c0 .82.109 1.496-.694 1.953v.055h3.046v-.055c-.803-.457-.695-1.113-.695-1.953v-2.646c0-.858.055-1.989-.455-2.719-.583-.857-1.75-1.257-2.772-1.257-1.187 0-1.935.527-2.574 1.403v-1.403h-.055c-.384.216-.82.235-1.22.235z"/><path d="m157.721 31.32 2.007 6.275c.601 1.881.73 1.79 2.407 2.936l3.85-12.55h-2.809v.055c1.423.492.82 1.97.491 3.011l-2.06 6.677-2.537-7.9c-.255-.802-.383-1.386-.273-1.843h-2.57v.055c1.003.51.638 1.697.292 2.81l-2.136 6.932-2.72-8.484c-.11-.347-.291-.911-.22-1.313h-2.661v.055c.912.62 1.185 1.807 1.513 2.81l2.153 6.732c.603 1.88.766 1.752 2.428 2.953zm16.514 7.7c-1.514-.165-1.551-.713-1.551-2.154v-2.739c-.018-2.205-1.512-2.77-3.483-2.77l-1.187.108-1.221 1.823c.82-.383 1.549-.73 2.481-.73.675 0 1.753.292 1.753 1.168 0 1.989-5.456.421-5.456 3.814 0 1.516 1.275 2.682 3.119 2.682.31 0 .639-.037.95-.092l1.076-1.367c-.438.129-.876.257-1.314.257-.968 0-1.99-.366-1.99-1.497 0-1.114.985-1.315 1.862-1.515.603-.147 1.224-.293 1.753-.566v2.883c0 1.459 1.202 1.824 2.405 1.897zm6.477-7.427c-.656-.181-1.349-.236-2.025-.236-1.571 0-3.576.51-3.576 2.443 0 2.772 4.945 2.19 4.945 4.033 0 .93-1.26 1.187-2.009 1.187-1.259 0-2.371-.346-3.427-1.023l.638 1.787c.764.31 1.548.438 2.369.438 2.355 0 4.087-1.148 4.087-2.845 0-2.902-4.944-2.317-4.944-3.942 0-.73 1.096-.877 1.698-.877.803 0 1.569.219 2.244.586zm1.738-3.612v.055c.803.455.693 1.132.693 1.97v7.954c0 .838.11 1.514-.693 1.969v.055h3.044v-.055c-.803-.455-.693-1.131-.693-1.969v-2.884c0-1.623.493-2.518 2.099-2.518 1.571 0 2.045 1.15 2.045 2.628v2.774c0 .838.127 1.514-.676 1.969v.055h3.027v-.055c-.802-.455-.692-1.131-.692-1.969v-3.322c0-1.77-.602-3.281-3.12-3.281-.894 0-2.135.364-2.683 1.146v-4.812h-.055c-.255.288-.692.288-1.111.288zm9.892 3.61v.055c.804.456.694 1.112.694 1.953v4.361c0 .838.11 1.514-.694 1.969v.055h3.045v-.055c-.804-.455-.693-1.131-.693-1.969v-6.658h-.055c-.31.271-.765.29-1.185.29zm2.552-2.243c0-.602-.474-1.13-1.093-1.13-.602 0-1.185.438-1.185 1.075 0 .675.511 1.203 1.185 1.203.619 0 1.093-.547 1.093-1.148zm1.593 2.244v.055c.802.456.694 1.131.694 1.97v4.344c0 .838.108 1.514-.694 1.969v.054h3.045v-.054c-.802-.455-.693-1.113-.693-1.951v-3.231c0-1.076.273-2.188 1.933-2.188 1.663 0 2.211 1.003 2.211 2.955v2.464c0 .82.108 1.496-.695 1.951v.054h3.046v-.054c-.803-.455-.693-1.113-.693-1.951v-2.647c0-.856.054-1.987-.456-2.718-.583-.857-1.75-1.257-2.773-1.257-1.185 0-1.935.528-2.573 1.401v-1.401h-.054c-.384.216-.821.235-1.222.235zm14.033-.235c-1.88 0-3.922.983-3.922 3.1 0 1.37 1.093 2.554 2.406 2.81-.382.18-1.441.436-1.441.966 0 .658.531 1.314 1.332 1.295l1.259-.036c1.115 0 3.721.091 3.721 1.698 0 1.533-2.023 1.879-3.229 1.879-1.184 0-3.01-.272-3.01-1.806 0-.476.238-.731.694-.822-.346-.165-.657-.236-1.039-.236-.93 0-1.751.456-1.751 1.478 0 1.55 2.37 2.589 5.054 2.589 2.845 0 5.124-1.148 5.124-3.209 0-1.808-1.678-2.665-4.833-2.665-.239 0-1.095.054-1.095-.347 0-.312.492-.475.749-.492 1.66-.148 3.884-.784 3.884-2.846 0-.933-.528-1.716-1.293-2.21.62.092 1.239.237 1.878.237.4 0 .437-.108.582-.437l.42-.946zm-2.082 2.807c0-1.057.858-1.606 1.863-1.606 1.296 0 2.281.858 2.281 2.027 0 1.059-.802 1.771-1.897 1.771-1.187 0-2.247-1.004-2.247-2.192zm11.08-1.369h1.095c.474 0 1.023-.037 1.313.347h.055v-1.658h-.055c-.181.109-.455.109-.692.109h-1.716v-2.718h-.728c0 1.696-.455 2.973-2.17 3.265v.655h1.24v3.797c0 .713-.255 3.63 2.571 3.63.2 0 .402-.037.583-.092l.967-1.293c-.236.092-.474.183-.729.183-1.952 0-1.734-1.881-1.734-2.574zm7.522 7.427c2.572 0 4.76-1.897 4.76-4.524 0-1.242-.565-2.446-1.494-3.267-.875-.764-1.878-1.074-3.046-1.074-2.629 0-4.836 1.767-4.836 4.504 0 2.592 2.116 4.361 4.616 4.361zm.091-1.202c-1.861 0-2.864-1.807-2.864-3.487 0-1.641 1.094-2.975 2.791-2.975 1.954 0 2.902 1.753 2.902 3.524 0 1.642-1.149 2.938-2.829 2.938zm5.54-7.428v.055c.803.456.695 1.131.695 1.97v4.344c0 .838.108 1.514-.695 1.969v.054h3.046v-.054c-.803-.455-.695-1.113-.695-1.951v-3.231c0-1.076.274-2.188 1.936-2.188s2.209 1.003 2.209 2.955v2.464c0 .82.11 1.496-.693 1.951v.054h3.044v-.054c-.802-.455-.693-1.113-.693-1.951v-2.647c0-.856.056-1.987-.454-2.718-.584-.857-1.751-1.257-2.774-1.257-1.187 0-1.936.528-2.575 1.401v-1.401h-.053c-.383.216-.82.235-1.221.235zm22.44-3.502c-.875-.273-1.804-.399-2.717-.399-2.227 0-4.581.873-4.581 3.171 0 3.869 6.278 3.357 6.278 6.205 0 1.277-1.57 1.897-2.61 1.897-1.423 0-2.919-.583-3.995-1.513l.53 2.279c1.038.382 2.151.546 3.264.546 2.848 0 4.889-1.823 4.889-3.775 0-3.377-6.277-3.34-6.277-5.84 0-1.26 1.316-1.661 2.356-1.661 1.022 0 2.153.421 2.863 1.15zm4.505 4.705h1.093c.475 0 1.023-.037 1.315.347h.054v-1.658h-.054c-.183.109-.457.109-.695.109h-1.713v-2.718h-.73c0 1.696-.455 2.973-2.17 3.265v.655h1.241v3.797c0 .713-.255 3.63 2.569 3.63.203 0 .403-.037.585-.092l.967-1.293c-.237.092-.474.183-.73.183-1.952 0-1.732-1.881-1.732-2.574zm11.735 6.225c-1.514-.165-1.55-.713-1.55-2.154v-2.739c-.018-2.205-1.513-2.77-3.484-2.77l-1.187.108-1.221 1.823c.821-.383 1.55-.73 2.481-.73.676 0 1.753.292 1.753 1.168 0 1.989-5.455.421-5.455 3.814 0 1.516 1.275 2.682 3.119 2.682.31 0 .638-.037.949-.092l1.077-1.367c-.438.129-.877.257-1.315.257-.968 0-1.991-.366-1.991-1.497 0-1.114.987-1.315 1.863-1.515.603-.147 1.224-.293 1.753-.566v2.883c0 1.459 1.202 1.824 2.406 1.897zm2.736-6.225h1.095c.473 0 1.021-.037 1.313.347h.055v-1.658h-.055c-.182.109-.456.109-.693.109h-1.715v-2.718h-.73c0 1.696-.455 2.973-2.168 3.265v.655h1.24v3.797c0 .713-.256 3.63 2.571 3.63.2 0 .4-.037.583-.092l.967-1.293c-.237.092-.475.183-.731.183-1.951 0-1.732-1.881-1.732-2.574zm11.634 2.7c.072-2.351-1.622-4.138-4.105-4.138-2.719 0-4.558 1.841-4.558 4.377 0 2.537 2.131 4.488 5.234 4.488.856 0 1.733-.128 2.517-.455l.912-1.715h-.055c-.838.656-1.897.968-2.992.968-2.061 0-3.611-1.297-3.649-3.525zm-6.622-1.055c.219-1.15 1.131-1.882 2.355-1.882 1.312 0 2.152.603 2.352 1.882z"/><path d="m124.018 27.934v23.409h-7.781v-7.78h-10.696v7.712h-7.781l.07-23.414h-11.183v24.177s0 10.418 10.419 10.418h27.646s10.419 0 10.419-10.418v-24.104z"/><path d="m105.541 36.271h10.716v-8.336h-10.716z"/><path d="m477.163 61.505v-4.852h1.165v-1.104h-1.165v-.643c0-.671.251-1.006.753-1.006.217 0 .436.047.654.145l.267-1.044c-.137-.057-.301-.104-.492-.145-.189-.04-.389-.061-.599-.061-.357 0-.658.053-.905.158-.247.106-.451.253-.612.443-.162.19-.279.417-.352.679-.073.263-.109.548-.109.856v.618l-.801.06v1.044h.801v4.852zm5.471-.061c.344-.136.645-.339.904-.606.258-.267.466-.595.625-.982.157-.388.236-.83.236-1.323s-.079-.934-.236-1.322c-.159-.389-.367-.716-.625-.982-.259-.268-.56-.471-.904-.614-.343-.14-.702-.212-1.074-.212s-.727.072-1.067.212c-.34.143-.641.346-.904.614-.263.266-.471.593-.625.982-.153.388-.23.829-.23 1.322s.077.935.23 1.323c.154.387.362.715.625.982s.564.47.904.606c.34.138.695.206 1.067.206s.731-.068 1.074-.206zm-2.098-1.473c-.247-.36-.37-.839-.37-1.438 0-.606.123-1.09.37-1.45.246-.359.588-.539 1.024-.539.437 0 .78.18 1.031.539.251.36.376.844.376 1.45 0 .599-.125 1.078-.376 1.438s-.594.54-1.031.54c-.436 0-.778-.18-1.024-.54zm6.385 1.534v-3.639c.186-.453.409-.77.667-.953.259-.181.505-.272.741-.272.129 0 .238.008.327.024.089.017.185.041.291.072l.242-1.212c-.17-.081-.396-.122-.679-.122-.315 0-.623.103-.922.31-.299.206-.554.503-.764.892h-.048l-.098-1.056h-1.152v5.956zm6.841 0v-3.518h3.215v3.518h1.407v-7.934h-1.407v3.191h-3.215v-3.191h-1.407v7.934zm9.927-.036c.348-.121.663-.275.946-.461l-.472-.873c-.219.137-.44.244-.662.321s-.462.115-.721.115c-.486 0-.884-.143-1.196-.43-.311-.287-.499-.698-.563-1.232h3.784c.017-.073.03-.17.043-.291.012-.121.018-.251.018-.388 0-.413-.053-.792-.158-1.14s-.26-.648-.466-.898-.464-.445-.771-.583c-.307-.137-.663-.206-1.067-.206-.349 0-.688.073-1.02.218-.332.147-.625.353-.879.619-.255.268-.46.595-.613.983s-.23.825-.23 1.31c0 .493.075.933.224 1.317.15.384.358.709.625.976s.578.471.934.613c.356.141.74.211 1.153.211.38 0 .743-.06 1.091-.181zm-2.184-4.61c.268-.25.579-.375.935-.375.412 0 .718.13.916.393.197.264.297.625.297 1.086h-2.645c.065-.485.231-.853.497-1.104zm6.828 4.561c.303-.153.588-.344.855-.569h.049l.096.654h1.153v-3.529c0-.833-.184-1.47-.552-1.911s-.924-.662-1.668-.662c-.477 0-.922.078-1.335.231-.412.154-.784.336-1.115.546l.51.933c.266-.161.539-.298.818-.412.279-.113.564-.17.856-.17.202 0 .372.031.508.092.138.061.249.145.334.254s.146.235.183.376c.036.143.058.29.066.443-.614.065-1.142.158-1.583.28-.441.121-.805.27-1.091.448-.288.178-.499.391-.631.637-.134.247-.201.528-.201.842 0 .527.162.95.486 1.269.323.319.748.478 1.273.478.356 0 .686-.076.989-.23zm-1.159-1.043c-.162-.121-.243-.315-.243-.582 0-.145.037-.283.11-.412.073-.13.194-.245.364-.347.17-.1.392-.191.667-.272s.615-.146 1.019-.195v1.334c-.226.211-.438.373-.637.487-.198.113-.418.169-.661.169-.251 0-.457-.061-.619-.182zm6.808 1.152-.182-1.043c-.056.017-.098.025-.128.025h-.09c-.073 0-.141-.034-.207-.104-.064-.068-.096-.187-.096-.357v-7.109h-1.396v7.036c0 .517.102.926.304 1.225s.554.448 1.056.448c.306 0 .553-.04.739-.121zm3.637.055c.207-.044.39-.095.552-.151l-.243-1.032c-.089.041-.187.074-.297.097-.109.025-.216.037-.322.037-.558 0-.836-.348-.836-1.044v-2.838h1.516v-1.104h-1.516v-1.626h-1.165l-.17 1.626-.922.06v1.044h.85v2.838c0 .325.034.618.102.88.069.263.178.489.329.68.149.189.343.337.582.442.238.106.531.157.879.157.235 0 .455-.021.661-.066zm2.779-.079v-4.16c.251-.243.476-.427.674-.553.197-.125.426-.187.685-.187.331 0 .57.101.715.302.146.203.219.551.219 1.044v3.554h1.395v-3.736c0-.76-.146-1.345-.437-1.753s-.756-.613-1.395-.613c-.413 0-.77.091-1.074.273-.303.183-.58.391-.83.625l.048-1.152v-2.208h-1.395v8.564zm12.234-.151c.416-.199.786-.484 1.11-.856l-.752-.885c-.227.243-.477.439-.752.588-.275.15-.591.225-.946.225-.671 0-1.204-.257-1.595-.771-.393-.513-.589-1.222-.589-2.129 0-.444.055-.844.164-1.201.109-.355.263-.657.461-.904.198-.246.433-.436.704-.569.271-.134.567-.201.891-.201.307 0 .583.063.825.189.242.125.469.293.68.503l.751-.91c-.251-.267-.57-.501-.958-.703-.388-.203-.833-.304-1.334-.304s-.973.093-1.414.279c-.44.187-.824.457-1.152.813-.327.356-.587.791-.776 1.304-.191.514-.285 1.094-.285 1.741 0 .655.092 1.237.279 1.747.185.509.438.938.758 1.286.319.347.697.61 1.134.788s.906.266 1.407.266c.509 0 .972-.098 1.389-.296zm4.627.066c.303-.153.588-.344.855-.569h.049l.096.654h1.153v-3.529c0-.833-.184-1.47-.552-1.911s-.924-.662-1.668-.662c-.478 0-.922.078-1.334.231-.413.154-.784.336-1.116.546l.509.933c.267-.161.541-.298.819-.412.279-.113.564-.17.855-.17.202 0 .372.031.51.092.137.061.249.145.333.254.085.109.146.235.183.376.036.143.058.29.066.443-.615.065-1.142.158-1.583.28-.441.121-.805.27-1.092.448s-.497.391-.631.637c-.133.247-.2.528-.2.842 0 .527.161.95.486 1.269.323.319.748.478 1.273.478.356 0 .686-.076.989-.23zm-1.159-1.043c-.161-.121-.242-.315-.242-.582 0-.145.036-.283.109-.412.073-.13.195-.245.364-.347.169-.1.392-.191.667-.272s.615-.146 1.019-.195v1.334c-.226.211-.438.373-.637.487-.198.113-.419.169-.661.169-.251 0-.457-.061-.619-.182zm6.119 1.128v-3.639c.186-.453.408-.77.667-.953.259-.181.505-.272.74-.272.129 0 .239.008.328.024.088.017.186.041.291.072l.243-1.212c-.17-.081-.397-.122-.68-.122-.315 0-.623.103-.922.31-.299.206-.553.503-.764.892h-.048l-.097-1.056h-1.153v5.956zm6.527-.036c.347-.121.663-.275.946-.461l-.474-.873c-.218.137-.438.244-.661.321s-.463.115-.722.115c-.485 0-.883-.143-1.194-.43s-.5-.698-.564-1.232h3.784c.016-.073.031-.17.043-.291s.018-.251.018-.388c0-.413-.052-.792-.158-1.14-.104-.348-.261-.648-.467-.898s-.463-.445-.77-.583c-.308-.137-.663-.206-1.068-.206-.347 0-.687.073-1.018.218-.332.147-.625.353-.88.619-.255.268-.459.595-.612.983-.155.388-.231.825-.231 1.31 0 .493.074.933.225 1.317.149.384.357.709.624.976.266.267.578.471.934.613.356.141.74.211 1.153.211.38 0 .744-.06 1.092-.181zm-2.184-4.61c.267-.25.578-.375.934-.375.413 0 .717.13.916.393.198.264.297.625.297 1.086h-2.644c.064-.485.23-.853.497-1.104zm6.999 4.646h1.407v-7.934h-1.407zm4.405 0v-4.16c.461-.493.877-.74 1.249-.74.316 0 .548.101.699.302.149.203.223.551.223 1.044v3.554h1.396v-4.16c.461-.493.877-.74 1.249-.74.307 0 .536.101.685.302.15.203.225.551.225 1.044v3.554h1.407v-3.736c0-.76-.149-1.345-.449-1.753-.299-.408-.764-.613-1.395-.613-.38 0-.724.102-1.031.303-.307.203-.602.458-.886.765-.137-.34-.338-.603-.6-.788-.263-.187-.613-.28-1.049-.28-.372 0-.706.093-1.001.28-.296.185-.568.412-.819.679h-.048l-.098-.813h-1.152v5.956zm9.955 2.354v-1.869l-.036-.994c.243.21.493.372.752.485s.518.169.777.169c.332 0 .651-.072.959-.217.306-.146.578-.354.812-.625s.423-.607.564-1.007c.141-.401.212-.856.212-1.365 0-.46-.052-.877-.158-1.249-.104-.372-.259-.692-.461-.958-.202-.268-.446-.471-.733-.614-.287-.14-.617-.212-.988-.212-.332 0-.652.078-.959.231-.308.154-.587.336-.837.546h-.049l-.097-.631h-1.152v8.31zm.631-3.469c-.202-.073-.412-.203-.631-.389v-2.778c.454-.445.89-.667 1.311-.667.453 0 .78.166.982.497.203.332.304.797.304 1.395 0 .68-.134 1.191-.4 1.535-.268.343-.599.515-.995.515-.178 0-.369-.036-.571-.108zm5.975 1.115v-3.639c.186-.453.408-.77.667-.953.259-.181.506-.272.74-.272.129 0 .238.008.327.024.089.017.187.041.292.072l.242-1.212c-.17-.081-.396-.122-.679-.122-.316 0-.622.103-.922.31-.299.206-.554.503-.764.892h-.049l-.096-1.056h-1.154v5.956zm6.405-.061c.344-.136.645-.339.903-.606.259-.267.468-.595.625-.982.159-.388.237-.83.237-1.323s-.078-.934-.237-1.322c-.157-.389-.366-.716-.625-.982-.258-.268-.559-.471-.903-.614-.344-.14-.702-.212-1.073-.212-.373 0-.729.072-1.068.212-.339.143-.641.346-.904.614-.262.266-.471.593-.625.982-.153.388-.23.829-.23 1.322s.077.935.23 1.323c.154.387.363.715.625.982.263.267.565.47.904.606.339.138.695.206 1.068.206.371 0 .729-.068 1.073-.206zm-2.099-1.473c-.247-.36-.37-.839-.37-1.438 0-.606.123-1.09.37-1.45.248-.359.588-.539 1.026-.539.436 0 .78.18 1.03.539.251.36.377.844.377 1.45 0 .599-.126 1.078-.377 1.438-.25.36-.594.54-1.03.54-.438 0-.778-.18-1.026-.54zm7.803 1.534 2.026-5.956h-1.347l-.945 3.094c-.09.291-.175.586-.255.885-.081.299-.166.603-.255.91h-.049c-.081-.307-.164-.611-.249-.91s-.168-.594-.248-.885l-.946-3.094h-1.42l2.075 5.956zm6.309-.036c.347-.121.663-.275.946-.461l-.473-.873c-.218.137-.438.244-.661.321-.222.077-.463.115-.721.115-.486 0-.884-.143-1.196-.43-.311-.287-.499-.698-.564-1.232h3.785c.017-.073.03-.17.043-.291.012-.121.018-.251.018-.388 0-.413-.053-.792-.158-1.14s-.26-.648-.466-.898c-.207-.25-.463-.445-.771-.583-.308-.137-.663-.206-1.067-.206-.348 0-.688.073-1.02.218-.331.147-.624.353-.879.619-.255.268-.459.595-.613.983-.153.388-.231.825-.231 1.31 0 .493.076.933.225 1.317.15.384.358.709.625.976s.578.471.934.613c.356.141.74.211 1.152.211.38 0 .744-.06 1.092-.181zm-2.184-4.61c.268-.25.578-.375.935-.375.412 0 .718.13.916.393.198.264.297.625.297 1.086h-2.645c.065-.485.231-.853.497-1.104zm5.879 4.646v-4.16c.461-.493.878-.74 1.25-.74.315 0 .548.101.697.302.15.203.225.551.225 1.044v3.554h1.395v-4.16c.46-.493.877-.74 1.25-.74.306 0 .535.101.685.302.15.203.224.551.224 1.044v3.554h1.407v-3.736c0-.76-.149-1.345-.448-1.753-.3-.408-.765-.613-1.396-.613-.38 0-.723.102-1.031.303-.308.203-.603.458-.886.765-.137-.34-.337-.603-.6-.788-.263-.187-.613-.28-1.049-.28-.372 0-.706.093-1.001.28-.295.185-.569.412-.82.679h-.047l-.097-.813h-1.153v5.956zm12.246-.036c.348-.121.663-.275.947-.461l-.473-.873c-.219.137-.44.244-.662.321s-.463.115-.721.115c-.485 0-.884-.143-1.195-.43-.312-.287-.5-.698-.565-1.232h3.785c.017-.073.031-.17.042-.291.013-.121.019-.251.019-.388 0-.413-.053-.792-.158-1.14s-.261-.648-.467-.898-.463-.445-.771-.583c-.306-.137-.663-.206-1.067-.206-.348 0-.687.073-1.018.218-.332.147-.625.353-.88.619-.255.268-.459.595-.613.983s-.23.825-.23 1.31c0 .493.074.933.224 1.317s.358.709.625.976.579.471.934.613c.356.141.74.211 1.152.211.38 0 .745-.06 1.092-.181zm-2.183-4.61c.266-.25.578-.375.934-.375.412 0 .717.13.915.393.198.264.298.625.298 1.086h-2.644c.064-.485.23-.853.497-1.104zm5.879 4.646v-4.16c.25-.243.474-.427.672-.553.199-.125.427-.187.686-.187.331 0 .57.101.716.302.145.203.218.551.218 1.044v3.554h1.395v-3.736c0-.76-.145-1.345-.436-1.753s-.757-.613-1.396-.613c-.412 0-.774.093-1.086.28-.31.185-.6.408-.867.667h-.048l-.098-.801h-1.152v5.956zm7.865.079c.206-.044.39-.095.552-.151l-.243-1.032c-.089.041-.188.074-.297.097-.109.025-.216.037-.322.037-.557 0-.837-.348-.837-1.044v-2.838h1.517v-1.104h-1.517v-1.626h-1.164l-.17 1.626-.922.06v1.044h.849v2.838c0 .325.034.618.104.88.068.263.177.489.327.68.149.189.343.337.582.442.239.106.532.157.88.157.234 0 .455-.021.661-.066z"/><path d="m492.652 47.395v-7.269h6.493v-3.562h-6.493v-4.339h7.585v-3.563h-11.809v18.733zm17.695-.158c.833-.335 1.57-.819 2.213-1.451.641-.632 1.153-1.412 1.536-2.342.383-.928.575-1.987.575-3.174 0-1.188-.192-2.245-.575-3.175-.383-.929-.895-1.709-1.536-2.342-.643-.632-1.38-1.115-2.213-1.45s-1.7-.503-2.599-.503c-.902 0-1.773.168-2.616.503-.842.335-1.585.818-2.226 1.45-.642.633-1.155 1.413-1.537 2.342-.384.93-.575 1.987-.575 3.175 0 1.187.191 2.246.575 3.174.382.93.895 1.71 1.537 2.342.641.632 1.384 1.116 2.226 1.451.843.335 1.714.503 2.616.503.899 0 1.766-.168 2.599-.503zm-4.568-4.008c-.431-.728-.647-1.714-.647-2.959s.216-2.232.647-2.959c.43-.729 1.087-1.092 1.969-1.092.861 0 1.512.363 1.953 1.092.44.727.661 1.714.661 2.959s-.221 2.231-.661 2.959c-.441.728-1.092 1.091-1.953 1.091-.882 0-1.539-.363-1.969-1.091zm17.488 3.893c.699-.412 1.356-.981 1.969-1.71h.086l.316 1.983h3.447v-14.25h-4.223v9.423c-.421.556-.815.958-1.178 1.207-.364.25-.814.374-1.351.374-.613 0-1.062-.192-1.349-.576-.288-.382-.432-1.09-.432-2.126v-8.302h-4.223v8.848c0 1.801.349 3.209 1.048 4.224.7 1.016 1.825 1.523 3.376 1.523.978 0 1.815-.206 2.514-.618zm12.622.273v-9.625c.459-.441.881-.781 1.264-1.02s.843-.359 1.38-.359c.612 0 1.057.191 1.336.574.277.384.416 1.093.416 2.127v8.303h4.223v-8.849c0-1.801-.349-3.208-1.049-4.224-.699-1.015-1.824-1.522-3.376-1.522-.976 0-1.829.215-2.556.646-.729.431-1.399.934-2.012 1.508h-.115l-.287-1.809h-3.447v14.25zm18.278-.158c.671-.335 1.254-.752 1.753-1.25h.115l.288 1.408h3.447v-20.141h-4.224v4.856l.173 2.183c-.498-.459-1.006-.822-1.523-1.092-.517-.267-1.178-.401-1.983-.401-.747 0-1.479.172-2.197.517-.719.344-1.35.838-1.896 1.479-.546.643-.988 1.423-1.322 2.342-.336.92-.503 1.964-.503 3.132 0 1.169.139 2.213.416 3.131.278.919.671 1.701 1.178 2.342.508.642 1.121 1.135 1.84 1.48.718.344 1.518.517 2.398.517.69 0 1.37-.168 2.04-.503zm-2.859-3.921c-.449-.652-.675-1.686-.675-3.104 0-1.359.259-2.36.777-3.002.516-.642 1.11-.963 1.781-.963.383 0 .775.068 1.178.201.402.134.795.373 1.177.719v5.832c-.344.479-.704.815-1.077 1.006s-.79.287-1.25.287c-.823 0-1.461-.325-1.911-.976zm16.831 3.921c.671-.335 1.313-.771 1.926-1.307h.114l.287 1.465h3.449v-8.16c0-2.202-.484-3.826-1.452-4.87-.966-1.044-2.37-1.565-4.209-1.565-1.129 0-2.197.172-3.203.517-1.006.344-1.968.794-2.887 1.35l1.522 2.787c.689-.402 1.336-.719 1.939-.948.604-.23 1.211-.345 1.825-.345.785 0 1.345.187 1.68.561.335.373.523.876.561 1.508-2.816.287-4.856.852-6.12 1.695s-1.896 2.011-1.896 3.505c0 .613.101 1.179.302 1.695.2.518.483.973.847 1.365.364.393.809.7 1.336.919.527.221 1.116.331 1.767.331.805 0 1.541-.168 2.212-.503zm-1.968-3.103c-.296-.22-.445-.561-.445-1.02 0-.555.287-1.035.862-1.436.575-.403 1.609-.709 3.103-.92v2.5c-.384.383-.747.68-1.092.891-.345.21-.757.316-1.235.316-.498 0-.896-.11-1.193-.331zm17.354 3.433c.517-.115.967-.23 1.35-.344l-.661-3.074c-.191.077-.407.143-.646.201-.239.057-.474.086-.704.086-.556 0-1.001-.177-1.336-.532-.335-.354-.503-.934-.503-1.738v-5.718h3.42v-3.303h-3.42v-3.793h-3.505l-.488 3.793-2.184.172v3.131h1.953v5.775c0 .824.091 1.576.274 2.256.181.68.468 1.259.862 1.738.393.479.9.852 1.522 1.12.623.269 1.374.403 2.256.403.69 0 1.292-.057 1.81-.173zm2.692-.172h4.224v-14.25h-4.224zm3.865-16.966c.449-.411.674-.943.674-1.594s-.225-1.179-.674-1.581c-.451-.401-1.04-.603-1.768-.603-.709 0-1.292.202-1.752.603-.46.402-.69.93-.69 1.581s.23 1.183.69 1.594c.46.412 1.043.618 1.752.618.728 0 1.317-.206 1.768-.618zm11.658 16.808c.833-.335 1.57-.819 2.213-1.451.641-.632 1.153-1.412 1.537-2.342.383-.928.574-1.987.574-3.174 0-1.188-.191-2.245-.574-3.175-.384-.929-.896-1.709-1.537-2.342-.643-.632-1.38-1.115-2.213-1.45s-1.7-.503-2.6-.503c-.901 0-1.772.168-2.614.503-.844.335-1.586.818-2.228 1.45-.641.633-1.154 1.413-1.537 2.342-.383.93-.574 1.987-.574 3.175 0 1.187.191 2.246.574 3.174.383.93.896 1.71 1.537 2.342.642.632 1.384 1.116 2.228 1.451.842.335 1.713.503 2.614.503.9 0 1.767-.168 2.6-.503zm-4.569-4.008c-.43-.728-.645-1.714-.645-2.959s.215-2.232.645-2.959c.432-.729 1.087-1.092 1.969-1.092.862 0 1.513.363 1.953 1.092.441.727.661 1.714.661 2.959s-.22 2.231-.661 2.959c-.44.728-1.091 1.091-1.953 1.091-.882 0-1.537-.363-1.969-1.091zm14.944 4.166v-9.625c.46-.441.881-.781 1.264-1.02s.842-.359 1.379-.359c.613 0 1.058.191 1.336.574.278.384.416 1.093.416 2.127v8.303h4.224v-8.849c0-1.801-.35-3.208-1.049-4.224-.699-1.015-1.824-1.522-3.376-1.522-.976 0-1.829.215-2.557.646s-1.398.934-2.01 1.508h-.116l-.288-1.809h-3.447v14.25z"/><path d="m373.746 28.689-21.659 32.852h101.309l21.648-32.852z"/></g><path d="m440.524 47.933 3.173-5.334h.054v5.334zm-62.315 6.647h4.871l7.33-10.614h.054v10.614h4.925l6.865-10.231c.794 1.094 2.025 1.641 3.283 2.161 1.751.712 3.474 1.177 3.474 2.708 0 1.067-.847 1.888-1.887 1.888-1.204 0-1.998-1.094-2.025-2.681h-.027l-4.95.875c.19 3.885 2.926 5.964 7.029 5.964 2.873 0 4.842-1.396 6.073-2.763 1.943-2.161 3.993-6.155 5.99-9.246l.028.027v11.298h4.103l7.988-11.434h.054v11.434h5.389l1.696-2.763h5.553v2.763h4.896v-19.148h-4.841l-7.796 11.352v-11.352h-4.842l-7.222 10.531h-.054v-10.531h-4.87l-6.838 10.531c-.821-1.23-1.915-2.024-3.857-2.845-1.915-.793-3.2-1.286-3.2-2.434 0-.876.793-1.56 1.695-1.56.986 0 1.56.521 1.779 1.888l4.869-.848c-.356-3.282-3.146-5.197-6.511-5.197-2.681 0-4.376.957-6.209 3.364-.603.793-3.748 5.608-5.607 8.426h-.055v-11.325h-4.487l-7.713 11.133h-.055v-11.133h-4.898z" fill="#fffffe"/></g></svg>