<svg height="26" viewBox="0 0 216 26" width="216" xmlns="http://www.w3.org/2000/svg" xmlns:xlink="http://www.w3.org/1999/xlink"><mask id="a" fill="#fff"><path d="m0 25.9401257h215.421773v-25.93982856h-215.421773z" fill="none"/></mask><g fill="#000" fill-rule="evenodd" opacity=".8" transform=""><path d="m67.7921567.62169714-1.0042887 2.24194286h2.0026392zm2.2409072 3.84948572h-.534433l-.5143917-1.16182857h-2.3901031l-.5203299 1.16182857h-.5091959l2.0018969-4.42668572h.4639175z" opacity=".7"/><path d="m74.384833.0754h.4824742v4.39548571h-.3956288l-2.835464-3.60434285v3.60434285h-.4832165v-4.39548571h.4639176l2.7679175 3.52337143z" opacity=".7"/><path d="m78.5438351 4.47155429h.495835v-4.39548572h-.495835z" opacity=".7"/><path d="m83.809633.0754h.4824742v4.39548571h-.3948866l-2.8362062-3.60434285v3.60434285h-.4832165v-4.39548571h.4639176l2.7679175 3.52337143z" opacity=".7"/><path d="m85.8336495 4.47155429h.495835v-4.39548572h-.495835z" opacity=".7"/><path d="m89.5310351 4.47162857h-.5017732v-3.93788571h-1.4748866v-.4576h3.4500618v.4576h-1.473402z" opacity=".7"/><path d="m92.2327423 4.47155429h.495835v-4.39548572h-.495835z" opacity=".7"/><path d="m96.1179216.62169714-1.0050309 2.24194286h2.0026392zm2.240165 3.84948572h-.5336907l-.515134-1.16182857h-2.3901031l-.5203299 1.16182857h-.5091959l2.0018969-4.42668572h.4639175z" opacity=".7"/><path d="m100.575835 4.47162857h-.502515v-3.93788571h-1.4741447v-.4576h3.4500617v.4576h-1.473402z" opacity=".7"/><path d="m103.276206 4.47155429h.496578v-4.39548572h-.496578z" opacity=".7"/><path d="m108.618309.0754h.532949l-1.88833 4.42742857h-.439423l-1.88833-4.42742857h.552248l1.562474 3.78708571z" opacity=".7"/><path d="m113.446689.52809714h-2.678103v1.50057143h2.396041v.4524h-2.396041v1.53771429h2.71002v.45314285h-3.205855v-4.39622857h3.173938z" opacity=".7"/><path d="m118.904214.45849143c-1.00503 0-1.719092.80377143-1.719092 1.80885714 0 1.00434286.728165 1.82074286 1.731711 1.82074286 1.004289 0 1.719093-.80377143 1.719093-1.80811429 0-1.00508571-.727423-1.82148571-1.731712-1.82148571m0 4.08794286c-1.336082 0-2.233484-1.04817143-2.233484-2.26645715 0-1.21828571.910021-2.27982857 2.246103-2.27982857 1.336825 0 2.233485 1.04891429 2.233485 2.2672 0 1.21828572-.909279 2.27908572-2.246104 2.27908572" opacity=".7"/><path d="m125.610012.53389143h-2.660288v1.56965714h2.378227v.4524h-2.378227v1.91508572h-.495835v-4.39548572h3.156123z" opacity=".7"/><path d="m0 2.40864h61.6535258v-.55714286h-61.6535258z" mask="url(#a)" opacity=".7"/><path d="m130.109938 2.40864h85.311835v-.55714286h-85.311835z" mask="url(#a)" opacity=".7"/><path d="m27.3508701 12.1642857h.4089897l1.2091546 3.6875429 1.2596289-3.6741715h.523299l-1.5758351 4.4422858h-.420866l-1.2091546-3.5790858-1.2158351 3.5790858h-.4156701l-1.5743505-4.4422858h.5418557l1.2596289 3.6741715z" mask="url(#a)" opacity=".7"/><path d="m31.3796784 15.6181257c0 .416.3778144.6552.8194639.6552.5975257 0 1.0881649-.3647428 1.0881649-.8817714v-.3149714c-.2390103-.0698286-.5611546-.1389143-.9567835-.1389143-.6108866 0-.9508453.2644571-.9508453.6804571m-.0564124-1.664-.1447423-.3966857c.3585155-.1641714.7118351-.2711429 1.1831753-.2711429.8884948 0 1.3850721.4538858 1.3850721 1.3111429v1.9916h-.4646598v-.4910286c-.227134.2949143-.6049484.5601143-1.1772371.5601143-.6056907 0-1.2165773-.3402286-1.2165773-1.0214286 0-.6930857.5670928-1.0585714 1.3917526-1.0585714.4156701 0 .711835.0572 1.0020618.1389143v-.1136571c0-.5861143-.3592577-.8884572-.9708866-.8884572-.3837525 0-.6858556.1010286-.9879587.2392" mask="url(#a)" opacity=".7"/><path d="m35.8593402 16.6518857c-.4654021 0-.9812783-.1827428-1.3464742-.4791428l.2456907-.3461715c.3518351.2644572.7430103.4152572 1.1267629.4152572.390433 0 .6732371-.2013143.6732371-.5162857v-.0126286c0-.3283429-.3844948-.4538857-.811299-.5734857-.5114226-.1441143-1.0777732-.3216572-1.0777732-.9204v-.0126286c0-.5608571.4654021-.9322857 1.1089485-.9322857.3956289 0 .8372783.1381714 1.171299.3595428l-.2204536.3647429c-.3021031-.1953714-.6494846-.3149714-.9642062-.3149714-.3844949 0-.6301856.2013143-.6301856.4724571v.0126286c0 .3090286.4030515.4286286.8380206.5608571.504.1515429 1.0458557.3469143 1.0458557.9330286v.0126286c0 .6173143-.5099382.9768571-1.1594227.9768571" mask="url(#a)" opacity=".7"/><path d="m38.4065814 16.5887429h-.4839587v-4.6005143h.4839587v1.9091428c.2145155-.3528571.5544743-.6358857 1.1148866-.6358857.7875464 0 1.2470104.5289143 1.2470104 1.3044572v2.0228h-.4861856v-1.9032c0-.6046858-.326598-.9835429-.9003712-.9835429-.5589278 0-.9753402.4100571-.9753402 1.0214286z" mask="url(#a)" opacity=".7"/><path d="m41.8483299 16.5882971h.4839588v-3.2581714h-.4839588zm-.0319175-3.9698285h.5552165v-.5356h-.5552165z" mask="url(#a)" opacity=".7"/><path d="m43.9460536 16.5887429h-.4839588v-3.2581715h.4839588v.5668c.2145155-.3528571.5544742-.6358857 1.1148866-.6358857.7875464 0 1.2470103.5289143 1.2470103 1.3044572v2.0228h-.4861856v-1.9032c0-.6046858-.3265979-.9835429-.9003711-.9835429-.5589278 0-.9753402.4100571-.9753402 1.0214286z" mask="url(#a)" opacity=".7"/><path d="m48.7794804 13.6898914c-.617567 0-1.1282474.4219429-1.1282474 1.1024 0 .6685715.5240412 1.1157715 1.1282474 1.1157715.6168248 0 1.1957938-.4412572 1.1957938-1.1090858 0-.6745142-.578969-1.1090857-1.1957938-1.1090857m.0059382 3.9200572c-.5411134 0-1.0451134-.1515429-1.478598-.4538857l.2197114-.3781143c.371134.2704.7868041.416 1.2529484.416.7177732 0 1.1846598-.3974286 1.1846598-1.1596v-.3848c-.2842887.3781143-.6799175.6871428-1.2789278.6871428-.7816083 0-1.5305567-.5801714-1.5305567-1.5317714 0-.9575429.7556288-1.5436571 1.5305567-1.5436571.6101443 0 1.0072577.3023428 1.2715051.6552v-.5861143h.4854433v2.6913714c0 1.0526286-.6554227 1.5882286-1.6567422 1.5882286" mask="url(#a)" opacity=".7"/><path d="m52.1834474 15.6624c0 .3966857.2204536.5415429.5470516.5415429.1647835 0 .3035876-.0312.473567-.1129143v.416c-.1699794.0876571-.3540619.1381714-.587134.1381714-.5218145 0-.9181856-.2577714-.9181856-.9196571v-1.9670858h-.454268v-.4278857h.454268v-.9828h.484701v.9828h1.0332371v.4278857h-1.0332371z" mask="url(#a)" opacity=".7"/><path d="m55.467167 13.6898914c-.7051546 0-1.1905979.5608572-1.1905979 1.2665715 0 .7057142.5166185 1.2732571 1.2039587 1.2732571.7044124 0 1.1957938-.5608571 1.1957938-1.2606286 0-.7124-.5225567-1.2792-1.2091546-1.2792m0 2.9744c-.9753402 0-1.6871752-.7688571-1.6871752-1.6952 0-.9263428.7170309-1.7078285 1.700536-1.7078285.9753402 0 1.6931134.7688571 1.6931134 1.6952 0 .9263428-.7244536 1.7078285-1.7064742 1.7078285" mask="url(#a)" opacity=".7"/><path d="m58.5369649 16.5887429h-.484701v-3.2581715h.484701v.5668c.2145155-.3528571.5544743-.6358857 1.1148866-.6358857.7868042 0 1.2477526.5289143 1.2477526 1.3044572v2.0228h-.4861855v-1.9032c0-.6046858-.3273402-.9835429-.9003712-.9835429-.5604123 0-.9760825.4100571-.9760825 1.0214286z" mask="url(#a)" opacity=".7"/><path d="m65.4877856 14.1432571c.9827629.2146858 1.4362886.5734858 1.4362886 1.2539429 0 .7629143-.6301855 1.2546857-1.5060618 1.2546857-.6984743 0-1.2722475-.2332571-1.8014846-.7057143l.3095258-.3654857c.4602062.416.8996289.6232572 1.5112577.6232572.5915877 0 .9827629-.3082858.9827629-.7562286 0-.416-.2204536-.6485143-1.1468041-.8438857-1.0131959-.2206286-1.4800825-.5489715-1.4800825-1.2799429 0-.7057143.6116289-1.2093714 1.448165-1.2093714.6435464 0 1.102268.1827428 1.5498556.5415428l-.2902268.3848c-.4097319-.3342857-.8179793-.4791428-1.2722474-.4791428-.5730309 0-.9374845.3149714-.9374845.7183428 0 .4219429.2263917.6552 1.1965361.8632" mask="url(#a)" opacity=".7"/><path d="m68.4829113 15.6624c0 .3966857.2204536.5415429.5477939.5415429.1640412 0 .3028453-.0312.4728247-.1129143v.416c-.1699794.0876571-.3540619.1381714-.5863918.1381714-.5225567 0-.9181855-.2577714-.9181855-.9196571v-1.9670858h-.4542681v-.4278857h.4542681v-.9828h.4839587v.9828h1.0339794v.4278857h-1.0339794z" mask="url(#a)" opacity=".7"/><path d="m70.6198268 15.6181257c0 .416.3778144.6552.8194639.6552.5975258 0 1.088165-.3647428 1.088165-.8817714v-.3149714c-.2390103-.0698286-.5611547-.1389143-.9567835-.1389143-.6108866 0-.9508454.2644571-.9508454.6804571m-.0564124-1.664-.1447422-.3966857c.3585154-.1641714.711835-.2711429 1.182433-.2711429.8892371 0 1.3858144.4538858 1.3858144 1.3111429v1.9916h-.4646598v-.4910286c-.227134.2949143-.6049485.5601143-1.1772371.5601143-.6056907 0-1.2165773-.3402286-1.2165773-1.0214286 0-.6930857.5670927-1.0585714 1.3917525-1.0585714.4156701 0 .7118351.0572 1.0020619.1389143v-.1136571c0-.5861143-.3592577-.8884572-.9708866-.8884572-.3837526 0-.6858557.1010286-.9879588.2392" mask="url(#a)" opacity=".7"/><path d="m74.6472247 15.6624c0 .3966857.2204537.5415429.5477939.5415429.1640412 0 .3028453-.0312.4728247-.1129143v.416c-.1699794.0876571-.3540619.1381714-.5863918.1381714-.5225567 0-.9181855-.2577714-.9181855-.9196571v-1.9670858h-.4542681v-.4278857h.4542681v-.9828h.4839587v.9828h1.0339794v.4278857h-1.0339794z" mask="url(#a)" opacity=".7"/><path d="m78.831167 14.7795143c-.0497319-.5920572-.3896907-1.1083429-1.038433-1.1083429-.5663505 0-.9953814.4724572-1.0577319 1.1083429zm-.9508454 1.4626857c.4468454 0 .7623093-.1827429 1.027299-.4598286l.3021031.2711429c-.3280825.3647428-.7237113.6106286-1.3412783.6106286-.894433 0-1.6248248-.6871429-1.6248248-1.7018858 0-.9441714.6606186-1.7011428 1.5609897-1.7011428.9642062 0 1.5179382.7688571 1.5179382 1.7264 0 .0445714 0 .0943428-.0066805.1515428h-2.5808659c.0697732.7064572.5722886 1.1031429 1.1453195 1.1031429z" mask="url(#a)" opacity=".7"/><path d="m25.1776577 21.6991543v1.9849143h-.4973196v-4.4110857h.4973196v1.9604h2.5444949v-1.9604h.4980618v4.4110857h-.4980618v-1.9849143z" mask="url(#a)" opacity=".7"/><path d="m30.8751588 20.7850686c-.7058969 0-1.190598.5616-1.190598 1.2680571 0 .7049714.5166186 1.2725143 1.2032165 1.2725143.7051547 0 1.1965361-.5616 1.1965361-1.2606286 0-.7124-.523299-1.2799428-1.2091546-1.2799428m0 2.9758857c-.9760825 0-1.6879176-.7688572-1.6879176-1.6959429 0-.9256.717031-1.7078285 1.7005361-1.7078285.9760825 0 1.6938557.7688571 1.6938557 1.6959428 0 .9256-.7251959 1.7078286-1.7064742 1.7078286" mask="url(#a)" opacity=".7"/><path d="m34.5364701 23.7478057c-.4654021 0-.9820206-.1827428-1.3472165-.4791428l.246433-.3461715c.351835.2637143.742268.4145143 1.1260206.4145143.390433 0 .6739794-.1998286.6739794-.5148v-.0133714c0-.3276-.3844948-.4538857-.811299-.5727429-.5114227-.1448571-1.0785154-.3224-1.0785154-.9211428v-.0133715c0-.5601142.4661443-.9315428 1.1089484-.9315428.3963712 0 .8380206.1381714 1.171299.3588l-.2204536.3654857c-.3013608-.1961143-.6487423-.3149714-.9634639-.3149714-.3852372 0-.6301856.2013143-.6301856.4732v.0111428c0 .3090286.4030515.4293715.8380206.5616.504.1508 1.0458557.3469143 1.0458557.9330286v.0133714c0 .6165715-.5106804.9761143-1.1594227.9761143" mask="url(#a)" opacity=".7"/><path d="m38.2420206 20.7923486c-.6034639 0-1.1772371.5036571-1.1772371 1.2606285 0 .7621715.5737732 1.2665715 1.1772371 1.2665715.6301856 0 1.1460619-.4672572 1.1460619-1.2606286 0-.7748-.5284949-1.2665714-1.1460619-1.2665714m.0883299 2.9610285c-.6049484 0-.9953814-.3276-1.2477526-.6930857v1.6320572h-.4839587v-4.2654857h.4839587v.6544571c.2649897-.3907429.6494846-.7242857 1.2477526-.7242857.780866 0 1.5550516.6180571 1.5550516 1.6959428 0 1.0712-.7682475 1.7004-1.5550516 1.7004" mask="url(#a)" opacity=".7"/><path d="m40.8277113 23.6855543h.4839588v-3.2589143h-.4839588zm-.0319175-3.9713143h.5552165v-.5356h-.5552165z" mask="url(#a)" opacity=".7"/><path d="m43.0950433 22.75832c0 .3974286.2204536.5415429.5477938.5415429.1640413 0 .3028454-.0304572.4728248-.1136572v.4167429c-.1699794.0884-.3533196.1374285-.5856495.1374285-.523299 0-.9189279-.2562857-.9189279-.9181714v-1.9678286h-.454268v-.4278857h.454268v-.9828h.4839588v.9828h1.0339794v.4278857h-1.0339794z" mask="url(#a)" opacity=".7"/><path d="m45.232701 22.7133029c0 .4167428.3778145.6559428.8187217.6559428.598268 0 1.0881649-.3654857 1.0881649-.8825143v-.3149714c-.238268-.0690857-.5596701-.1374286-.9560412-.1374286-.6108866 0-.9508454.2637143-.9508454.6789715m-.0564123-1.6625143-.1447423-.3974286c.3585155-.1641714.7110928-.2718857 1.1831752-.2718857.8892372 0 1.3858145.4546286 1.3858145 1.3104v1.9938286h-.4661443v-.4925143c-.2263918.2964-.6042062.5601143-1.1772372.5601143-.6049484 0-1.215835-.3394858-1.215835-1.0214286 0-.6916.567835-1.0570857 1.3917526-1.0570857.4149278 0 .711835.0564571 1.0013196.1374285v-.1129142c0-.5861143-.3585155-.8884572-.9701444-.8884572-.3844948 0-.6858556.1002857-.9879587.2399429" mask="url(#a)" opacity=".7"/><path d="m48.6809072 23.6855543h.4839588v-4.6012572h-.4839588z" mask="url(#a)" opacity=".7"/><path d="m54.1239588 19.8217314-1.0065155 2.2501143h2.0078351zm2.2475876 3.8636h-.534433l-.5166186-1.1662857h-2.3997525l-.5225567 1.1662857h-.5106804l2.0093195-4.4437714h.4654021z" mask="url(#a)" opacity=".7"/><path d="m58.2397608 23.7478057c-.465402 0-.9820206-.1827428-1.3472165-.4791428l.246433-.3461715c.3518351.2637143.7422681.4145143 1.1260206.4145143.390433 0 .6739794-.1998286.6739794-.5148v-.0133714c0-.3276-.3844948-.4538857-.8112989-.5727429-.5114227-.1448571-1.0785155-.3224-1.0785155-.9211428v-.0133715c0-.5601142.4661443-.9315428 1.1089484-.9315428.3963712 0 .8380207.1381714 1.171299.3588l-.2204536.3654857c-.3013608-.1961143-.6487423-.3149714-.9634639-.3149714-.3852371 0-.6301856.2013143-.6301856.4732v.0111428c0 .3090286.4030516.4293715.8380206.5616.504.1508 1.0458557.3469143 1.0458557.9330286v.0133714c0 .6165715-.5106804.9761143-1.1594227.9761143" mask="url(#a)" opacity=".7"/><path d="m61.3154227 23.7478057c-.4654021 0-.9820206-.1827428-1.3464742-.4791428l.2449484-.3461715c.3525773.2637143.7437526.4145143 1.1267629.4145143.3911753 0 .6732371-.1998286.6732371-.5148v-.0133714c0-.3276-.3837526-.4538857-.811299-.5727429-.5106804-.1448571-1.0777732-.3224-1.0777732-.9211428v-.0133715c0-.5601142.4654021-.9315428 1.1096908-.9315428.3956288 0 .836536.1381714 1.1705567.3588l-.2204536.3654857c-.3021031-.1961143-.6487423-.3149714-.963464-.3149714-.3844948 0-.6309278.2013143-.6309278.4732v.0111428c0 .3090286.4030516.4293715.8380206.5616.5047423.1508 1.0458557.3469143 1.0458557.9330286v.0133714c0 .6165715-.5099382.9761143-1.1586804.9761143" mask="url(#a)" opacity=".7"/><path d="m64.8629443 20.7850686c-.7044123 0-1.1905979.5616-1.1905979 1.2680571 0 .7049714.5166185 1.2725143 1.2039588 1.2725143.7044123 0 1.1957938-.5616 1.1957938-1.2606286 0-.7124-.5218145-1.2799428-1.2091547-1.2799428m0 2.9758857c-.9753402 0-1.6871752-.7688572-1.6871752-1.6959429 0-.9256.7170309-1.7078285 1.7005361-1.7078285.9753402 0 1.6931134.7688571 1.6931134 1.6959428 0 .9256-.7237114 1.7078286-1.7064743 1.7078286" mask="url(#a)" opacity=".7"/><path d="m68.9163959 23.76088c-.9508454 0-1.6701031-.7762857-1.6701031-1.6959429 0-.9256.7192577-1.7078285 1.6701031-1.7078285.6160825 0 1.0013196.2585143 1.3034227.5801714l-.3221444.3394857c-.2568247-.2711428-.5477938-.4917714-.988701-.4917714-.6598763 0-1.1638763.5616-1.1638763 1.2680571 0 .7109143.5158763 1.2725143 1.1957938 1.2725143.4164124 0 .7363299-.2087428.9946392-.4858286l.3087835.2897143c-.3265979.3662286-.7177732.6314286-1.3279175.6314286" mask="url(#a)" opacity=".7"/><path d="m71.0907216 23.6855543h.4839588v-3.2589143h-.4839588zm-.0311752-3.9713143h.5544742v-.5356h-.5544742z" mask="url(#a)" opacity=".7"/><path d="m72.9503258 22.7133029c0 .4167428.3778144.6559428.8187216.6559428.5982681 0 1.088165-.3654857 1.088165-.8825143v-.3149714c-.2382681-.0690857-.5596701-.1374286-.9560413-.1374286-.6108866 0-.9508453.2637143-.9508453.6789715m-.0564124-1.6625143-.1447423-.3974286c.3585155-.1641714.7110928-.2718857 1.1831753-.2718857.8892371 0 1.3858144.4546286 1.3858144 1.3104v1.9938286h-.4661443v-.4925143c-.2263918.2964-.6042062.5601143-1.1772371.5601143-.6049485 0-1.2158351-.3394858-1.2158351-1.0214286 0-.6916.5678351-1.0570857 1.3917526-1.0570857.4149278 0 .7118351.0564571 1.0013196.1374285v-.1129142c0-.5861143-.3585155-.8884572-.9701443-.8884572-.3844949 0-.6858557.1002857-.9879588.2399429" mask="url(#a)" opacity=".7"/><path d="m76.9783918 22.75832c0 .3974286.2204536.5415429.5470515.5415429.1647835 0 .3035876-.0304572.473567-.1136572v.4167429c-.1699794.0884-.3540618.1374285-.587134.1374285-.5218144 0-.9181856-.2562857-.9181856-.9181714v-1.9678286h-.454268v-.4278857h.454268v-.9828h.4847011v.9828h1.0332371v.4278857h-1.0332371z" mask="url(#a)" opacity=".7"/><path d="m78.9134845 23.6855543h.4839588v-3.2589143h-.4839588zm-.0319175-3.9713143h.5544742v-.5356h-.5544742z" mask="url(#a)" opacity=".7"/><path d="m82.0133443 20.7850686c-.7058969 0-1.1905979.5616-1.1905979 1.2680571 0 .7049714.5166185 1.2725143 1.2032165 1.2725143.7051546 0 1.1965361-.5616 1.1965361-1.2606286 0-.7124-.523299-1.2799428-1.2091547-1.2799428m0 2.9758857c-.9760824 0-1.6879175-.7688572-1.6879175-1.6959429 0-.9256.7170309-1.7078285 1.7005361-1.7078285.9760825 0 1.6938557.7688571 1.6938557 1.6959428 0 .9256-.7251959 1.7078286-1.7064743 1.7078286" mask="url(#a)" opacity=".7"/><path d="m85.0824742 23.6839943h-.4839587v-3.2574286h.4839587v.5675429c.2145155-.3543429.5552165-.6373715 1.1148866-.6373715.7875464 0 1.2477526.5296572 1.2477526 1.3044572v2.0228h-.4861856v-1.9024572c0-.6046857-.3265979-.9835428-.9003711-.9835428-.5596701 0-.9760825.4093143-.9760825 1.0214286z" mask="url(#a)" opacity=".7"/><path d="m154.529443 12.1642857h.40899l1.209155 3.6875429 1.259628-3.6741715h.522557l-1.57435 4.4422858h-.421609l-1.209154-3.5790858-1.215835 3.5790858h-.41567l-1.574351-4.4422858h.541856l1.258886 3.6741715z" mask="url(#a)" opacity=".7"/><path d="m158.558326 15.6181257c0 .416.377814.6552.818721.6552.598268 0 1.088908-.3647428 1.088908-.8817714v-.3149714c-.239011-.0698286-.560413-.1389143-.956784-.1389143-.610886 0-.950845.2644571-.950845.6804571m-.056413-1.664-.144742-.3966857c.358516-.1641714.711093-.2711429 1.183175-.2711429.888495 0 1.385815.4538858 1.385815 1.3111429v1.9916h-.466145v-.4910286c-.226391.2949143-.604206.5601143-1.177237.5601143-.604948 0-1.215835-.3402286-1.215835-1.0214286 0-.6930857.567093-1.0585714 1.391753-1.0585714.41567 0 .711835.0572 1.001319.1389143v-.1136571c0-.5861143-.358515-.8884572-.970144-.8884572-.383752 0-.685856.1010286-.987959.2392" mask="url(#a)" opacity=".7"/><path d="m163.037988 16.6518857c-.465402 0-.981279-.1827428-1.346475-.4791428l.245691-.3461715c.351835.2644572.74301.4152572 1.126021.4152572.391175 0 .673979-.2013143.673979-.5162857v-.0126286c0-.3283429-.383752-.4538857-.811299-.5734857-.511423-.1441143-1.077773-.3216572-1.077773-.9204v-.0126286c0-.5608571.465402-.9322857 1.108948-.9322857.396372 0 .837279.1381714 1.171299.3595428l-.220453.3647429c-.302103-.1953714-.648742-.3149714-.964206-.3149714-.384495 0-.630186.2013143-.630186.4724571v.0126286c0 .3090286.403052.4286286.838021.5608571.504.1515429 1.045855.3469143 1.045855.9330286v.0126286c0 .6173143-.51068.9768571-1.159422.9768571" mask="url(#a)" opacity=".7"/><path d="m165.585229 16.5887429h-.484701v-4.6005143h.484701v1.9091428c.214515-.3528571.554474-.6358857 1.114886-.6358857.786805 0 1.247011.5289143 1.247011 1.3044572v2.0228h-.485444v-1.9032c0-.6046858-.32734-.9835429-.900371-.9835429-.560412 0-.976082.4100571-.976082 1.0214286z" mask="url(#a)" opacity=".7"/><path d="m169.027052 16.5882971h.483958v-3.2581714h-.483958zm-.031918-3.9698285h.553732v-.5356h-.553732z" mask="url(#a)" opacity=".7"/><path d="m171.124701 16.5887429h-.484701v-3.2581715h.484701v.5668c.214515-.3528571.554474-.6358857 1.114887-.6358857.787546 0 1.24701.5289143 1.24701 1.3044572v2.0228h-.485443v-1.9032c0-.6046858-.327341-.9835429-.900371-.9835429-.560413 0-.976083.4100571-.976083 1.0214286z" mask="url(#a)" opacity=".7"/><path d="m175.958128 13.6898914c-.617567 0-1.127505.4219429-1.127505 1.1024 0 .6685715.523299 1.1157715 1.127505 1.1157715.616825 0 1.196536-.4412572 1.196536-1.1090858 0-.6745142-.579711-1.1090857-1.196536-1.1090857m.005938 3.9200572c-.541113 0-1.045113-.1515429-1.47934-.4538857l.220453-.3781143c.371134.2704.786805.416 1.252949.416.717773 0 1.183917-.3974286 1.183917-1.1596v-.3848c-.283546.3781143-.679917.6871428-1.278185.6871428-.780866 0-1.530557-.5801714-1.530557-1.5317714 0-.9575429.755629-1.5436571 1.530557-1.5436571.610144 0 1.007258.3023428 1.271505.6552v-.5861143h.485443v2.6913714c0 1.0526286-.655422 1.5882286-1.656742 1.5882286" mask="url(#a)" opacity=".7"/><path d="m179.361353 15.6624c0 .3966857.221195.5415429.547793.5415429.164042 0 .302846-.0312.472825-.1129143v.416c-.169979.0876571-.353319.1381714-.586392.1381714-.521814 0-.918185-.2577714-.918185-.9196571v-1.9670858h-.454268v-.4278857h.454268v-.9828h.483959v.9828h1.033979v.4278857h-1.033979z" mask="url(#a)" opacity=".7"/><path d="m182.645814 13.6898914c-.705154 0-1.190598.5608572-1.190598 1.2665715 0 .7057142.516619 1.2732571 1.203217 1.2732571.705155 0 1.196536-.5608571 1.196536-1.2606286 0-.7124-.522557-1.2792-1.209155-1.2792m0 2.9744c-.976082 0-1.687917-.7688571-1.687917-1.6952 0-.9263428.717773-1.7078285 1.700536-1.7078285.976082 0 1.693856.7688571 1.693856 1.6952 0 .9263428-.724454 1.7078285-1.706475 1.7078285" mask="url(#a)" opacity=".7"/><path d="m185.715612 16.5887429h-.484701v-3.2581715h.484701v.5668c.214516-.3528571.554475-.6358857 1.114887-.6358857.786804 0 1.24701.5289143 1.24701 1.3044572v2.0228h-.485443v-1.9032c0-.6046858-.32734-.9835429-.900371-.9835429-.560413 0-.976083.4100571-.976083 1.0214286z" mask="url(#a)" opacity=".7"/><path d="m192.666433 14.1432571c.982021.2146858 1.436289.5734858 1.436289 1.2539429 0 .7629143-.630186 1.2546857-1.506062 1.2546857-.698474 0-1.272248-.2332571-1.801485-.7057143l.309526-.3654857c.460206.416.899629.6232572 1.511258.6232572.591587 0 .982763-.3082858.982763-.7562286 0-.416-.220454-.6485143-1.146804-.8438857-1.013196-.2206286-1.479341-.5489715-1.479341-1.2799429 0-.7057143.610887-1.2093714 1.448165-1.2093714.642062 0 1.101526.1827428 1.549114.5415428l-.290227.3848c-.409732-.3342857-.81798-.4791428-1.272248-.4791428-.572288 0-.937484.3149714-.937484.7183428 0 .4219429.226392.6552 1.196536.8632" mask="url(#a)" opacity=".7"/><path d="m195.661559 15.6624c0 .3966857.220453.5415429.547794.5415429.164041 0 .302845-.0312.472824-.1129143v.416c-.169979.0876571-.353319.1381714-.586391.1381714-.522557 0-.918928-.2577714-.918928-.9196571v-1.9670858h-.453526v-.4278857h.453526v-.9828h.484701v.9828h1.033237v.4278857h-1.033237z" mask="url(#a)" opacity=".7"/><path d="m197.798474 15.6181257c0 .416.377815.6552.818722.6552.598268 0 1.088907-.3647428 1.088907-.8817714v-.3149714c-.23901-.0698286-.561155-.1389143-.956783-.1389143-.610887 0-.950846.2644571-.950846.6804571m-.056412-1.664-.144742-.3966857c.358515-.1641714.711092-.2711429 1.183175-.2711429.888495 0 1.385072.4538858 1.385072 1.3111429v1.9916h-.465402v-.4910286c-.226392.2949143-.604206.5601143-1.177237.5601143-.604949 0-1.215835-.3402286-1.215835-1.0214286 0-.6930857.567093-1.0585714 1.391752-1.0585714.41567 0 .711835.0572 1.00132.1389143v-.1136571c0-.5861143-.358516-.8884572-.970144-.8884572-.383753 0-.685856.1010286-.987959.2392" mask="url(#a)" opacity=".7"/><path d="m201.825872 15.6624c0 .3966857.220454.5415429.547794.5415429.164041 0 .302845-.0312.472825-.1129143v.416c-.16998.0876571-.35332.1381714-.586392.1381714-.522557 0-.918928-.2577714-.918928-.9196571v-1.9670858h-.453526v-.4278857h.453526v-.9828h.484701v.9828h1.033237v.4278857h-1.033237z" mask="url(#a)" opacity=".7"/><path d="m206.009814 14.7795143c-.049732-.5920572-.38969-1.1083429-1.038433-1.1083429-.56635 0-.994639.4724572-1.057732 1.1083429zm-.950103 1.4626857c.446103 0 .761567-.1827429 1.026557-.4598286l.302103.2711429c-.328082.3647428-.724453.6106286-1.34202.6106286-.893691 0-1.624083-.6871429-1.624083-1.7018858 0-.9441714.660619-1.7011428 1.56099-1.7011428.964206 0 1.517938.7688571 1.517938 1.7264 0 .0445714 0 .0943428-.006681.1515428h-2.580866c.069774.7064572.572289 1.1031429 1.146062 1.1031429z" mask="url(#a)" opacity=".7"/><path d="m153.974969 22.4739543h-.025237l-1.605526-2.3563429v3.5679429h-.485443v-4.4125714h.504l1.606268 2.4076 1.605526-2.4076h.503257v4.4125714h-.496577v-3.5753714z" mask="url(#a)" opacity=".7"/><path d="m159.634021 21.8761771c-.049732-.5920571-.389691-1.1098285-1.038433-1.1098285-.566351 0-.99464.4732-1.057732 1.1098285zm-.950103 1.4612c.446103 0 .761567-.1812571 1.026556-.4598285l.302103.2711428c-.328082.3654857-.724453.6121143-1.34202.6121143-.893691 0-1.624083-.6878857-1.624083-1.7018857 0-.9456571.660619-1.7018857 1.56099-1.7018857.964206 0 1.517938.7688571 1.517938 1.7264 0 .0438286 0 .0943428-.00668.1522857h-2.580866c.069773.7057143.572288 1.1016571 1.146062 1.1016571z" mask="url(#a)" opacity=".7"/><path d="m162.433485 20.7923486c-.630186 0-1.146062.4657714-1.146062 1.2606285 0 .7748.528495 1.2665715 1.146062 1.2665715.604206 0 1.177237-.5044 1.177237-1.2665715 0-.7569714-.573031-1.2606285-1.177237-1.2606285zm1.15868 2.8919428v-.6544571c-.264247.39-.648742.7235428-1.24701.7235428-.780866 0-1.555052-.6165714-1.555052-1.6944571 0-1.0719429.774186-1.7018857 1.555052-1.7018857.604948 0 .995381.3276 1.24701.6938286v-1.9663429h.484701v4.5997714z" mask="url(#a)" opacity=".7"/><path d="m165.20734 23.6855543h.484701v-3.2589143h-.484701zm-.031175-3.9713143h.554474v-.5356h-.554474z" mask="url(#a)" opacity=".7"/><path d="m168.289014 23.76088c-.950845 0-1.66936-.7762857-1.66936-1.6959429 0-.9256.718515-1.7078285 1.66936-1.7078285.616083 0 1.00132.2585143 1.303423.5801714l-.322144.3394857c-.256825-.2711428-.547052-.4917714-.988701-.4917714-.659877 0-1.163877.5616-1.163877 1.2680571 0 .7109143.515877 1.2725143 1.195794 1.2725143.416413 0 .73633-.2087428.994639-.4858286l.308784.2897143c-.326598.3662286-.717773.6314286-1.327918.6314286" mask="url(#a)" opacity=".7"/><path d="m170.665089 22.7133029c0 .4167428.378556.6559428.819464.6559428.597525 0 1.088907-.3654857 1.088907-.8825143v-.3149714c-.239753-.0690857-.561155-.1374286-.957526-.1374286-.610887 0-.950845.2637143-.950845.6789715m-.056413-1.6625143-.144742-.3974286c.359258-.1641714.711835-.2718857 1.183175-.2718857.889237 0 1.385815.4546286 1.385815 1.3104v1.9938286h-.465402v-.4925143c-.226392.2964-.604949.5601143-1.177237.5601143-.605691 0-1.215836-.3394858-1.215836-1.0214286 0-.6916.567093-1.0570857 1.391753-1.0570857.414928 0 .711835.0564571 1.00132.1374285v-.1129142c0-.5861143-.359258-.8884572-.970145-.8884572-.384495 0-.686598.1002857-.988701.2399429" mask="url(#a)" opacity=".7"/><path d="m174.11233 23.6855543h.484701v-4.6012572h-.484701z" mask="url(#a)" opacity=".7"/><path d="m179.556346 19.8217314-1.006515 2.2501143h2.008577zm2.24833 3.8636h-.534433l-.517361-1.1662857h-2.39901l-.522557 1.1662857h-.51068l2.008577-4.4437714h.466145z" mask="url(#a)" opacity=".7"/><path d="m183.672891 23.7478057c-.465402 0-.982021-.1827428-1.347217-.4791428l.245691-.3461715c.352577.2637143.74301.4145143 1.126763.4145143.390433 0 .673979-.1998286.673979-.5148v-.0133714c0-.3276-.384495-.4538857-.812041-.5727429-.51068-.1448571-1.077773-.3224-1.077773-.9211428v-.0133715c0-.5601142.466144-.9315428 1.108948-.9315428.396371 0 .837279.1381714 1.171299.3588l-.220453.3654857c-.302103-.1961143-.648743-.3149714-.963464-.3149714-.384495 0-.630186.2013143-.630186.4732v.0111428c0 .3090286.403052.4293715.838021.5616.504.1508 1.045855.3469143 1.045855.9330286v.0133714c0 .6165715-.51068.9761143-1.159422.9761143" mask="url(#a)" opacity=".7"/><path d="m186.74781 23.7478057c-.465402 0-.981278-.1827428-1.346474-.4791428l.245691-.3461715c.351835.2637143.74301.4145143 1.12602.4145143.391176 0 .67398-.1998286.67398-.5148v-.0133714c0-.3276-.383753-.4538857-.811299-.5727429-.511423-.1448571-1.077773-.3224-1.077773-.9211428v-.0133715c0-.5601142.465402-.9315428 1.108948-.9315428.396371 0 .837278.1381714 1.171299.3588l-.220454.3654857c-.302103-.1961143-.648742-.3149714-.964206-.3149714-.384495 0-.630185.2013143-.630185.4732v.0111428c0 .3090286.403051.4293715.83802.5616.504.1508 1.045856.3469143 1.045856.9330286v.0133714c0 .6165715-.51068.9761143-1.159423.9761143" mask="url(#a)" opacity=".7"/><path d="m190.296074 20.7850686c-.704412 0-1.190598.5616-1.190598 1.2680571 0 .7049714.517361 1.2725143 1.203959 1.2725143.705155 0 1.196536-.5616 1.196536-1.2606286 0-.7124-.522557-1.2799428-1.209897-1.2799428m0 2.9758857c-.97534 0-1.687175-.7688572-1.687175-1.6959429 0-.9256.717031-1.7078285 1.700536-1.7078285.97534 0 1.693856.7688571 1.693856 1.6959428 0 .9256-.725196 1.7078286-1.707217 1.7078286" mask="url(#a)" opacity=".7"/><path d="m194.348858 23.76088c-.950846 0-1.669361-.7762857-1.669361-1.6959429 0-.9256.718515-1.7078285 1.669361-1.7078285.616824 0 1.001319.2585143 1.303422.5801714l-.321402.3394857c-.257567-.2711428-.547793-.4917714-.988701-.4917714-.660618 0-1.164618.5616-1.164618 1.2680571 0 .7109143.516618 1.2725143 1.196536 1.2725143.41567 0 .73633-.2087428.994639-.4858286l.308784.2897143c-.327341.3662286-.717774.6314286-1.32866.6314286" mask="url(#a)" opacity=".7"/><path d="m196.525113 23.6855543h.483959v-3.2589143h-.483959zm-.031917-3.9713143h.554474v-.5356h-.554474z" mask="url(#a)" opacity=".7"/><path d="m198.383456 22.7133029c0 .4167428.377814.6559428.818721.6559428.598268 0 1.088908-.3654857 1.088908-.8825143v-.3149714c-.239011-.0690857-.560413-.1374286-.956784-.1374286-.610887 0-.950845.2637143-.950845.6789715m-.056413-1.6625143-.144742-.3974286c.358515-.1641714.711093-.2718857 1.183175-.2718857.888495 0 1.385815.4546286 1.385815 1.3104v1.9938286h-.466145v-.4925143c-.226391.2964-.604206.5601143-1.177237.5601143-.604948 0-1.215835-.3394858-1.215835-1.0214286 0-.6916.567093-1.0570857 1.391753-1.0570857.41567 0 .711835.0564571 1.001319.1374285v-.1129142c0-.5861143-.358515-.8884572-.970144-.8884572-.383753 0-.685856.1002857-.987959.2399429" mask="url(#a)" opacity=".7"/><path d="m202.410854 22.75832c0 .3974286.220453.5415429.547793.5415429.164042 0 .302846-.0304572.472825-.1136572v.4167429c-.169979.0884-.353319.1374285-.586392.1374285-.522556 0-.918927-.2562857-.918927-.9181714v-1.9678286h-.453526v-.4278857h.453526v-.9828h.484701v.9828h1.033237v.4278857h-1.033237z" mask="url(#a)" opacity=".7"/><path d="m204.346392 23.6855543h.483959v-3.2589143h-.483959zm-.031176-3.9713143h.553732v-.5356h-.553732z" mask="url(#a)" opacity=".7"/><path d="m207.445806 20.7850686c-.705154 0-1.190598.5616-1.190598 1.2680571 0 .7049714.516619 1.2725143 1.203217 1.2725143.705154 0 1.196536-.5616 1.196536-1.2606286 0-.7124-.522557-1.2799428-1.209155-1.2799428m0 2.9758857c-.976082 0-1.687917-.7688572-1.687917-1.6959429 0-.9256.717773-1.7078285 1.700536-1.7078285.976082 0 1.693855.7688571 1.693855 1.6959428 0 .9256-.724453 1.7078286-1.706474 1.7078286" mask="url(#a)" opacity=".7"/><path d="m210.515604 23.6839943h-.483959v-3.2574286h.483959v.5675429c.214516-.3543429.554474-.6373715 1.114144-.6373715.788289 0 1.248495.5296572 1.248495 1.3044572v2.0228h-.486185v-1.9024572c0-.6046857-.326598-.9835428-.900371-.9835428-.559671 0-.976083.4093143-.976083 1.0214286z" mask="url(#a)" opacity=".7"/><path d="m96.1715876 10.7568686c0 .3142285-.2553402.5682857-.5685773.5682857s-.567835-.2540572-.567835-.5682857c0-.3149715.2545979-.5690286.567835-.5690286s.5685773.2540571.5685773.5690286" mask="url(#a)" opacity=".7"/><path d="m96.1715876 13.1922514c0 .3149715-.2553402.5690286-.5685773.5690286s-.567835-.2540571-.567835-.5690286c0-.3142285.2545979-.5682857.567835-.5682857s.5685773.2540572.5685773.5682857" mask="url(#a)" opacity=".7"/><path d="m96.1715876 15.6283029c0 .3142285-.2553402.5682857-.5685773.5682857s-.567835-.2540572-.567835-.5682857c0-.3142286.2545979-.5682858.567835-.5682858s.5685773.2540572.5685773.5682858" mask="url(#a)" opacity=".7"/><path d="m96.1715876 18.06428c0 .3142286-.2553402.5682857-.5685773.5682857s-.567835-.2540571-.567835-.5682857.2545979-.5682857.567835-.5682857.5685773.2540571.5685773.5682857" mask="url(#a)" opacity=".7"/><path d="m96.1715876 20.5007029c0 .3134857-.2553402.5675428-.5685773.5675428s-.567835-.2540571-.567835-.5675428c0-.3149715.2545979-.5690286.567835-.5690286s.5685773.2540571.5685773.5690286" mask="url(#a)" opacity=".7"/><path d="m96.1715876 22.9353429c0 .3149714-.2553402.5690285-.5685773.5690285s-.567835-.2540571-.567835-.5690285c0-.3134858.2545979-.5675429.567835-.5675429s.5685773.2540571.5685773.5675429" mask="url(#a)" opacity=".7"/><path d="m96.1715876 25.3713943c0 .3149714-.2553402.5690286-.5685773.5690286s-.567835-.2540572-.567835-.5690286c0-.3134857.2545979-.5675429.567835-.5675429s.5685773.2540572.5685773.5675429" mask="url(#a)" opacity=".7"/><path d="m7.55703093 14.3701257h4.46177317v-3.3302286h-4.46177317z" mask="url(#a)" opacity=".7"/><path d="m15.2701608 11.0398229v9.6118285h-3.2518763v-3.1786857h-4.46177316v3.1786857h-3.25039175v-9.6118285h-4.30589691v9.6162857c0 2.4217143 1.96107217 4.3843428 4.38086598 4.3843428h10.81336084c2.4197938 0 4.3816082-1.9626285 4.3816082-4.3843428v-9.6162857z" mask="url(#a)" opacity=".7"/><path d="m121.044025 23.6317714h3.40033l4.39868-6.1946857v6.1857714l2.401237.0089143 4.354887-6.1857714v5.5833143l2.948288-4.1548v-6.6047429l-2.779793-.0029714-4.08767 5.7994857v-5.7653143h-2.646186z" mask="url(#a)" opacity=".7"/><path d="m121.808041 15.4099029h2.56231c0-1.9737715-1.244042-3.4669143-3.643052-3.5077715-2.211217-.0378857-3.733608 1.3891429-3.730639 3.3443429.002227 1.4277714.803876 2.5019428 1.997443 3.0672571.826887.3929715 1.538722.5942857 2.010062.9308.702186.5029143.677691 1.1937715.200412 1.6595429-.529979.5162857-1.872.4018857-1.872-1.1432572h-2.624659c-.013361 1.0927429.103175 1.8296572.803876 2.652.714062.8401715 1.443711 1.1321143 2.549691 1.2205143l3.843463-5.4451428c-.828371-.9048-1.782927-1.3950857-2.862927-1.7977143-.767506-.286-1.604784-.8646857-.992413-1.7226857.439423-.6158286 1.569155-.4776572 1.758433.7421143" mask="url(#a)" opacity=".7"/><path d="m116.189592 15.5158343-2.220866 3.0368v-6.2102857h-2.361897l-4.397196 6.0847428v-6.1352571h-2.864412v11.3397143h2.764948l4.094351-5.7824v5.7824h2.663257l3.678681-5.3010286c-.812784-.7205714-1.290062-1.6952-1.356866-2.8146857" mask="url(#a)" opacity=".7"/><path d="m146.903085 12.3035714v11.3181715h-3.027712v-1.5466286h-3.198433l-1.100783 1.5592571h-3.36767l7.972701-11.3649714zm-3.078186 5.226-1.532041 2.2137143h1.532041z" mask="url(#a)" opacity=".7"/></g></svg>