<svg height="66" viewBox="0 0 330 66" width="330" xmlns="http://www.w3.org/2000/svg" xmlns:xlink="http://www.w3.org/1999/xlink"><mask id="a" fill="#fff"><path d="m33.2673708.792h-32.91906643v23.9809h32.91906643z" fill="none"/></mask><mask id="b" fill="#fff"><path d="m7.337 7.3553v-6.969h-6.9697v6.969z" fill="none"/></mask><g fill="#005088" fill-rule="evenodd" transform="translate(0 -1)"><path d="m1.124 24.7729c-.422 0-.768-.338-.775-.762-.009-.46-.076-11.346 10.588-18.566 8.652-5.857 17.939-4.806 21.532-4.083l.106.021c.294.032.557.233.654.532.133.408-.091.846-.498.978-.201.065-.34.038-.569-.009-3.398-.686-12.188-1.68-20.354 3.848-9.945 6.732-9.909 17.149-9.907 17.253.006.428-.335.781-.764.788z" mask="url(#a)" transform="translate(4 .2085)"/><path d="m9.7817 24.2046c-.407 0-.749-.316-.774-.729-.007-.109-.531-11.123 11.716-16.593 11.885-5.309 21.516.496 21.92.747.365.224.477.702.252 1.067-.224.365-.702.479-1.067.254-.092-.057-9.36-5.614-20.472-.651-11.237 5.019-10.823 14.676-10.799 15.084.024.427-.303.794-.73.82-.015.001-.031.001-.046.001"/><path d="m13.9761 24.3608c-.011 0-.022 0-.033-.001-.427-.017-.761-.377-.744-.806.005-.1.505-10.142 10.275-13.969 9.589-3.755 18.515 2.233 18.89 2.489.353.243.444.725.202 1.079-.241.354-.725.445-1.078.204-.086-.059-8.636-5.777-17.447-2.326-8.807 3.45-9.274 12.214-9.29 12.585-.017.417-.362.745-.775.745"/><path d="m18.4795 24.5161c-.032 0-.063-.002-.094-.006-.425-.051-.729-.437-.678-.862.033-.285.9-7.028 6.916-10.369 6.638-3.689 13.204.859 13.48 1.053.35.248.433.732.186 1.082-.247.351-.731.434-1.082.187-.061-.042-6.057-4.173-11.831-.965-5.307 2.948-6.12 9.134-6.127 9.197-.048.393-.383.683-.77.683"/><path d="m44.751 37.1738c-2.498 0-5.329-.354-8.478-1.275-7.128-2.085-10.406-6.107-11.9-9.116-1.631-3.283-1.55-6.06-1.546-6.177.015-.428.396-.757.804-.747.428.015.763.375.747.801-.012.411-.172 10.092 12.33 13.748 12.724 3.721 20.01-2.419 20.082-2.481.323-.281.814-.246 1.095.078s.246.815-.078 1.095c-.247.213-4.829 4.073-13.056 4.074"/><path d="m43.8374 33.9658c-2.566 0-5.378-.485-8.349-1.748-12.098-5.14-9.084-14.758-9.052-14.856.133-.406.573-.629.981-.493.406.135.628.572.495.979-.111.343-2.563 8.375 8.183 12.941 11.796 5.012 20.617-2.931 20.986-3.272.315-.289.806-.271 1.097.044s.272.805-.042 1.096c-.075.07-5.862 5.309-14.299 5.309"/><path d="m44.7676 30.7134c-2.306 0-4.792-.417-7.376-1.353-3.51-1.27-5.816-3.193-6.857-5.713-1.411-3.415.066-6.625.129-6.759.183-.388.645-.555 1.033-.372.388.181.555.643.373 1.031-.012.026-1.247 2.751-.094 5.523.871 2.092 2.872 3.718 5.944 4.831 9.708 3.517 16.669-.861 18.511-5.092.171-.394.63-.574 1.022-.402.393.171.573.628.401 1.022-1.807 4.151-6.763 7.283-13.086 7.284"/><path d="m36.7446 21.6748c-.499 0-.816-.029-.875-.035-.427-.043-.738-.423-.695-.85.043-.426.418-.736.848-.695.085.008 6.536.562 9.421-4.503 2.95-5.182-.074-9.359-.104-9.402-.256-.343-.184-.829.16-1.085s.83-.185 1.086.16c.151.202 3.654 5.043.207 11.096-2.738 4.808-7.968 5.314-10.048 5.314"/><path d="m39.2847 24.7495c-.391 0-.727-.295-.771-.691-.046-.426.261-.81.687-.858.061-.006 6.13-.714 9.306-4.035 3.444-3.599 1.855-8.964 1.838-9.018-.126-.41.105-.844.515-.97.409-.125.844.105.97.515.078.255 1.865 6.296-2.2 10.547-3.571 3.732-9.989 4.475-10.26 4.505-.028.003-.057.005-.085.005"/><path d="m42.5454 27.3892c-.397 0-.734-.302-.772-.705-.039-.426.274-.805.701-.845.048-.004 4.87-.488 8.516-3.405 4.042-3.233 3.326-7.304 3.294-7.475-.079-.421.195-.827.615-.908.418-.08.826.191.908.61.041.208.954 5.146-3.847 8.986-4.018 3.214-9.127 3.719-9.343 3.738-.024.003-.048.004-.072.004"/><path d="m25.0005 7.9258c-.227 0-.45-.098-.604-.288-.04-.049-4.167-4.995-11.911-5.147-7.428-.146-11.065 4.319-11.1 4.363-.266.337-.753.394-1.091.128-.336-.266-.393-.754-.127-1.091.166-.208 4.15-5.085 12.348-4.953 8.495.168 12.904 5.497 13.088 5.723.27.333.218.822-.115 1.092-.144.116-.317.173-.488.173" transform="translate(0 25.2085)"/><path d="m2.251 36.0835c-.134 0-.269-.035-.392-.107-.369-.218-.493-.691-.277-1.06.128-.222 3.259-5.431 10.607-5.431 6.992 0 9.902 3.88 10.022 4.046.253.346.177.831-.17 1.084-.347.252-.832.177-1.085-.17-.101-.136-2.607-3.407-8.767-3.407-6.43 0-9.155 4.473-9.269 4.664-.144.244-.403.381-.669.381"/><path d="m7.2207 36.3931c-.165 0-.331-.053-.472-.161-.339-.26-.405-.743-.147-1.084 1.523-1.998 6.084-4.672 12.458-.489.359.235.458.717.223 1.075-.236.359-.717.458-1.075.223-6.725-4.413-10.226-.053-10.371.134-.154.198-.384.302-.616.302"/><path d="m39.4414 66.2085c-.236 0-.469-.107-.622-.31-1.948-2.599-2.639-4.997-2.639-9.162 0-8.31 5.727-13.031 7.981-14.567l-.571-.544c-6.035 2.13-11.463 9.513-11.518 9.59-.187.256-.508.374-.817.296-.308-.078-.537-.332-.581-.646l-1.459-10.511h-1.236l-.445 6.78c-.024.353-.282.645-.63.712-.347.065-.695-.111-.847-.431-.014-.03-1.55-3.178-4.976-4.892-1.885-.942-3.966-2.116-4.866-2.632l-.573.447c7.761 5.875 9.274 10.076 9.512 16.524.246 6.646-3.002 8.89-3.14 8.982-.356.24-.838.142-1.077-.215-.237-.356-.141-.839.216-1.077.102-.072 2.661-1.92 2.45-7.632-.234-6.288-1.689-10.081-9.698-15.939-.197-.144-.315-.371-.318-.614-.004-.243.105-.474.298-.624l1.785-1.398c.25-.196.595-.22.871-.059.027.016 2.802 1.632 5.234 2.848 2.015 1.008 3.441 2.423 4.361 3.581l.34-5.188c.027-.409.365-.726.775-.726h2.64c.388 0 .716.286.77.67l1.302 9.378c2.046-2.456 6.572-7.293 11.596-8.849.267-.083.561-.014.765.179l1.631 1.554c.178.17.264.416.233.662-.031.244-.179.46-.393.58-.082.044-8.063 4.572-8.063 13.761 0 3.831.588 5.908 2.33 8.23.256.343.188.83-.155 1.087-.14.104-.304.155-.466.155"/><path d="m3.0303 3.6343h.304c.434 0 .703-.017.807-.05.105-.033.187-.092.247-.174.061-.084.091-.179.091-.286 0-.102-.028-.194-.087-.274-.059-.081-.144-.138-.253-.173s-.378-.052-.805-.052h-.304zm-.752 2.102v-3.699h.752c.703 0 1.097.003 1.183.01.248.021.441.069.578.147.138.078.254.196.346.356.093.159.139.335.139.529 0 .267-.087.495-.262.685-.173.189-.419.307-.733.352.112.043.197.089.259.14.06.048.143.144.249.283.027.037.118.188.274.451l.435.746h-.928l-.309-.6c-.209-.404-.381-.658-.518-.762-.136-.105-.309-.157-.519-.157h-.194v1.519zm1.579-4.668c-.48 0-.939.12-1.379.359-.439.241-.786.584-1.039 1.034-.254.448-.38.918-.38 1.409 0 .489.123.954.372 1.397.245.443.591.788 1.034 1.037s.907.374 1.392.374c.487 0 .953-.125 1.396-.374.44-.249.786-.594 1.033-1.037.249-.443.374-.908.374-1.397 0-.491-.127-.961-.38-1.409-.253-.45-.602-.793-1.043-1.034-.44-.239-.9-.359-1.38-.359zm-.006-.682c.598 0 1.172.149 1.721.448.55.3.98.727 1.294 1.285s.471 1.143.471 1.751-.154 1.186-.462 1.737c-.308.55-.737.979-1.286 1.286-.551.308-1.13.462-1.738.462-.605 0-1.182-.154-1.734-.462-.549-.307-.98-.736-1.287-1.286-.309-.551-.463-1.129-.463-1.737s.157-1.193.472-1.751c.313-.558.745-.985 1.294-1.285.549-.299 1.122-.448 1.718-.448z" mask="url(#b)" transform="translate(322 24.2085)"/><path d="m84.9111 31.585v-6.364c0-2.043-1.548-2.072-3.235-2.101v-.759c1.686.03 3.521.058 5.048.058 1.369 0 3.303-.058 4.735-.058v.759c-1.687.029-3.431.058-3.431 2.101v14.655c0 2.043 1.744 2.071 3.431 2.101v.759c-1.432-.029-3.399-.058-4.83-.058-1.495 0-3.298.029-4.953.058v-.759c1.687-.03 3.235-.058 3.235-2.101v-7.094h-12.854v7.094c0 2.043 2.032 2.071 3.719 2.101v.759c-1.527 0-3.719-.058-5.119-.058-1.527 0-3.384.029-4.974.058v-.759c1.686-.03 3.256-.058 3.256-2.101v-14.655c0-2.043-1.57-2.072-3.256-2.101v-.759c1.495.03 3.32.058 4.752.058 1.463 0 3.749-.028 5.341-.058v.759c-1.687.029-3.719.058-3.719 2.101v6.364z"/><path d="m138.8081 42.2051c3.173-.621 3.734-3.869 3.05-6.9-.64-2.83-2.398-6.213-6.188-5.38-3.296.725-3.589 4.364-3.017 6.894.544 2.412 2.516 6.097 6.155 5.386m-1.776-13.255c4.423 0 7.732 2.773 7.732 7.051 0 3.888-3.246 7.173-7.317 7.173-4.232 0-7.7-2.773-7.7-7.052 0-3.887 3.022-7.172 7.285-7.172"/><path d="m263.1328 42.2051c3.175-.621 3.735-3.869 3.051-6.9-.64-2.83-2.398-6.213-6.188-5.38-3.296.725-3.59 4.364-3.017 6.894.545 2.412 2.516 6.097 6.154 5.386m-1.773-13.255c4.422 0 7.731 2.773 7.731 7.051 0 3.888-3.246 7.173-7.318 7.173-4.232 0-7.701-2.773-7.701-7.052 0-3.887 3.024-7.172 7.288-7.172"/><path d="m102.6279 42.2051c3.174-.621 3.735-3.869 3.05-6.9-.639-2.83-2.398-6.213-6.187-5.38-3.296.725-3.59 4.364-3.018 6.894.545 2.412 2.517 6.097 6.155 5.386m-1.775-13.255c4.423 0 7.732 2.773 7.732 7.051 0 3.888-3.246 7.173-7.318 7.173-4.232 0-7.7-2.773-7.7-7.052 0-3.887 3.023-7.172 7.286-7.172"/><path d="m112.8672 31.8145-2.014-.929v-.555c1.493-.408 2.917-.787 4.585-1.4.104 0 .208.058.208.291v2.192c2.287-1.85 3.53-2.483 5.466-2.483 2.952 0 4.537 1.809 4.537 4.086v7.338c0 .963.765 1.623 1.738 1.623h.625v.758c-1.216 0-2.432-.057-3.683-.057-1.25 0-2.5.028-3.751.057v-.758h.626c.973 0 1.799-.869 1.799-1.832v-7.291c0-1.664-1.46-2.282-3.439-2.282-1.112 0-2.639.776-3.918 1.863v8.578c0 .964.764.964 1.737.964h.625v.758c-1.216 0-2.432-.057-3.682-.057-1.251 0-2.501.028-3.751.057v-.758h.625c.973 0 1.667-.504 1.667-1.467z"/><path d="m237.1924 24.6719-2.014-.929v-.555c1.493-.408 2.918-.788 4.585-1.4.104 0 .208.058.208.291v9.335c2.288-1.851 3.53-2.485 5.466-2.485 2.953 0 4.538 1.811 4.538 4.088v7.338c0 .963.765 1.623 1.738 1.623h.625v.758c-1.217 0-2.431-.058-3.683-.058-1.25 0-2.5.029-3.751.058v-.758h.626c.973 0 1.799-.87 1.799-1.833v-7.29c0-1.663-1.459-2.283-3.439-2.283-1.112 0-2.64.776-3.919 1.863v8.579c0 .964.765.964 1.738.964h.625v.758c-1.216 0-2.432-.058-3.681-.058-1.252 0-2.503.029-3.752.058v-.758h.624c.974 0 1.667-.504 1.667-1.468z"/><path d="m170.3975 31.8145-2.014-.929v-.555c1.493-.408 2.917-.787 4.584-1.4.105 0 .209.058.209.291v2.192c2.288-1.85 3.53-2.483 5.466-2.483 2.952 0 4.538 1.809 4.538 4.086v7.338c0 .963.764 1.623 1.737 1.623h.625v.758c-1.216 0-2.432-.057-3.682-.057s-2.502.028-3.752.057v-.758h.626c.973 0 1.8-.869 1.8-1.832v-7.291c0-1.664-1.46-2.282-3.44-2.282-1.111 0-2.64.776-3.918 1.863v8.578c0 .964.764.964 1.737.964h.625v.758c-1.215 0-2.432-.057-3.682-.057s-2.501.028-3.751.057v-.758h.625c.972 0 1.667-.504 1.667-1.467z"/><path d="m164.7915 41.0137c0 .964.764.964 1.737.964h.625v.759c-1.216 0-2.432-.058-3.681-.058-1.251 0-2.502.028-3.752.058v-.759h.625c.972 0 1.667-.504 1.667-1.468v-8.695l-2.014-.928v-.556c1.493-.409 2.918-.788 4.584-1.401.105 0 .209.059.209.292z"/><path d="m146.3496 41.9771h1.217c.891 0 1.528-.581 1.528-1.545v-8.695s-2.19-.853-2.668-1.087v-.438c2.64-.726 4.894-1.447 4.894-1.447.169.09.287.087.287.379v3.093h.064c.795-1.138 2.054-3.218 4.383-3.218.795 0 2.173.812 2.173 1.864 0 .788-.604 1.489-1.494 1.489-.987 0-1.118-1.272-2.232-1.272-1.168 0-2.862 2.733-2.862 2.733v6.599c0 .964.636 1.545 1.526 1.545h1.783v.759c-1.75-.03-3.086-.058-4.454-.058-1.306 0-2.999.028-4.145.058z"/><path d="m163.3906 24.9004c-.827 0-1.559-.701-1.559-1.459 0-.73.765-1.402 1.559-1.402.828 0 1.56.613 1.56 1.402 0 .788-.701 1.459-1.56 1.459"/><path d="m276.1777 41.0137c0 .964.764.964 1.736.964h.625v.759c-1.215 0-2.431-.058-3.68-.058-1.251 0-2.501.028-3.752.058v-.759h.626c.971 0 1.667-.504 1.667-1.468v-8.695l-2.015-.928v-.556c1.494-.409 2.917-.788 4.585-1.401.104 0 .208.059.208.292z"/><path d="m274.7773 24.9004c-.827 0-1.56-.701-1.56-1.459 0-.73.764-1.402 1.56-1.402.827 0 1.56.613 1.56 1.402 0 .788-.702 1.459-1.56 1.459"/><path d="m194.1748 37.4048c-2.187.196-3.624-1.888-3.804-3.572-.232-2.173.751-3.701 2.686-3.875 2.217-.199 3.677 1.714 3.837 3.487.158 1.774-.564 3.766-2.719 3.96m-3.493 5.279s2.174.388 4.037.388c1.862 0 5.124-.078 5.124 1.553s-2.872 2.718-5.901 2.718c-3.028 0-5.202-.622-5.202-2.019 0-1.398 1.942-2.64 1.942-2.64m11.85-11.128v-1.682c-.826.116-2.921.31-6.017-.497-.766-.2-1.845-.408-2.801-.408-3.912 0-5.949 2.382-5.949 4.922 0 1.927 1.209 3.036 2.992 3.883 0 0-3.103 1.261-3.103 3.047 0 1.343 1.941 1.631 1.941 1.631-1.319.932-2.718 1.78-2.718 3.648 0 1.576 2.16 2.562 6.201 2.562 6.778 0 8.431-3.26 8.431-4.875 0-2.19-1.622-2.948-4.358-2.948-1.274 0-2.832-.03-4.39-.03-2.101 0-2.585-.42-2.7-.842-.233-.854 1.63-1.863 1.63-1.863s1.553.854 4.504.001c2.205-.637 3.106-2.62 3.106-4.194 0-.788-.393-2.027-.933-2.64 0 0 2.741.725 4.164.285"/><path d="m232.6807 27.6841-1.161-.062c-2.02-3.494-4.504-4.765-7.507-4.765-3.828 0-9.389 2.248-9.389 9.253 0 5.897 4.163 10.13 9.922 10.13 3.297 0 6.729-2.271 7.213-5.354l1.071-.061-.146 4.306c-2.251 1.32-6.607 2.042-8.804 2.042-7.79 0-12.718-3.75-12.718-10.975 0-5.984 5.607-10.275 12.618-10.275 2.713 0 5.72.497 7.895 1.351z"/><path d="m293.3984 39.5005c-1.554 2.485-3.697 3.674-6.212 3.674-3.804 0-6.987-3.207-6.987-6.701 0-5.363 3.804-7.687 8.15-7.61 2.564.047 4.894 1.171 4.894 2.718 0 .671-.453 1.178-1.21 1.284-1.898.269-1.198-3.613-5.39-2.992-2.706.401-3.883 2.407-3.883 5.746 0 3.006 2.351 5.394 5.821 5.394 1.622 0 3.108-.891 4.275-2.01z"/><path d="m312.0303 38.3359c.414 1.927 1.458 3.903 3.781 3.903 1.878 0 2.897-1.05 2.897-2.072 0-4.238-7.919-2.762-7.919-8.042 0-1.634 1.508-3.263 5.009-3.263 1.017 0 2.289.235 4.212 1.38l.096 3.203-1.088-.077c-.317-1.839-1.087-3.572-3.571-3.572-1.272 0-2.251.918-2.251 2.174 0 2.897 7.737 2.651 7.737 7.234 0 1.926-1.685 3.97-5.471 3.97-1.274 0-3.171-.527-4.286-1.111v-3.727z"/><path d="m301.7822 29.7959c3.417 0 3.495 3.571 3.495 3.571h-7.324c.495-2.169 2.091-3.571 3.829-3.571zm6.215 9.441c-1.168 1.118-2.654 1.776-4.277 1.776-3.467 0-5.585-2.211-5.897-5.55-.04-.431-.04-.846-.006-1.242h10.643s-.466-5.357-6.446-5.357c-4.812 0-6.675 4.891-6.675 7.609 0 3.493 3.182 6.7 6.987 6.7 2.513 0 4.891-1.421 6.211-3.439z"/><path d="m90.0806 63.6001c0 1.33.759 1.363 1.637 1.363h.276v.492c-.879 0-1.741-.065-2.62-.065-.948 0-1.878.065-2.861.065v-.492h.276c.517 0 1.085-.016 1.085-1.331v-7.847c0-1.1-.327-1.298-1.154-1.298h-.207v-.492c.62 0 1.534.065 2.413.065.896 0 1.74-.065 2.516-.065 2.345 0 4.05.739 4.05 3.136 0 1.921-1.43 3.153-3.326 3.333-.534.033-.982.033-1.379.033v-.493h.362c1.396 0 2.034-1.181 2.034-2.807 0-1.576-.827-2.611-2.602-2.611h-.5z"/><path d="m101.8696 55.834h-.035l-1.603 4.647h3.223zm-2.517 7.274c-.172.559-.379.985-.379 1.28 0 .494.724.576 1.293.576h.19v.492c-.69-.033-1.396-.066-2.086-.066-.621 0-1.24.033-1.862.066v-.492h.105c.671 0 1.24-.379 1.498-1.068l2.758-7.537c.224-.607.535-1.428.639-2.036.55-.18 1.24-.51 1.568-.705.051-.017.086-.033.137-.033.052 0 .086 0 .121.049.052.131.103.279.155.41l3.172 8.588c.206.575.413 1.182.637 1.674.207.46.569.658 1.138.658h.103v.492c-.775-.033-1.55-.066-2.378-.066-.844 0-1.707.033-2.585.066v-.492h.189c.396 0 1.068-.066 1.068-.476 0-.215-.155-.658-.344-1.183l-.672-1.905h-3.913z"/><path d="m120.7256 57.3774c-.483-1.592-1.276-2.907-3.861-2.907-2.827 0-4.309 2.118-4.309 4.993 0 2.741 1.464 5.516 4.722 5.516 1.845 0 3.07-1.1 3.516-2.742l.484.065c-.224.888-.345 1.774-.431 2.662-1 .409-2.362.738-3.948.738-3.878 0-6.756-2.02-6.756-6.141 0-3.679 3.12-5.813 6.67-5.813 2.017 0 2.672.591 4.292.821-.017.903.017 1.823.138 2.742z"/><path d="m124.3618 64.9644h.241c.621 0 1.277-.083 1.277-.938v-8.603c0-.854-.656-.935-1.277-.935h-.241v-.493c.672 0 1.706.065 2.55.065.863 0 1.897-.065 2.706-.065v.493h-.24c-.62 0-1.276.081-1.276.935v8.603c0 .855.656.938 1.276.938h.24v.492c-.826 0-1.86-.066-2.723-.066-.844 0-1.861.066-2.533.066z"/><path d="m136.1514 59.0195h2.413c.844 0 1.103-.509 1.103-1.33h.516c-.034.591-.069 1.165-.069 1.757 0 .673.018 1.33.069 2.003h-.516c0-.92-.277-1.609-1.38-1.609h-2.136v4.185c0 .921.792.939 1.654.939h.224v.492c-.811 0-1.982-.066-2.964-.066-.897 0-1.948.066-2.638.066v-.492h.242c.621 0 1.275-.083 1.275-.939v-8.602c0-.854-.654-.935-1.275-.935h-.242v-.493c1.052 0 2.845.065 4.292.065 1.448 0 3.241-.065 4.412-.065-.034.705-.017 1.789.034 2.512l-.516.131c-.103-1.133-.379-1.921-1.741-1.921h-2.757z"/><path d="m144.1655 64.9644h.242c.62 0 1.276-.083 1.276-.938v-8.603c0-.854-.656-.935-1.276-.935h-.242v-.493c.672 0 1.707.065 2.551.065.862 0 1.896-.065 2.705-.065v.493h-.24c-.62 0-1.276.081-1.276.935v8.603c0 .855.656.938 1.276.938h.24v.492c-.825 0-1.86-.066-2.722-.066-.845 0-1.862.066-2.534.066z"/><path d="m162.5044 57.3774c-.483-1.592-1.276-2.907-3.861-2.907-2.827 0-4.309 2.118-4.309 4.993 0 2.741 1.465 5.516 4.722 5.516 1.845 0 3.069-1.1 3.517-2.742l.483.065c-.224.888-.344 1.774-.432 2.662-.999.409-2.361.738-3.947.738-3.878 0-6.756-2.02-6.756-6.141 0-3.679 3.12-5.813 6.67-5.813 2.017 0 2.672.591 4.292.821-.017.903.018 1.823.138 2.742z"/><path d="m183.6699 62.2202.035-.032v-6.157c0-1.346-.983-1.543-1.501-1.543h-.378v-.493c.81 0 1.603.065 2.412.065.707 0 1.413-.065 2.12-.065v.493h-.257c-.725 0-1.535.13-1.535 2.085v7.47c0 .575.017 1.151.103 1.659h-.653l-8.878-9.425v6.764c0 1.429.294 1.923 1.621 1.923h.292v.491c-.741 0-1.482-.065-2.223-.065-.775 0-1.568.065-2.344.065v-.491h.242c1.189 0 1.55-.773 1.55-2.086v-6.913c0-.919-.793-1.477-1.568-1.477h-.224v-.493c.654 0 1.326.065 1.982.065.517 0 1.017-.065 1.533-.065z"/><path d="m195.1318 64.979c3.344 0 3.93-2.807 3.93-5.204 0-2.398-1.362-5.304-4.224-5.304-3.016 0-3.911 2.562-3.911 4.761 0 2.94 1.413 5.747 4.205 5.747m-.259-11.23c3.671 0 6.602 2.166 6.602 5.664 0 3.777-2.844 6.29-6.516 6.29-3.654 0-6.446-2.366-6.446-5.895 0-3.416 2.776-6.059 6.36-6.059"/><path d="m207.5234 59.5449h.845c1.723 0 2.654-.625 2.654-2.562 0-1.46-.982-2.397-2.516-2.397-.517 0-.741.049-.983.065zm-2.205-3.81c0-1.198-.691-1.247-1.225-1.247h-.31v-.493c.552 0 1.62.066 2.672.066 1.034 0 1.861-.066 2.775-.066 2.171 0 4.102.558 4.102 2.89 0 1.477-1.034 2.381-2.395 2.89l2.946 4.203c.483.69.829.886 1.672.986v.492c-.568 0-1.121-.066-1.688-.066-.535 0-1.087.066-1.621.066-1.327-1.66-2.465-3.432-3.584-5.32h-1.139v3.513c0 1.265.622 1.315 1.413 1.315h.311v.492c-.983 0-1.982-.066-2.963-.066-.829 0-1.639.066-2.501.066v-.492h.31c.639 0 1.225-.28 1.225-.888z"/><path d="m218.5205 54.8154c-1.293 0-1.345.296-1.604 1.495h-.516c.068-.46.154-.919.206-1.396.069-.46.103-.919.103-1.396h.414c.137.493.57.477 1.035.477h8.894c.465 0 .896-.016.93-.51l.415.066c-.07.444-.139.887-.19 1.33-.036.443-.036.887-.036 1.33l-.516.181c-.034-.607-.12-1.577-1.276-1.577h-2.827v8.737c0 1.263.605 1.412 1.431 1.412h.328v.492c-.673 0-1.88-.066-2.81-.066-1.035 0-2.24.066-2.913.066v-.492h.328c.948 0 1.43-.083 1.43-1.38v-8.769z"/><path d="m234.7393 64.0269c0 .887.724.938 1.345.938h.326v.492c-.758 0-1.86-.067-2.791-.067-.879 0-1.914.067-2.603.067v-.492h.242c.621 0 1.275-.083 1.275-.938v-8.603c0-.854-.654-.936-1.275-.936h-.242v-.493c.689 0 1.724.066 2.603.066.931 0 2.033-.066 2.791-.066v.493h-.326c-.621 0-1.345.049-1.345.936v3.596h6.256v-3.596c0-.887-.723-.936-1.344-.936h-.328v-.493c.759 0 1.861.066 2.793.066.879 0 1.912-.066 2.602-.066v.493h-.241c-.621 0-1.275.082-1.275.936v8.603c0 .855.654.938 1.275.938h.241v.492c-.69 0-1.723-.067-2.602-.067-.932 0-2.034.067-2.793.067v-.492h.328c.621 0 1.344-.051 1.344-.938v-4.087h-6.256z"/><path d="m257.0078 55.6694c.12-.312.224-.525.224-.689 0-.411-.397-.492-.965-.492-.466 0-.845.081-.845.41 0 .246.139.476.275.788l.655 1.461h.035zm-1.413 4.894-2.275 5.139h-.586l-4.344-9.754c-.344-.772-.57-1.46-1.5-1.46h-.258v-.493c.654 0 1.654.065 2.482.065.724 0 1.62-.065 2.171-.065v.493h-.155c-.396 0-.741.065-.741.376 0 .215.155.707.587 1.691l2.826 6.323 1.395-3.203-2.154-4.744c-.172-.378-.603-.443-1.051-.443v-.493c.811 0 1.62.065 2.43.065.639 0 1.258-.065 1.897-.065.551 0 1.102.065 1.654.065.517 0 1.034-.065 1.551-.065v.493h-.242c-.861 0-1.068.311-1.498 1.247l-1.019 2.25 2.121 4.76 2.654-6.895c.104-.279.26-.69.26-.904 0-.361-.312-.458-1.035-.458h-.206v-.493c.569 0 1.137.065 1.705.065.518 0 1.017-.065 1.535-.065v.493h-.207c-.518 0-.81.557-1.017 1.066l-4.068 10.148h-.603z"/><path d="m266.0557 64.9644h.241c.622 0 1.277-.083 1.277-.938v-8.603c0-.854-.655-.935-1.277-.935h-.241v-.493c1.052 0 2.845.065 4.292.065 1.448 0 3.241-.065 4.412-.065-.034.705-.016 1.789.034 2.512l-.516.131c-.086-1.067-.294-1.921-2.102-1.921h-2.397v4.302h2.051c1.035 0 1.259-.558 1.363-1.445h.516c-.035.641-.051 1.281-.051 1.921 0 .624.016 1.248.051 1.872l-.516.098c-.104-.984-.156-1.625-1.345-1.625h-2.069v3.826c0 1.066 1 1.066 2.104 1.066 2.067 0 2.981-.13 3.498-2.002l.483.116c-.225.869-.432 1.739-.586 2.61-1.103 0-3.085-.066-4.637-.066-1.55 0-3.603.066-4.585.066z"/><path d="m285.0508 56.4253c-.121-1.068-.846-2.085-2.035-2.085-1.361 0-2.12.771-2.12 2.068 0 2.726 5.172 1.905 5.172 5.846 0 2.267-1.966 3.448-4.172 3.448-.965 0-1.895-.329-2.741-.738-.085-.838-.206-1.659-.292-2.497l.482-.098c.207 1.395 1.034 2.61 2.672 2.61 1.172 0 2.119-.706 2.119-1.871 0-2.906-5.066-2.003-5.066-5.961 0-2.134 1.585-3.399 3.809-3.399.481 0 1.947.181 2.482.247 0 .771.069 1.56.172 2.348z"/><path d="m291.0137 54.8154c-1.293 0-1.344.296-1.603 1.495h-.516c.068-.46.154-.919.206-1.396.068-.46.103-.919.103-1.396h.414c.137.493.569.477 1.034.477h8.895c.464 0 .895-.016.93-.51l.413.066c-.069.444-.138.887-.189 1.33-.035.443-.035.887-.035 1.33l-.516.181c-.035-.607-.121-1.577-1.277-1.577h-2.827v8.737c0 1.263.605 1.412 1.432 1.412h.327v.492c-.672 0-1.879-.066-2.81-.066-1.034 0-2.24.066-2.912.066v-.492h.327c.948 0 1.43-.083 1.43-1.38v-8.769z"/></g></svg>