<svg height="30" width="45" xmlns="http://www.w3.org/2000/svg"><g fill="#bdc3c7" fill-rule="evenodd"><path d="M28 9.504C28 5.363 31.356 2 35.496 2A7.508 7.508 0 0 1 43 9.504C43 13.644 39.637 17 35.496 17A7.496 7.496 0 0 1 28 9.504z"/><path d="M36 0c4.963 0 9 4.037 9 9s-4.037 9-9 9-9-4.037-9-9 4.037-9 9-9zm0 15.227c3.436 0 6.235-2.792 6.235-6.227 0-3.436-2.799-6.235-6.235-6.235-3.435 0-6.227 2.799-6.227 6.235A6.232 6.232 0 0 0 36 15.227zM4 9.504A7.508 7.508 0 0 1 11.504 2C15.644 2 19 5.363 19 9.504A7.496 7.496 0 0 1 11.504 17C7.363 17 4 13.644 4 9.504z"/><path d="M12.004 0C16.965 0 21 4.037 21 9s-4.035 9-8.996 9C7.042 18 3 13.963 3 9s4.042-9 9.004-9zm0 15.227a6.231 6.231 0 0 0 0-12.462A6.24 6.24 0 0 0 5.772 9a6.233 6.233 0 0 0 6.232 6.227zM43.607 9C44.379 9 45 9.63 45 10.402 45 21.21 36.21 30 25.402 30a1.397 1.397 0 1 1 0-2.795c9.262 0 16.803-7.54 16.803-16.803A1.4 1.4 0 0 1 43.607 9z"/><path d="M19.598 9C20.37 9 21 9.63 21 10.402 21 21.21 12.208 30 1.402 30 .622 30 0 29.379 0 28.607c0-.78.621-1.402 1.402-1.402 9.263 0 16.794-7.54 16.794-16.803 0-.772.63-1.402 1.402-1.402z"/></g></svg>